<?xml version="1.0" encoding="UTF-8"?>
<svg width="100px" height="83px" viewBox="0 0 100 83" version="1.1" xmlns="http://www.w3.org/2000/svg" xmlns:xlink="http://www.w3.org/1999/xlink">
    <!-- Generator: Sketch 47.1 (45422) - http://www.bohemiancoding.com/sketch -->
    <title>Untitled</title>
    <desc>Created with Sketch.</desc>
    <defs></defs>
    <g id="Page-1" stroke="none" stroke-width="1" fill="none" fill-rule="evenodd">
        <g id="Group" fill="#FFFFFF">
            <path d="M9.05505135,25.7158171 C7.94169335,25.7158171 7.35908161,24.8424163 7.35908161,23.9797865 C7.35908161,23.53184 7.50863241,23.1114545 7.7803694,22.7962446 C8.09315331,22.4335156 8.53385089,22.2418552 9.05505135,22.2418552 C9.57656999,22.2418552 10.0172676,22.4331988 10.3300515,22.795611 C10.6014703,23.1101873 10.7513393,23.530256 10.7513393,23.9778858 C10.7513393,24.8414659 10.1687275,25.7158171 9.05505135,25.7158171" id="Fill-60"></path>
            <path d="M13.576863,27.7519465 C13.4320851,27.7519465 13.2815798,27.7310381 13.1266197,27.6857365 C12.0578087,27.3743281 11.7911628,26.2161297 12.0800822,25.2331182 C12.3690017,24.2494732 13.2201685,23.416622 14.289934,23.7270801 C15.3587449,24.0384885 15.6250727,25.1963701 15.3364714,26.1793816 C15.0892353,27.0207862 14.4308936,27.7519465 13.576863,27.7519465" id="Fill-62"></path>
            <path d="M35.5244297,32.0507762 C33.339397,32.0507762 31.3516441,30.5304823 30.5854349,28.211551 C30.2360588,27.154093 30.8934459,26.4051923 31.6520185,26.1568259 C32.4930031,25.881532 33.5821784,26.1732991 33.9411004,27.258635 C34.2481568,28.1877915 35.1874631,28.606593 35.8843062,28.462135 C36.4806003,28.3382686 36.7822474,27.839635 36.7116085,27.094219 C36.6113777,26.0291579 37.3801324,25.4674823 38.137114,25.3968373 C39.0719657,25.309719 40.0911385,25.8989556 40.1980514,27.0349785 C40.4300142,29.4847457 38.5097183,31.7704136 36.0055378,32.0260663 C35.8445321,32.0428564 35.6838445,32.0507762 35.5244297,32.0507762" id="Fill-90"></path>
            <path d="M86.7084782,28.7137644 C86.6111111,27.4998102 87.8555647,27.1925201 88.9358306,28.7137644 C89.572217,29.6641461 89.2845703,30.1855888 89.2960253,30.7383942 C88.2568063,30.4960468 86.7950268,29.8976232 86.7084782,28.7137644 M75.1240185,50.7661041 C74.9954684,51.2004285 74.8554634,51.6312682 74.7094128,52.0605239 C74.6658203,52.1881919 74.6200005,52.3145927 74.5751352,52.441627 C74.4647222,52.7543026 74.3492181,53.0650774 74.228941,53.3739514 C74.1783483,53.5047873 74.1280738,53.6356232 74.0755719,53.7658255 C73.9247483,54.1393255 73.7675609,54.5099743 73.6027368,54.8768217 C73.5817361,54.9240239 73.5629627,54.9718598 73.5413255,55.0184285 C73.3545461,55.4293102 73.1572663,55.8341728 72.9529863,56.2352339 C72.8950752,56.3492797 72.8339821,56.4614247 72.7744799,56.5748369 C72.619838,56.8691385 72.4604232,57.160272 72.2959174,57.4488713 C72.2252785,57.5721041 72.155276,57.6950201 72.0830461,57.8173026 C71.8949939,58.1359972 71.7008961,58.4502568 71.5004344,58.760398 C71.4558873,58.8297759 71.4138858,58.9007377 71.3683842,58.969482 C71.1233754,59.3423484 70.8678663,59.7076117 70.6050387,60.066856 C70.5350362,60.162211 70.4618518,60.2547148 70.3908947,60.3488026 C70.1891602,60.6168102 69.982971,60.8803827 69.7710543,61.1392033 C69.6810057,61.2491308 69.5906388,61.3584247 69.498681,61.4667682 C69.2737184,61.7322415 69.0423919,61.9923293 68.8066108,62.2476652 C68.7372447,62.3227453 68.6707423,62.400043 68.6004216,62.473856 C68.2955925,62.7954018 67.981854,63.1074438 67.6598425,63.4106156 C67.5828397,63.4828446 67.5029732,63.551272 67.4246977,63.6225507 C67.1714159,63.854127 66.9127249,64.0809514 66.6483063,64.3008064 C66.5388479,64.392043 66.428753,64.4813789 66.3173854,64.570398 C66.0551942,64.7804323 65.7872755,64.9834972 65.514584,65.1811766 C65.4624003,65.2188751 65.4137167,65.2603751 65.361533,65.2977568 L65.14898,65.4938522 C64.8272867,65.8679858 64.7941946,66.4752797 65.374579,67.2957759 C65.5941323,67.6059171 65.8187767,67.9046537 66.0529668,68.193253 C67.9067604,70.4767033 68.9711167,71.6459896 71.7820354,72.2830621 C71.7820354,72.2830621 70.4179411,72.2963675 69.7710543,73.5546728 C69.1407136,74.7803484 69.1524868,75.712356 69.1524868,75.712356 C65.7793207,74.7413827 63.7810674,73.2442148 60.7999154,70.743127 C59.9611581,70.0395278 59.1742663,69.2896766 58.4596044,68.5008598 C56.91414,66.7952415 55.7046877,64.9096843 55.0403003,62.9221194 C54.4630979,61.196543 51.7069084,61.9362568 52.2892019,63.677356 C52.9303612,65.5952262 53.9753077,67.4259781 55.299946,69.1195583 C50.1655805,69.807001 44.8800733,69.050814 39.8188924,67.9638942 C40.0683558,66.6609209 40.2583172,65.3538293 40.3630027,64.0454705 C40.508417,62.2229552 37.6545422,62.2324591 37.5097643,64.0454705 C37.4222612,65.139043 37.270483,66.2354667 37.0674758,67.3303064 C36.8962878,68.2562949 36.6850076,69.1806995 36.44859,70.1025698 C35.5958323,73.4263713 34.8658971,75.4383293 33.650399,78.5787072 C32.810369,77.7851385 29.5727532,76.8585163 28.6149917,77.5279018 L31.072716,68.5163827 C31.276996,67.5818407 31.4602753,66.6447644 31.6241448,65.7057873 C31.8115606,64.6312224 31.9798848,63.5550736 32.1033437,62.4760736 C32.3104875,60.6627453 29.4559763,60.6773178 29.2504235,62.4760736 C29.1667387,63.2059667 29.0649169,63.9358598 28.9471854,64.6648026 C26.7977904,63.7514858 24.7253981,62.6686843 22.7831468,61.3628598 C16.806524,57.3449629 13.6790031,51.5961041 12.4110032,44.8819743 C14.1604294,45.9964552 16.0578154,46.868272 17.9014268,47.4670125 C23.8516396,49.399772 31.2034934,46.8559171 35.720564,42.8114094 C37.0887947,41.5866843 35.0657224,39.5832797 33.7032191,40.803253 C30.1836842,43.954085 24.2570177,46.1358446 19.5525313,44.9881003 C14.6307189,43.7871346 8.63023161,39.7853942 8.0928033,34.4141537 C16.4657391,36.8062644 27.7950078,32.7969209 23.748545,22.7130545 C23.7339081,22.6766232 22.865877,21.202898 23.1958434,21.6445087 C23.2843011,21.5811499 23.3705314,21.5067033 23.4529435,21.4138827 C25.1050026,19.5508178 27.2375334,18.0862797 29.5994815,16.9553255 C29.918311,16.8026308 30.2390498,16.6527873 30.5664706,16.5124476 C32.4982215,15.683398 34.5569315,15.0697682 36.6261418,14.6436804 C36.3763602,15.2918407 36.1911717,15.9520392 36.1030322,16.6176232 C35.8640691,18.4246156 38.7192167,18.4068751 38.9559524,16.6176232 C39.0555469,15.8649209 39.4634706,14.9836003 39.9802163,14.107982 C40.628694,13.0077568 41.4461324,11.9186194 42.0408355,11.1022415 C42.0621544,11.0730965 42.0850643,11.0420507 42.1054287,11.0135392 C44.4896503,7.72902013 48.5599777,2.96729112 50.4344538,3.68704685 C52.9799994,4.63742853 52.855904,8.81245525 53.1718699,12.0440698 C53.2673278,13.0226461 53.316966,14.0047072 53.3195115,14.990253 C53.3284209,18.0308407 53.537792,18.566856 52.6595788,21.6451423 C52.1571518,23.4065163 54.8952042,24.1541499 55.4106772,22.4000621 C56.1619313,19.8435354 56.1619313,18.8931537 56.1552493,15.7812873 C58.645111,16.5758064 61.0560609,17.6091881 63.330824,18.8776308 C68.9520251,22.011356 73.5954184,26.7249323 75.3228892,33.0332491 C76.9109915,38.8327949 76.8260339,45.0124934 75.1240185,50.7661041 M21.1539976,73.4666041 C20.5837954,71.762253 19.4424364,71.1942415 17.1600366,71.762253 C19.0319672,68.7577797 19.8859977,66.7958751 20.8068489,63.4362759 C21.9571173,64.2380812 23.1560692,64.9663904 24.3935226,65.6275392 C23.5204004,68.4492224 22.7140989,70.952211 21.1539976,73.4666041 M21.0849497,23.7055698 C26.2409523,37.3980354 -4.62728793,33.3554285 4.21752836,20.6209476 C8.05239276,15.0998636 18.4458553,18.671398 21.0849497,23.7055698 Z M19.7752665,10.3520736 C20.1628258,9.5616728 20.7422556,8.09713464 21.3391861,7.1131728 C22.146124,7.79206212 23.2225716,8.99017662 23.7810007,9.58163082 C25.2478713,11.1345545 26.6221477,12.8477759 27.5426806,14.7830698 C25.2122337,15.9932224 21.426371,19.4193484 21.4206435,19.426001 C20.2894667,18.3210239 18.927918,17.4137262 17.4454559,16.7259667 C17.6376446,14.5280507 18.827369,12.2807148 19.7752665,10.3520736 M96.2001813,22.1805239 C97.2546735,24.6784438 97.4144065,27.4747835 95.153962,29.3853675 C94.5102572,29.9293026 93.3501248,30.4244514 92.1209445,30.6823217 C92.0951708,29.2966652 91.6506549,27.9369858 90.6881205,26.854501 C89.3736644,25.3757072 86.7091146,24.367669 84.9237326,25.6411804 C83.1733518,26.8896652 83.7537362,29.3473522 84.8502299,30.821711 C85.7608989,32.046753 87.0861735,32.8685163 88.5355435,33.3136117 C88.1664394,33.8870087 87.698059,34.4021156 87.2010413,34.834856 C84.8760036,36.8588522 81.5079286,36.983669 78.7787856,35.7259972 C77.4897849,28.8509362 73.8770194,22.5628942 67.7037532,18.2532301 C64.2007642,15.8075812 60.2274858,13.9837988 56.0760192,12.779982 C55.7622807,8.30938654 55.7419163,5.20765754 53.2981926,1.1526957 C52.343613,-0.431273761 49.4798742,-0.114479868 48.5252946,0.519107919 C44.2758245,3.33984074 42.6336294,5.44620334 39.6419769,9.58004685 C39.2124161,10.1734018 38.7609,10.8054056 38.3268845,11.4652873 C35.5423758,11.8650812 32.7371846,12.5661461 30.115909,13.6106156 C28.8600005,10.9834438 26.9673873,8.68320334 24.8879948,6.64558502 C23.8643673,5.64293235 21.7830656,3.08197051 20.1322793,4.15210029 C18.7462297,5.05052777 17.8543342,7.79554685 17.180401,9.18500487 C16.1850927,11.2371957 15.1032358,13.4538026 14.7109036,15.7435888 C8.28562838,14.0500087 0.958593637,16.2045239 0.0746529364,23.808211 C-0.450047645,28.3241079 1.84667085,31.4635354 5.21792777,33.2641919 C5.08492301,36.909856 6.72457255,39.937772 9.16511437,42.3301995 C10.0411002,49.7720049 12.5554629,56.5165468 18.3354423,61.5171385 C17.4887302,65.7463369 14.7487686,69.8421652 12.4870513,73.4618522 C11.8554379,74.4730583 12.7123321,75.4696919 13.7187772,75.5989438 C16.2605045,75.9246079 18.8012771,76.2578751 21.3417316,76.5908255 C21.836522,76.6557682 22.3262214,76.2702301 22.5734575,75.887543 C24.3750674,73.1010239 25.953942,70.0677224 26.9887063,66.9004171 C27.4577231,67.1104514 27.9292854,67.3147835 28.4056206,67.5092949 C27.5388623,71.5845316 26.283272,75.620169 25.0518643,79.5461957 C24.833902,80.2418751 25.309919,81.1450545 26.0481272,81.293314 C28.590809,81.8043026 31.1309453,82.3260621 33.6713998,82.8478217 C34.4859744,83.0154056 35.1312702,82.6127606 35.4262353,81.85594 C36.8148304,78.2885239 38.2209261,74.5570087 39.1930063,70.7618178 C45.205585,72.1094591 51.5331749,72.8276308 57.5581631,71.6222301 C61.3386164,75.2948217 66.3702055,78.0319209 71.023781,79.1289781 C71.6748042,79.2823064 72.2704619,79.0177835 72.6347931,78.4763827 C74.0294339,76.4039171 75.4240747,74.3314514 76.8190337,72.2589858 C77.4528745,71.3174743 76.6007531,70.1668789 75.5873078,70.1218942 C72.6755218,69.9929591 70.1395221,68.7238827 68.3420487,66.5120278 C72.6363841,62.9743904 75.7518137,58.053314 77.5515144,52.5597911 C79.0187032,48.0815927 79.5847689,43.3879743 79.1997552,38.8524362 C83.9605618,40.1588942 89.4624403,38.5856957 91.5300597,33.6833102 C91.6379272,33.6776079 91.7473857,33.6823598 91.8542986,33.6725392 C98.1538875,33.1029438 101.309091,27.0125812 98.9512796,21.4252873 C98.2506182,19.7652873 95.4890195,20.4948636 96.2001813,22.1805239 Z" id="Fill-94"></path>
        </g>
    </g>
</svg>