<?xml version="1.0" encoding="UTF-8"?>
<svg width="301px" height="249px" viewBox="0 0 301 249" version="1.1" xmlns="http://www.w3.org/2000/svg" xmlns:xlink="http://www.w3.org/1999/xlink">
    <!-- Generator: Sketch 47.1 (45422) - http://www.bohemiancoding.com/sketch -->
    <title>Untitled</title>
    <desc>Created with Sketch.</desc>
    <defs></defs>
    <g id="Page-1" stroke="none" stroke-width="1" fill="none" fill-rule="evenodd">
        <g id="Group" fill="#FF1B77">
            <path d="M27.165154,77.1474512 C23.8250801,77.1474512 22.0772448,74.5272489 22.0772448,71.9393596 C22.0772448,70.5955199 22.5258972,69.3343635 23.3411082,68.3887337 C24.2794599,67.3005467 25.6015527,66.7255657 27.165154,66.7255657 C28.72971,66.7255657 30.0518027,67.2995963 30.9901545,68.3868329 C31.8044108,69.3305619 32.2540178,70.590768 32.2540178,71.9336573 C32.2540178,74.5243978 30.5061826,77.1474512 27.165154,77.1474512" id="Fill-60"></path>
            <path d="M40.7305891,83.2558394 C40.2962554,83.2558394 39.8447393,83.1931142 39.379859,83.0572096 C36.1734262,82.1229844 35.3734885,78.648389 36.2402467,75.6993547 C37.107005,72.7484196 39.6605054,70.2498661 42.869802,71.1812402 C46.0762348,72.1154654 46.875218,75.5891104 46.0094143,78.5381447 C45.2677059,81.0623585 43.2926808,83.2558394 40.7305891,83.2558394" id="Fill-62"></path>
            <path d="M106.573289,96.1523287 C100.018191,96.1523287 94.0549324,91.591447 91.7563047,84.6346531 C90.7081763,81.4622791 92.6803377,79.2155768 94.9560555,78.4704776 C97.4790093,77.6445959 100.746535,78.5198974 101.823301,81.7759051 C102.74447,84.5633745 105.562389,85.8197791 107.652919,85.3864051 C109.441801,85.0148058 110.346742,83.5189051 110.134826,81.282657 C109.834133,78.0874738 112.140397,76.402447 114.411342,76.1905119 C117.215897,75.929157 120.273415,77.6968669 120.594154,81.1049356 C121.290043,88.4542371 115.529155,95.3112409 108.016613,96.0781989 C107.533596,96.1285692 107.051533,96.1523287 106.573289,96.1523287" id="Fill-90"></path>
            <path d="M260.125435,86.1412932 C259.833333,82.4994306 263.566694,81.5775604 266.807492,86.1412932 C268.716651,88.9924383 267.853711,90.5567665 267.888076,92.2151825 C264.770419,91.4881405 260.38508,89.6928696 260.125435,86.1412932 M225.372055,152.298312 C224.986405,153.601286 224.56639,154.893805 224.128238,156.181572 C223.997461,156.564576 223.860001,156.943778 223.725406,157.324881 C223.394167,158.262908 223.047654,159.195232 222.686823,160.121854 C222.535045,160.514362 222.384221,160.90687 222.226716,161.297476 C221.774245,162.417976 221.302683,163.529923 220.80821,164.630465 C220.745208,164.772072 220.688888,164.915579 220.623977,165.055286 C220.063638,166.287931 219.471799,167.502518 218.858959,168.705702 C218.685225,169.047839 218.501946,169.384274 218.32344,169.724511 C217.859514,170.607415 217.38127,171.480816 216.887752,172.346614 C216.675835,172.716312 216.465828,173.08506 216.249138,173.451908 C215.684982,174.407992 215.102688,175.35077 214.501303,176.281194 C214.367662,176.489328 214.241657,176.702213 214.105153,176.908446 C213.370126,178.027045 212.603599,179.122835 211.815116,180.200568 C211.605109,180.486633 211.385555,180.764144 211.172684,181.046408 C210.567481,181.850431 209.948913,182.641148 209.313163,183.41761 C209.043017,183.747392 208.771916,184.075274 208.496043,184.400305 C207.821155,185.196725 207.127176,185.976988 206.419832,186.742996 C206.211734,186.968236 206.012227,187.200129 205.801265,187.421568 C204.886777,188.386205 203.945562,189.322331 202.979527,190.231847 C202.748519,190.448534 202.50892,190.653816 202.274093,190.867652 C201.514248,191.562381 200.738175,192.242854 199.944919,192.902419 C199.616544,193.176129 199.286259,193.444137 198.952156,193.711194 C198.165583,194.341297 197.361827,194.950492 196.543752,195.54353 C196.387201,195.656625 196.24115,195.781125 196.084599,195.89327 L195.44694,196.481557 C194.48186,197.603957 194.382584,199.425839 196.123737,201.887328 C196.782397,202.817751 197.45633,203.713961 198.158901,204.579759 C203.720281,211.43011 206.91335,214.937969 215.346106,216.849186 C215.346106,216.849186 211.253823,216.889102 209.313163,220.664018 C207.422141,224.341045 207.45746,227.137068 207.45746,227.137068 C197.337962,224.224148 191.343202,219.732644 182.399746,212.229381 C179.883474,210.118583 177.522799,207.86903 175.378813,205.502579 C170.74242,200.385725 167.114063,194.729053 165.120901,188.766358 C163.389294,183.589629 155.120725,185.80877 156.867606,191.032068 C158.791084,196.785679 161.925923,202.277934 165.899838,207.358675 C150.496742,209.421003 134.64022,207.152442 119.456677,203.891683 C120.205067,199.982763 120.774951,196.061488 121.089008,192.136412 C121.525251,186.668866 112.963627,186.697377 112.529293,192.136412 C112.266784,195.417129 111.811449,198.7064 111.202427,201.990919 C110.688864,204.768885 110.055023,207.542099 109.34577,210.307709 C106.787497,220.279114 104.597691,226.314988 100.951197,235.736121 C98.431107,233.355415 88.7182597,230.575549 85.8449751,232.583705 L93.2181479,205.549148 C93.830988,202.745522 94.3808258,199.934293 94.8724343,197.117362 C95.4346817,193.893667 95.9396543,190.665221 96.3100312,187.428221 C96.9314625,181.988236 88.367929,182.031954 87.7512706,187.428221 C87.5002161,189.6179 87.1947507,191.807579 86.8415562,193.994408 C80.3933711,191.254457 74.1761942,188.006053 68.3494404,184.088579 C50.419572,172.034889 41.0370092,154.788312 37.2330095,134.645923 C42.4812881,137.989366 48.1734462,140.604816 53.7042803,142.401037 C71.5549187,148.199316 93.6104801,140.567751 107.161692,128.434228 C111.266384,124.760053 105.197167,118.749839 101.109657,122.409759 C90.5510525,131.862255 72.7710531,138.407534 58.6575938,134.964301 C43.8921567,131.361404 25.8906948,119.356183 24.2784099,103.242461 C49.3972172,110.418793 83.3850235,98.3907627 71.2456349,68.1391635 C71.2017242,68.0298696 68.5976311,63.608694 69.5875301,64.933526 C69.8529033,64.7434497 70.1115943,64.52011 70.3588304,64.2416482 C75.3150077,58.6524535 81.7126001,54.258839 88.7984444,50.8659764 C89.7549331,50.4078925 90.7171494,49.9583619 91.6994118,49.5373428 C97.4946645,47.050194 103.670794,45.2093047 109.878425,43.9310413 C109.12908,45.8755222 108.573515,47.8561176 108.309097,49.8528696 C107.592207,55.2738467 116.15765,55.2206253 116.867857,49.8528696 C117.166641,47.5947627 118.390412,44.9508009 119.940649,42.3239459 C121.886082,39.0232703 124.338397,35.7558581 126.122506,33.3067245 C126.186463,33.2192894 126.255193,33.126152 126.316286,33.0406176 C133.468951,23.1870604 145.679933,8.90187337 151.303361,11.0611405 C158.939998,13.9122856 158.567712,26.4373657 159.51561,36.1322093 C159.801983,39.0679383 159.950898,42.0141215 159.958535,44.9707589 C159.985263,54.0925222 160.613376,55.700568 157.978736,64.9354268 C156.471455,70.2195489 164.685613,72.4624497 166.232032,67.2001864 C168.485794,59.5306062 168.485794,56.6794612 168.465748,47.3438619 C175.935333,49.7274192 183.168183,52.8275642 189.992472,56.6328925 C206.856075,66.034068 220.786255,80.174797 225.968668,99.0997474 C230.732974,116.498385 230.478102,135.03748 225.372055,152.298312 M63.4619929,220.399812 C61.7513863,215.286759 58.3273093,213.582725 51.4801099,215.286759 C57.0959016,206.273339 59.6579932,200.387625 62.4205466,190.308828 C65.8713518,192.714244 69.4682077,194.899171 73.1805677,196.882618 C70.5612013,205.347667 68.1422966,212.856633 63.4619929,220.399812 M63.2548491,71.1167093 C78.7228568,112.194106 -13.8818638,100.066286 12.6525851,61.8628428 C24.1571783,45.2995909 55.337566,56.014194 63.2548491,71.1167093 Z M59.3257995,31.0562207 C60.4884775,28.6850184 62.2267669,24.2914039 64.0175582,21.3395184 C66.4383721,23.3761864 69.6677148,26.9705299 71.343002,28.7448925 C75.7436139,33.4036635 79.8664432,38.5433276 82.6280419,44.3492093 C75.636701,47.9796673 64.279113,58.2580451 64.2619306,58.2780031 C60.8684002,54.9630718 56.7837541,52.2411787 52.3363678,50.1779001 C52.9129339,43.584152 56.4821069,36.8421444 59.3257995,31.0562207 M288.600544,66.5415718 C291.764021,74.0353314 292.24322,82.4243505 285.461886,88.1561024 C283.530772,89.7879077 280.050374,91.2733543 276.362833,92.046965 C276.285513,87.8899955 274.951965,83.8109573 272.064362,80.5635031 C268.120993,76.1271215 260.127344,73.103007 254.771198,76.9235413 C249.520055,80.6689955 251.261209,88.0420566 254.55069,92.4651329 C257.282697,96.1402589 261.258521,98.6055489 265.606631,99.9408352 C264.499318,101.661026 263.094177,103.206347 261.603124,104.504568 C254.628011,110.576557 244.523786,110.951007 236.336357,107.177992 C232.469355,86.5528085 221.631058,67.6886825 203.111259,54.7596902 C192.602293,47.4227436 180.682457,41.9513963 168.228057,38.3399459 C167.286842,24.9281596 167.225749,15.6229726 159.894578,3.45808711 C157.030839,-1.29382128 148.439623,-0.343439603 145.575884,1.55732376 C132.827473,10.0195222 127.900888,16.33861 118.925931,28.7401405 C117.637248,30.5202054 116.2827,32.4162169 114.980653,34.3958619 C106.627127,35.5952436 98.2115537,37.6984383 90.3477271,40.8318467 C86.5800014,32.9503314 80.902162,26.04961 74.6639844,19.9367551 C71.5931019,16.928797 65.3491968,9.24591154 60.3968378,12.4563009 C56.2386892,15.1515833 53.5630026,23.3866405 51.541203,27.5550146 C48.555278,33.7115871 45.3097074,40.3614077 44.1327108,47.2307665 C24.8568851,42.150026 2.87578091,48.6135718 0.223958809,71.4246329 C-1.35014293,84.9723238 5.54001255,94.3906062 15.6537833,99.7925757 C15.254769,110.729568 20.1737177,119.813316 27.4953431,126.990599 C30.1233007,149.316015 37.6663886,169.549641 55.0063269,184.551415 C52.4661906,197.239011 44.2463058,209.526496 37.461154,220.385557 C35.5663136,223.419175 38.1369964,226.409076 41.1563316,226.796831 C48.7815134,227.773824 56.4038314,228.773625 64.0251949,229.772476 C65.5095661,229.967305 66.9786641,228.81069 67.7203725,227.662629 C73.1252021,219.303072 77.861826,210.203167 80.9661189,200.701251 C82.3731692,201.331354 83.7878561,201.94435 85.2168618,202.527885 C82.616587,214.753595 78.8498159,226.860507 75.1555929,238.638587 C74.5017059,240.725625 75.9297569,243.435163 78.1443816,243.879942 C85.7724271,245.412908 93.392836,246.978186 101.014199,248.543465 C103.457923,249.046217 105.393811,247.838282 106.278706,245.56782 C110.444491,234.865572 114.662778,223.671026 117.579019,212.285454 C135.616755,216.328377 154.599525,218.482892 172.674489,214.86669 C184.015849,225.884465 199.110616,234.095763 213.071343,237.386934 C215.024413,237.846919 216.811386,237.05335 217.904379,235.429148 C222.088302,229.211751 226.272224,222.994354 230.457101,216.776957 C232.358624,213.952423 229.802259,210.500637 226.761923,210.365683 C218.026566,209.978877 210.418566,206.171648 205.026146,199.536083 C217.909152,188.923171 227.255441,174.159942 232.654543,157.679373 C237.05611,144.244778 238.754307,130.163923 237.599265,116.557308 C251.881685,120.476683 268.387321,115.757087 274.590179,101.049931 C274.913782,101.032824 275.242157,101.047079 275.562896,101.017618 C294.461662,99.3088314 303.927274,81.0377436 296.853839,64.2758619 C294.751855,59.2958619 286.467058,61.4845909 288.600544,66.5415718 Z" id="Fill-94"></path>
        </g>
    </g>
</svg>