<?xml version="1.0" encoding="UTF-8"?>
<svg width="100px" height="83px" viewBox="0 0 100 83" version="1.1" xmlns="http://www.w3.org/2000/svg" xmlns:xlink="http://www.w3.org/1999/xlink">
    <!-- Generator: Sketch 47.1 (45422) - http://www.bohemiancoding.com/sketch -->
    <title>Untitled</title>
    <desc>Created with Sketch.</desc>
    <defs></defs>
    <g id="Page-1" stroke="none" stroke-width="1" fill="none" fill-rule="evenodd">
        <g id="Group" fill="#FFFFFF">
            <path d="M69.8678487,32.1057083 C69.6237945,31.1315671 68.4477525,31.0216396 67.7203628,31.4078114 C62.9025996,33.9662388 58.7123134,35.5384869 53.2737553,36.154651 C51.454963,36.3605671 51.6748345,39.1936549 53.5066727,38.9861549 C58.7285413,38.3950175 62.9531924,36.9482198 67.4699448,34.7091205 C67.6194956,36.3697541 67.2663011,37.9983915 65.6890175,38.9820365 C65.1827721,39.2975633 64.5871144,39.5120327 64.0013208,39.6197427 C63.0146036,39.8015823 60.4483755,39.8921854 60.8006154,41.3427846 C61.1773561,42.8950747 61.3822726,44.7986892 61.0917622,46.409903 C60.7754781,48.1630404 60.0554069,49.0915633 58.3110718,48.3170022 C57.5744546,47.9900709 56.8655201,47.5658839 56.1896778,47.1290251 C55.2121883,46.4979717 54.1064669,47.5566968 54.1386044,48.5203839 C54.251563,51.8761816 51.0804496,55.255422 47.8138783,53.1829564 C45.7545319,51.8764984 43.1151193,48.8267236 43.4177211,46.2220442 C43.6274104,44.4166358 40.8260375,43.873651 40.614439,45.6929984 C40.1145575,49.9985442 44.0852904,55.2202579 48.1482993,56.5102427 C52.2657193,57.8173343 55.7031604,54.4304907 56.6959232,50.6809182 C58.9926416,51.7900136 61.4557752,52.0982541 63.0508777,49.4004373 C64.2161012,47.4293457 64.2581027,44.8883419 63.9141358,42.5513533 C65.0882687,42.3761663 66.2837206,41.9025594 66.9312437,41.5382465 C70.4676429,39.5478304 70.7648353,35.6873801 69.8678487,32.1057083" id="Fill-92" transform="translate(55.434609, 43.998299) rotate(-17.000000) translate(-55.434609, -43.998299) "></path>
        </g>
    </g>
</svg>