<?xml version="1.0" encoding="UTF-8"?>
<svg width="301px" height="249px" viewBox="0 0 301 249" version="1.1" xmlns="http://www.w3.org/2000/svg" xmlns:xlink="http://www.w3.org/1999/xlink">
    <!-- Generator: Sketch 47.1 (45422) - http://www.bohemiancoding.com/sketch -->
    <title>Untitled</title>
    <desc>Created with Sketch.</desc>
    <defs></defs>
    <g id="Page-1" stroke="none" stroke-width="1" fill="none" fill-rule="evenodd">
        <g id="Group" fill="#FF1B77">
            <path d="M209.603546,96.3171249 C208.871384,93.3947012 205.343257,93.0649188 203.161089,94.2234341 C188.707799,101.898717 176.13694,106.615461 159.821266,108.463953 C154.364889,109.081701 155.024504,117.580965 160.520018,116.958465 C176.185624,115.185052 188.859577,110.844659 202.409834,104.127362 C202.858487,109.109262 201.798903,113.995175 197.067052,116.94611 C195.548316,117.89269 193.761343,118.536098 192.003962,118.859228 C189.043811,119.404747 181.345127,119.676556 182.401846,124.028354 C183.532068,128.685224 184.146818,134.396068 183.275286,139.229709 C182.326434,144.489121 180.166221,147.27469 174.933215,144.951007 C172.723364,143.970213 170.59656,142.697652 168.569033,141.387075 C165.636565,139.493915 162.319401,142.670091 162.415813,145.561152 C162.754689,155.628545 153.241349,165.766266 143.441635,159.548869 C137.263596,155.629495 129.345358,146.480171 130.253163,138.666133 C130.882231,133.249907 122.478112,131.620953 121.843317,137.078995 C120.343672,149.995633 132.255871,165.660774 144.444898,169.530728 C156.797158,173.452003 167.109481,163.291472 170.087769,152.042755 C176.977925,155.370041 184.367326,156.294762 189.152633,148.201312 C192.648303,142.288037 192.774308,134.665026 191.742407,127.65406 C195.264806,127.128499 198.851162,125.707678 200.793731,124.614739 C211.402929,118.643491 212.294506,107.06214 209.603546,96.3171249" id="Fill-92" transform="translate(166.303827, 131.994897) rotate(-17.000000) translate(-166.303827, -131.994897) "></path>
        </g>
    </g>
</svg>