<svg width="177" height="33" viewBox="0 0 177 33" xmlns="http://www.w3.org/2000/svg"><title>Untitled</title><g fill-rule="evenodd"><path d="M56.43 8.803c-.683-.218-1.243-.31-1.647-.31-1.399 0-2.083.745-2.083 2.207v2.61l1.99-.714c.28-.094.528-.125.746-.125.994 0 1.74.747 1.74 1.741 0 .809-.435 1.368-1.336 1.68L52.7 17.01v9.637c0 1.213-.808 1.897-1.771 1.897-.467 0-.87-.155-1.181-.466-.373-.343-.56-.84-.56-1.43V10.605c0-2.145.684-3.73 2.051-4.694.933-.653 2.083-.995 3.482-.995 1.181 0 2.3.249 3.326.715.87.404 1.305 1.057 1.305 1.99 0 .994-.466 1.492-1.43 1.492-.31 0-.808-.093-1.492-.311m15.199 17.255c-2.27 1.275-4.88 2.114-7.833 2.487-1.243.155-2.145-.622-2.145-1.897V6.813c0-.59.187-1.057.56-1.398.31-.311.715-.467 1.18-.467.965 0 1.772.715 1.772 1.865v17.97c1.68-.28 3.295-.902 4.85-1.804.341-.186.652-.28.994-.28.901 0 1.586.84 1.586 1.741 0 .684-.311 1.213-.964 1.617m15.074-3.948c0 1.99-.59 3.575-1.74 4.756-1.088 1.15-2.456 1.71-4.103 1.679-1.927-.03-3.824-.56-5.72-1.617-.621-.373-.932-.901-.932-1.585 0-.902.684-1.71 1.585-1.71.31 0 .622.093.964.28 1.088.622 2.207.933 3.388.933 2.051 0 3.077-.964 3.077-2.86v-5.348c-.964.28-1.99.435-3.077.435-1.896-.03-3.45-.56-4.694-1.585-1.243-1.026-1.865-2.425-1.865-4.166 0-.217 0-.466.031-.684l.373-4.01c.125-1.088.87-1.71 1.74-1.71 1.213 0 1.804 1.15 1.68 2.394l-.311 3.202c-.094.964.186 1.71.839 2.27.56.497 1.336.776 2.3.808.995.03 1.99-.125 2.984-.498v-6.31c0-1.15.777-1.866 1.74-1.866.902 0 1.741.715 1.741 1.865V22.11zm6.153 4.508c0 1.212-.808 1.927-1.771 1.927-.467 0-.87-.156-1.181-.466-.373-.373-.56-.87-.56-1.461V6.813c0-.59.187-1.088.56-1.43.31-.31.714-.466 1.18-.466.964 0 1.772.684 1.772 1.896v19.804zm16.35 0c0 1.212-.808 1.927-1.772 1.927-.902 0-1.74-.715-1.74-1.927v-6.995c0-.778-.684-2.114-2.083-4.042l-3.202-4.352c-1.337 4.259-2.02 8.394-2.02 12.373 0 .84.03 1.648.093 2.425.124 1.492-.28 2.332-1.212 2.487-.466.093-.933 0-1.337-.342-.466-.342-.746-.87-.839-1.586a27.882 27.882 0 0 1-.218-3.637c0-4.943 1.088-10.446 3.295-16.57.342-.932.901-1.43 1.741-1.461.622-.031 1.18.31 1.71 1.088l2.921 4.788c.653 1.025.995 1.523 1.026 1.523.093 0 .124-.498.124-1.523v-3.98c0-1.15.84-1.865 1.741-1.865.964 0 1.772.715 1.772 1.865v19.804zm15.789-1.99c0 2.736-1.897 4.228-4.756 4.228-2.27 0-4.259-1.213-5.968-3.606-1.71-2.425-2.549-5.254-2.549-8.518 0-3.265.84-6.094 2.549-8.487 1.71-2.426 3.699-3.638 5.968-3.638a5.81 5.81 0 0 1 2.984.808c.963.591 1.46 1.244 1.46 1.959 0 .84-.808 1.368-1.709 1.368-.373 0-.84-.124-1.43-.342-.59-.249-1.025-.373-1.367-.373-1.523-.063-2.798 1.119-3.824 3.575-.777 1.927-1.181 3.637-1.15 5.13.063 2.269.59 4.29 1.586 6.062 1.025 1.772 2.176 2.642 3.45 2.642.84 0 1.274-.31 1.274-.964v-7.119c0-1.212.84-1.896 1.74-1.896.965 0 1.742.684 1.742 1.896v7.275zm11.219-15.389c-.59-.466-1.337-.684-2.238-.715-.777 0-1.399.155-1.927.498-.59.373-.87.87-.87 1.492v4.974a7.333 7.333 0 0 0 2.704-.31c1.958-.623 3.17-2.177 3.264-3.763.062-.901-.25-1.647-.933-2.176m1.803 7.493c-1.772 1.523-4.04 2.207-6.838 2.082v7.835c0 1.212-.777 1.896-1.741 1.896-.964 0-1.74-.684-1.74-1.896v-16.26c0-3.7 2.05-5.533 6.123-5.471 1.834.031 3.419.653 4.755 1.803 1.461 1.275 2.145 2.891 2.052 4.788-.093 2.083-.963 3.824-2.611 5.223m7.956 9.886c0 1.212-.808 1.927-1.772 1.927-.466 0-.87-.156-1.18-.466-.374-.373-.56-.87-.56-1.461V6.813c0-.59.186-1.088.56-1.43.31-.31.714-.466 1.18-.466.964 0 1.772.684 1.772 1.896v19.804zm15.914-1.99c0 2.736-1.896 4.228-4.755 4.228-2.27 0-4.259-1.213-5.968-3.606-1.71-2.425-2.55-5.254-2.55-8.518 0-3.265.84-6.094 2.55-8.487 1.71-2.426 3.698-3.638 5.968-3.638a5.81 5.81 0 0 1 2.984.808c.963.591 1.46 1.244 1.46 1.959 0 .84-.808 1.368-1.71 1.368-.372 0-.838-.124-1.429-.342-.59-.249-1.026-.373-1.367-.373-1.523-.063-2.798 1.119-3.824 3.575-.777 1.927-1.181 3.637-1.15 5.13.062 2.269.59 4.29 1.585 6.062 1.026 1.772 2.176 2.642 3.45 2.642.84 0 1.275-.31 1.275-.964v-7.119c0-1.212.84-1.896 1.74-1.896.964 0 1.741.684 1.741 1.896v7.275zm11.81 2.611c-1.118 1.088-2.517 1.617-4.227 1.617-2.082 0-4.01-.808-5.781-2.425-.59-.529-.87-1.12-.87-1.74 0-.84.621-1.524 1.46-1.524.466 0 .902.186 1.368.56 1.274 1.025 2.518 1.554 3.73 1.523 1.71 0 2.797-1.12 2.766-2.83-.03-1.523-.683-3.108-1.896-4.787l-3.42-4.104c-1.211-1.585-1.802-3.015-1.802-4.352 0-1.275.467-2.363 1.43-3.233.964-.87 2.052-1.306 3.295-1.337 1.834-.03 3.233.498 4.196 1.523.56.591.84 1.182.84 1.803 0 .87-.622 1.555-1.493 1.555-.497 0-.932-.218-1.274-.653a2.36 2.36 0 0 0-1.803-.933c-.839-.03-1.678.405-1.678 1.182 0 .404.373 1.088 1.15 2.02 2.207 2.705 3.575 4.415 4.04 5.192 1.43 2.238 2.083 4.29 1.99 6.187-.124 2.02-.808 3.606-2.02 4.756M3.622 10.224c-.445 0-.678-.347-.678-.69 0-.178.06-.345.168-.47a.652.652 0 0 1 .51-.22c.209 0 .385.075.51.22a.715.715 0 0 1 .169.47c0 .343-.234.69-.679.69m1.808.81a.644.644 0 0 1-.18-.026c-.427-.124-.534-.585-.418-.976.116-.39.456-.722.884-.598.427.123.534.584.419.975-.1.334-.363.625-.704.625m8.779 1.709c-.874 0-1.67-.604-1.976-1.526-.14-.42.123-.719.427-.817.336-.11.772.006.915.438.123.37.499.536.778.478.238-.049.359-.247.33-.544-.04-.423.268-.646.57-.674.375-.035.782.2.825.65.093.975-.675 1.884-1.677 1.985-.064.007-.128.01-.192.01m13.737.022c-.097-.387-.568-.431-.859-.278-1.927 1.018-3.603 1.643-5.778 1.888-.728.082-.64 1.208.093 1.126 2.088-.236 3.778-.81 5.585-1.701.06.66-.081 1.308-.712 1.699-.203.125-.441.21-.675.253-.395.073-1.422.109-1.28.685.15.618.232 1.375.116 2.015-.127.697-.415 1.066-1.113.758a6.295 6.295 0 0 1-.848-.472c-.391-.25-.833.17-.82.553.045 1.334-1.224 2.678-2.53 1.854-.824-.52-1.88-1.732-1.759-2.768.084-.717-1.037-.933-1.121-.21-.2 1.712 1.388 3.788 3.013 4.3 1.647.52 3.022-.826 3.42-2.317.918.441 1.903.564 2.541-.509.466-.784.483-1.794.346-2.723a3.89 3.89 0 0 0 1.206-.403c1.415-.791 1.534-2.326 1.175-3.75"/><path d="M34.683 11.416c-.039-.482.46-.605.891 0 .255.378.14.585.144.805-.415-.096-1-.334-1.035-.805m-4.633 8.768c-.052.173-.108.344-.166.515l-.054.151c-.044.125-.09.248-.138.371a12.436 12.436 0 0 1-.25.598c-.01.018-.017.037-.025.056-.075.163-.154.324-.236.484l-.071.135c-.062.117-.126.232-.192.347l-.085.147a10.81 10.81 0 0 1-.233.375l-.053.083c-.098.148-.2.293-.305.436l-.086.112a9.783 9.783 0 0 1-.633.755l-.083.09a9.319 9.319 0 0 1-.376.372c-.03.03-.063.056-.094.085a8.758 8.758 0 0 1-.764.62c-.021.014-.04.03-.061.046l-.085.078c-.13.148-.142.39.09.716.088.123.178.242.271.357.742.908 1.167 1.373 2.292 1.626 0 0-.546.005-.805.506-.252.487-.247.858-.247.858-1.35-.387-2.149-.982-3.341-1.976a9.49 9.49 0 0 1-.936-.892c-.618-.678-1.102-1.428-1.368-2.218-.23-.686-1.333-.392-1.1.3.256.763.674 1.49 1.204 2.164-2.054.274-4.168-.027-6.192-.46.1-.517.175-1.037.217-1.557.058-.725-1.083-.721-1.141 0-.035.435-.096.87-.177 1.306-.068.368-.153.736-.248 1.102-.34 1.322-.633 2.122-1.119 3.37-.336-.315-1.63-.684-2.014-.418l.983-3.583a26.699 26.699 0 0 0 .412-2.401c.083-.721-1.059-.715-1.14 0-.034.29-.075.58-.122.87a14.753 14.753 0 0 1-2.466-1.313c-2.39-1.597-3.641-3.883-4.149-6.552.7.443 1.46.79 2.197 1.027 2.38.769 5.32-.243 7.127-1.85.548-.488-.262-1.284-.807-.799-1.408 1.253-3.778 2.12-5.66 1.664-1.969-.478-4.369-2.069-4.584-4.204 3.35.95 7.881-.643 6.262-4.653-.005-.014-.353-.6-.22-.424a.613.613 0 0 0 .102-.092c.661-.74 1.514-1.323 2.459-1.773.127-.06.256-.12.387-.176.772-.33 1.596-.573 2.423-.743-.1.258-.174.52-.209.785-.095.718 1.047.711 1.141 0 .04-.3.203-.65.41-.998.26-.437.586-.87.824-1.195l.026-.035c.954-1.306 2.582-3.2 3.332-2.913 1.018.378.968 2.038 1.095 3.323.038.389.058.78.059 1.171.003 1.209.087 1.422-.264 2.646-.201.7.894.997 1.1.3.3-1.016.3-1.394.298-2.632.996.316 1.96.727 2.87 1.232 2.249 1.246 4.106 3.12 4.797 5.628a12.838 12.838 0 0 1-.08 7.05M8.463 29.21c-.228-.678-.685-.904-1.598-.678.749-1.195 1.09-1.975 1.459-3.31.46.318.94.608 1.434.87-.349 1.123-.671 2.118-1.295 3.118M8.434 9.425C10.496 14.87-1.851 13.262 1.687 8.2c1.534-2.195 5.691-.775 6.747 1.226zm-.524-5.31c.155-.313.387-.896.626-1.287.322.27.753.746.976.982.587.617 1.137 1.298 1.505 2.068-.932.48-2.446 1.843-2.449 1.846-.452-.44-.997-.8-1.59-1.074.077-.874.553-1.767.932-2.534m30.57 4.703c.422.993.486 2.105-.418 2.864-.258.217-.722.413-1.214.516-.01-.55-.188-1.092-.573-1.522-.526-.588-1.591-.989-2.306-.482-.7.496-.468 1.473-.029 2.06.364.486.894.813 1.474.99a2.892 2.892 0 0 1-.534.605c-.93.805-2.277.854-3.368.354-.516-2.733-1.961-5.233-4.43-6.947-1.402-.972-2.991-1.697-4.652-2.176-.125-1.777-.133-3.01-1.11-4.623-.383-.63-1.528-.504-1.91-.252-1.7 1.122-2.357 1.96-3.553 3.603-.172.236-.353.487-.526.75a14.561 14.561 0 0 0-3.285.852c-.502-1.044-1.259-1.959-2.09-2.769-.41-.398-1.243-1.417-1.903-.991-.555.357-.911 1.448-1.18 2-.399.817-.832 1.698-.989 2.608-2.57-.673-5.5.184-5.854 3.207-.21 1.795.709 3.044 2.057 3.76-.053 1.449.603 2.653 1.579 3.604.35 2.959 1.356 5.64 3.668 7.629-.339 1.681-1.434 3.31-2.34 4.749-.252.402.09.798.494.85 1.016.129 2.033.261 3.049.394.198.026.393-.128.492-.28.721-1.108 1.353-2.314 1.766-3.573.188.083.377.165.567.242-.346 1.62-.849 3.225-1.341 4.786-.087.276.103.635.398.694 1.017.204 2.033.411 3.05.618.325.067.584-.093.701-.394.556-1.418 1.118-2.902 1.507-4.41 2.405.535 4.936.82 7.346.341 1.512 1.46 3.525 2.549 5.387 2.985a.594.594 0 0 0 .644-.26l1.674-2.472c.253-.374-.088-.831-.493-.85-1.165-.05-2.18-.555-2.898-1.434 1.718-1.407 2.964-3.364 3.684-5.548.586-1.78.813-3.646.659-5.45 1.904.52 4.105-.106 4.932-2.055.043-.002.087 0 .13-.004 2.52-.227 3.782-2.648 2.839-4.87-.28-.66-1.385-.37-1.1.3z"/></g></svg>