<svg width="201" height="180" viewBox="0 0 201 180" xmlns="http://www.w3.org/2000/svg"><title>ilustracion</title><g fill="none" fill-rule="evenodd"><path d="M76.194 111.84l-.556-74.987 3.521-9.332 5.32-8.414 5.995-6.551 8.525-6.181 7.357-3.086 7.858-1.177 9.767-.435 10.38 1.112 9.59 3.28 5.93 3.272 6.552 4.4 4.327 5.884 5.068 6.857 3.522 9.396 1.159 8.84.13 10.194.12 57.472-33.36.741-1.113-8.793 5.94-2.845 5.754-3.771 6.922-9.026 3.215-12.11.371-23.78.186-4.15-17.19-.25-5.55-18.544-5.19 18.543-43.433-.556-.677 21.879 1.361 10.814 2.716 8.09 3.095 4.763 3.771 2.974 5.134 3.52 5.624 2.846 2.66 1.733.491 8.21-35.292-.831zm35.671 7.078v48.333h24.362v-51.04l-2.798 3.78-2.974 3.216-4.021 1.547-6.302.806-3.53-2.289-3.056-3.306-1.68-1.047z" fill="#57C2F8"/><path d="M182.645 18.514a1.634 1.634 0 0 0-2.306.19l-4.034 4.763a1.64 1.64 0 0 0 1.246 2.699 1.63 1.63 0 0 0 1.248-.578l4.034-4.764c.585-.69.5-1.724-.188-2.31zm6.537 10.898a1.634 1.634 0 0 0-2.082-1.01l-6.627 2.31a1.639 1.639 0 0 0 1.074 3.096l6.627-2.31a1.639 1.639 0 0 0 1.008-2.086zm.663 9.534l-6.195-1.3a1.64 1.64 0 0 0-.67 3.208l6.195 1.3a1.637 1.637 0 0 0 1.936-1.268 1.639 1.639 0 0 0-1.266-1.94zm-65.588 51.546c-4.26 0-7.502-2.461-8.259-6.048h16.519c-.757 3.587-3.998 6.048-8.26 6.048m10.064-9.325h-20.127c-.903 0-1.635.733-1.635 1.639 0 6.25 5.03 10.964 11.698 10.964 6.67 0 11.7-4.714 11.7-10.964 0-.906-.733-1.64-1.636-1.64zm-19.122-14.243c0-4.795-3.894-8.696-8.68-8.696-4.787 0-8.68 3.901-8.68 8.696 0 .905.732 1.639 1.635 1.639.904 0 1.636-.734 1.636-1.639 0-2.988 2.426-5.419 5.408-5.419 2.983 0 5.41 2.431 5.41 5.42a1.636 1.636 0 1 0 3.271-.001zm26.797-8.696c-4.786 0-8.68 3.901-8.68 8.696 0 .905.733 1.639 1.636 1.639.903 0 1.636-.734 1.636-1.64 0-2.987 2.426-5.418 5.408-5.418 2.983 0 5.41 2.431 5.41 5.419 0 .905.731 1.639 1.635 1.639.903 0 1.635-.734 1.635-1.64 0-4.794-3.894-8.695-8.68-8.695z" fill="#FEFEFE"/><path d="M182.002 165.949h-13.976v-19.665c0-.905-.732-1.639-1.635-1.639-.904 0-1.636.734-1.636 1.64v19.664h-27.301v-49.624h-.001c.089-.362.164-.728.224-1.1h37.782c3.608 0 6.543 2.94 6.543 6.555v44.169zm-47.409-53.015c0 6.023-4.89 10.923-10.902 10.923-6.011 0-10.902-4.9-10.902-10.923v-6.608c2.611.536 5.344.826 8.18.826h3.308c3.62 0 7.075-.465 10.316-1.325v7.107zm-.41 53.015H113.2v-43.477a14.128 14.128 0 0 0 10.491 4.662c4.155 0 7.897-1.8 10.492-4.662v43.477zm-24.254-49.624v49.624h-16.42v-45.66H65.56c.675-2.897 3.27-5.064 6.364-5.064h37.782c.06.372.135.738.224 1.1zm14.348-12.45h-3.309c-18.346 0-32.18-12.866-32.18-29.926V50.388h41.444c.749 0 1.402-.509 1.586-1.236l3.703-14.63 3.703 14.63a1.637 1.637 0 0 0 1.586 1.236h15.649v23.561c0 17.06-13.835 29.925-32.182 29.925zm-47.52-56.856c0-24.114 19.58-43.731 43.648-43.731h4.43c24.068 0 43.649 19.617 43.649 43.731v64.929h-30.62V104.9h-.291c13.236-4.728 22.157-16.473 22.157-30.951v-25.15l-.003-.025c0-.008.003-.016.003-.025 0-.904-.732-1.639-1.636-1.639h-16.012l-4.975-19.656a1.636 1.636 0 0 0-3.172 0L128.96 47.11H87.15c-.905 0-1.636.735-1.636 1.64 0 .012.003.024.004.037l-.002.012v25.15c0 15.14 9.756 27.294 24.002 31.556v6.443H76.757V47.019zM59.462 148.203c-.135 1.733-1.438 3.87-5.245 6.55-3.808-2.68-5.111-4.817-5.246-6.55v-.602c.145-1.81 1.333-2.755 2.361-2.855.17-.017.327-.025.476-.025 1.187 0 1.756.515 2.409 1.295.652-.78 1.221-1.295 2.409-1.295.148 0 .306.008.475.025 1.028.1 2.216 1.045 2.36 2.855v.602zm125.81 17.746V121.78c0-5.422-4.402-9.832-9.813-9.832h-3.704V47.019c0-25.92-21.048-47.009-46.92-47.009h-4.43c-25.871 0-46.92 21.088-46.92 47.01v64.928h-1.562c-4.904 0-8.968 3.626-9.688 8.341h-47.31v45.66H.454v3.277h14.47v9.959h78.584v-9.959h107.366v-3.277h-15.602z" fill="#FEFEFE"/></g></svg>