<svg width="182" height="127" viewBox="0 0 182 127" xmlns="http://www.w3.org/2000/svg"><title>robot</title><g fill="none" fill-rule="evenodd"><path d="M179.933 99.122c0 11.227-39.909 20.329-89.138 20.329-49.23 0-89.138-9.102-89.138-20.33 0-11.227 39.909-20.328 89.138-20.328 49.229 0 89.138 9.101 89.138 20.329" fill="#0B83B2"/><path d="M179.933 99.122c0 11.227-39.909 20.329-89.138 20.329-49.23 0-89.138-9.102-89.138-20.33 0-11.227 39.909-20.328 89.138-20.328 49.229 0 89.138 9.101 89.138 20.329z" stroke="#FFF" stroke-width="3"/><path d="M179.933 99.122c0 11.227-39.909 20.329-89.138 20.329-49.23 0-89.138-9.102-89.138-20.33 0-11.227 39.909-20.328 89.138-20.328 49.229 0 89.138 9.101 89.138 20.329" fill="#0091DA"/><path d="M179.933 99.122c0 11.227-39.909 20.329-89.138 20.329-49.23 0-89.138-9.102-89.138-20.33 0-11.227 39.909-20.328 89.138-20.328 49.229 0 89.138 9.101 89.138 20.329z" stroke="#FFF" stroke-width="3"/><path d="M44.506 117.448V47.292c0-25.1 20.496-45.635 45.547-45.635 25.05 0 45.547 20.536 45.547 45.635v70.156s-7.322 2.305-45.571 2.305c-36.279 0-45.523-2.305-45.523-2.305" fill="#0091DA"/><path d="M44.506 117.448V47.292c0-25.1 20.496-45.635 45.547-45.635 25.05 0 45.547 20.536 45.547 45.635v70.156s-7.322 2.305-45.571 2.305c-36.279 0-45.523-2.305-45.523-2.305z" stroke="#FFF" stroke-width="3"/><path d="M51.558 112.678c0 6.994-5.66 12.664-12.64 12.664-6.982 0-12.64-5.67-12.64-12.664 0-6.995 5.658-12.665 12.64-12.665 6.98 0 12.64 5.67 12.64 12.665" fill="#0091DA"/><path d="M51.558 112.678c0 6.994-5.66 12.664-12.64 12.664-6.982 0-12.64-5.67-12.64-12.664 0-6.995 5.658-12.665 12.64-12.665 6.98 0 12.64 5.67 12.64 12.665z" stroke="#FFF" stroke-width="3"/><path d="M154.656 112.678c0 6.994-5.658 12.664-12.64 12.664-6.981 0-12.64-5.67-12.64-12.664 0-6.995 5.659-12.665 12.64-12.665 6.982 0 12.64 5.67 12.64 12.665" fill="#0091DA"/><path d="M154.656 112.678c0 6.994-5.658 12.664-12.64 12.664-6.981 0-12.64-5.67-12.64-12.664 0-6.995 5.659-12.665 12.64-12.665 6.982 0 12.64 5.67 12.64 12.665z" stroke="#FFF" stroke-width="3"/><path fill="#0091DA" d="M37.772 60.75l7.61-7.507h90.077l7.492 7.507z"/><path stroke="#FFF" stroke-width="3" d="M37.772 60.75l7.61-7.507h90.077l7.492 7.507z"/><path d="M102.392 26.733c0 6.698-5.42 12.13-12.107 12.13-6.686 0-12.106-5.432-12.106-12.13 0-6.699 5.42-12.13 12.106-12.13 6.687 0 12.107 5.431 12.107 12.13" fill="#0091DA"/><path d="M102.392 26.733c0 6.698-5.42 12.13-12.107 12.13-6.686 0-12.106-5.432-12.106-12.13 0-6.699 5.42-12.13 12.106-12.13 6.687 0 12.107 5.431 12.107 12.13z" stroke="#FFF" stroke-width="3"/><path d="M95.676 24.27c-.8 0-1.448-.65-1.448-1.452a1.45 1.45 0 0 1 1.448-1.451 1.45 1.45 0 1 1 0 2.903M69.513 76.161a4.436 4.436 0 0 1-4.432 4.441 4.436 4.436 0 0 1-4.433-4.44 4.436 4.436 0 0 1 4.433-4.441 4.436 4.436 0 0 1 4.432 4.44m49.934 0a4.436 4.436 0 0 1-4.432 4.441 4.436 4.436 0 0 1-4.432-4.44 4.436 4.436 0 0 1 4.432-4.441 4.436 4.436 0 0 1 4.432 4.44" fill="#FFF"/><path d="M95.96 88.166H84.145" stroke="#FFF" stroke-width="3"/></g></svg>