<svg width="180" height="193" viewBox="0 0 180 193" xmlns="http://www.w3.org/2000/svg"><title>Page 1</title><g fill="none" fill-rule="evenodd"><path d="M174.502 74.245h.817L90.16 28.779 4.901 74.245h.282C2.207 74.922 0 77.369 0 80.293V175.8c0 3.447 3.064 6.241 6.844 6.241h165.997c3.78 0 6.844-2.794 6.844-6.24v-95.51c0-2.923-2.207-5.37-5.183-6.047" fill="#1889C4"/><path fill="#0BADFF" d="M21.78 133.266h136.025V0H21.78z"/><path d="M21.78 133.266h136.025V0H21.78v133.266zm4.106-4.106h127.812V4.106H25.886V129.16z" fill="#FFF"/><path d="M172.841 192.48H6.844A6.844 6.844 0 0 1 0 185.638V80.896a6.844 6.844 0 0 1 6.844-6.844l82.948 45.466 83.05-45.466a6.844 6.844 0 0 1 6.843 6.844v104.74a6.844 6.844 0 0 1-6.844 6.845" fill="#FFF"/><path d="M172.841 74.052l-83.049 45.466L6.844 74.052A6.844 6.844 0 0 0 0 80.896v104.74a6.844 6.844 0 0 0 6.844 6.845h165.997a6.844 6.844 0 0 0 6.844-6.844V80.896a6.844 6.844 0 0 0-6.844-6.844m.82 4.232a2.742 2.742 0 0 1 1.918 2.612v104.74a2.74 2.74 0 0 1-2.738 2.738H6.844a2.74 2.74 0 0 1-2.737-2.737V80.896c0-1.223.806-2.262 1.915-2.612l81.796 44.835 1.973 1.081 1.973-1.08 81.898-44.836" fill="#0BADFF"/><path d="M129.881 56.231H49.704a2.053 2.053 0 1 1 0-4.106h80.177a2.053 2.053 0 1 1 0 4.106m0 27.112H49.704a2.053 2.053 0 1 1 0-4.107h80.177a2.053 2.053 0 1 1 0 4.107m0-54.621H49.704a2.053 2.053 0 1 1 0-4.106h80.177a2.053 2.053 0 1 1 0 4.106" fill="#FFF"/><path d="M100.058 167.236H79.526a2.053 2.053 0 1 1 0-4.107h20.532a2.053 2.053 0 1 1 0 4.107m5.212-30.48a6.797 6.797 0 0 0 6.79 6.79 6.797 6.797 0 0 0 6.79-6.79 2.054 2.054 0 0 1 4.106 0c0 6.008-4.888 10.896-10.896 10.896-6.008 0-10.896-4.888-10.896-10.896a2.053 2.053 0 1 1 4.107 0zm-46.589-2.053c1.134 0 2.054.92 2.054 2.053a6.797 6.797 0 0 0 6.789 6.79 6.797 6.797 0 0 0 6.79-6.79 2.054 2.054 0 0 1 4.106 0c0 6.008-4.888 10.896-10.896 10.896-6.008 0-10.896-4.888-10.896-10.896 0-1.134.92-2.053 2.053-2.053" fill="#0BADFF"/></g></svg>