<?xml version="1.0" encoding="UTF-8" standalone="no"?>
<svg width="149px" height="149px" viewBox="0 0 149 149" version="1.1" xmlns="http://www.w3.org/2000/svg" xmlns:xlink="http://www.w3.org/1999/xlink">
    <!-- Generator: Sketch 47.1 (45422) - http://www.bohemiancoding.com/sketch -->
    <title>brainstorm</title>
    <desc>Created with Sketch.</desc>
    <defs></defs>
    <g id="Page-2" stroke="none" stroke-width="1" fill="none" fill-rule="evenodd">
        <g id="01_Home" transform="translate(-737.000000, -1467.000000)" fill="#FFFFFF">
            <path d="M875.6905,1491.405 L875.6905,1474.738 L881.405,1479.0235 L884.262,1475.214 L873.3095,1467 L862.357,1475.2145 L865.214,1479.024 L870.9285,1474.7385 L870.9285,1491.405 C870.9285,1497.9695 865.588,1503.31 859.0235,1503.31 L849.5,1503.31 C841.9665,1503.31 835.593,1508.072 833.5355,1515.215 L830.126,1515.215 L830.038,1519.977 L832.833,1519.977 L832.833,1527.3985 C831.664,1527.232 830.478,1527.12 829.2615,1527.12 C823.7235,1527.12 818.3995,1528.97 814.028,1532.375 C810.902,1529.049 806.523,1527.12 801.8805,1527.12 C800.2495,1527.12 798.6495,1527.3795 797.1185,1527.839 L797.1185,1512.834 C797.1185,1504.9555 790.7115,1498.5485 782.833,1498.5485 L780.452,1498.5485 L780.452,1493.7865 L775.69,1493.7865 L775.69,1498.5485 L768.5475,1498.5485 C760.669,1498.5485 754.262,1504.9555 754.262,1512.834 L754.262,1517.596 C754.262,1520.222 752.1265,1522.358 749.5,1522.358 L744.738,1522.358 L749.0235,1516.6435 L745.214,1513.7865 L737,1524.738 L745.2145,1535.6905 L749.024,1532.8335 L744.7385,1527.119 L749.5,1527.119 C754.7525,1527.119 759.024,1522.8475 759.024,1517.595 L759.024,1512.833 C759.024,1507.5805 763.2955,1503.309 768.548,1503.309 L782.8335,1503.309 C788.086,1503.309 792.3575,1507.5805 792.3575,1512.833 L792.3575,1530.1425 C791.322,1530.8665 790.3575,1531.6975 789.5005,1532.6495 C787.7075,1532.1375 785.8695,1531.8805 784.0245,1531.8805 C773.81,1531.8805 765.3315,1539.433 763.9935,1549.378 C755.4975,1551.8905 749.5,1559.7835 749.5,1568.7855 C749.5,1573 750.826,1577.1165 753.2595,1580.5305 C752.343,1582.871 751.881,1585.321 751.881,1587.833 C751.881,1598.9925 760.9595,1608.071 772.119,1608.071 C773.0215,1608.071 773.9045,1607.99 774.776,1607.876 C774.9405,1607.8545 775.1045,1607.826 775.269,1607.8 C776.15,1607.662 777.0165,1607.4785 777.8595,1607.2285 C781.1335,1609.343 784.8835,1610.4525 788.7855,1610.4525 C793.15,1610.4525 797.307,1609.0785 800.757,1606.5335 C804.5095,1611.9525 810.6355,1615.2145 817.357,1615.2145 C823.6,1615.2145 829.35,1612.4 833.1735,1607.579 C836.3045,1609.467 839.845,1610.453 843.5475,1610.453 C854.707,1610.453 863.7855,1601.3745 863.7855,1590.215 C863.7855,1587.8055 863.3595,1585.453 862.519,1583.2005 C866.369,1579.4055 868.5475,1574.2455 868.5475,1568.786 C868.5475,1567.5715 868.4285,1566.379 868.219,1565.2145 L868.5475,1565.2145 L868.5475,1560.4525 L866.7285,1560.4525 C864.343,1555.2095 859.7855,1551.088 854.0905,1549.393 C853.043,1539.6335 846.474,1531.674 837.5955,1528.555 L837.5955,1519.9765 C837.5955,1513.412 842.936,1508.0715 849.5005,1508.0715 L859.0245,1508.0715 C868.212,1508.0715 875.6905,1500.593 875.6905,1491.405 L875.6905,1491.405 L875.6905,1491.405 Z M849.4595,1551.374 L849.526,1553.2525 L851.369,1553.6215 C855.6525,1554.481 859.2025,1557.112 861.4025,1560.6335 L861.4025,1565.2145 L863.3095,1565.2145 C863.5905,1566.3715 863.7855,1567.5575 863.7855,1568.786 C863.7855,1572.567 862.402,1576.143 859.9545,1578.943 C856.5305,1574.2285 851.1095,1571.3455 844.8925,1570.9335 L844.5805,1575.3885 C852.49,1575.91 858.709,1581.6145 858.995,1590.753 C858.7095,1599.0365 851.9,1605.691 843.5475,1605.691 C840.081,1605.691 836.7925,1604.5555 834.0405,1602.4075 L833.0905,1601.6645 C830.157,1598.993 828.357,1595.2885 828.088,1591.2455 L823.3355,1591.562 C823.671,1596.6025 825.852,1601.2335 829.388,1604.6835 C826.464,1608.3285 822.095,1610.4525 817.357,1610.4525 C811.445,1610.4525 806.133,1607.1475 803.5,1601.8265 L802.0335,1598.867 L799.6885,1601.198 C796.7695,1604.093 792.898,1605.691 788.786,1605.691 C786.9025,1605.691 785.079,1605.315 783.348,1604.6575 C788.7765,1601.024 792.3575,1594.841 792.3575,1587.8335 C792.3575,1587.3265 792.291,1586.8335 792.255,1586.3335 C796.043,1585.6765 799.5835,1583.962 802.4575,1581.3265 L799.2385,1577.8145 C797.0195,1579.848 794.286,1581.162 791.3575,1581.6525 C789.7645,1576.681 786.317,1572.431 781.536,1569.912 L779.317,1574.1265 C784.424,1576.8195 787.5955,1582.0695 787.5955,1587.8335 C787.5955,1594.5145 783.331,1600.2025 777.3885,1602.367 C776.5505,1602.6695 775.7005,1602.898 774.8455,1603.055 C774.7885,1603.0645 774.731,1603.0715 774.674,1603.081 C773.824,1603.226 772.9715,1603.3095 772.119,1603.3095 C763.5855,1603.3095 756.643,1596.3665 756.643,1587.8335 C756.643,1585.543 757.15,1583.317 758.15,1581.2095 L758.8025,1579.838 L757.831,1578.6665 C755.5285,1575.895 754.262,1572.388 754.262,1568.7855 C754.262,1561.438 759.4835,1555.057 766.6765,1553.614 L768.5025,1553.2495 L768.588,1551.3925 C768.831,1546.1875 771.607,1541.6975 775.6905,1539.0805 L775.6905,1543.7855 L780.4525,1543.7855 L780.4525,1537.0735 C781.6,1536.802 782.793,1536.6425 784.024,1536.6425 C785.8645,1536.6425 787.7,1536.983 789.4715,1537.652 L791.174,1538.295 L792.2405,1536.8235 C792.276,1536.7735 792.319,1536.7305 792.357,1536.6805 L792.357,1548.547 L797.119,1548.547 L797.119,1532.909 C798.607,1532.252 800.2215,1531.8805 801.881,1531.8805 C805.176,1531.8805 808.274,1533.2545 810.5025,1535.6065 C806.512,1540.147 803.667,1546.0255 803.667,1552.1185 C803.667,1565.904 816.167,1577.1185 828.072,1577.1185 L828.072,1572.3565 C818.548,1572.3565 808.429,1563.278 808.429,1552.1185 C808.429,1547.1495 810.572,1542.354 813.848,1538.666 L815.2125,1537.5065 C819.0125,1533.878 824.0245,1531.8805 829.1885,1531.8805 C830.41,1531.8805 831.674,1532.002 832.8335,1532.209 L832.8335,1541.404 C832.8335,1547.9685 827.493,1553.309 820.9285,1553.309 L818.5475,1553.309 L818.5475,1558.071 L820.9285,1558.071 C830.1165,1558.071 837.595,1550.5925 837.595,1541.4045 L837.595,1533.6805 C844.3835,1536.7405 849.169,1543.4215 849.4595,1551.374 L849.4595,1551.374 Z M847.119,1560.4525 L854.262,1560.4525 L854.262,1565.2145 L847.119,1565.2145 L847.119,1560.4525 L847.119,1560.4525 Z M859.024,1515.2145 L866.167,1515.2145 L866.167,1519.9765 L859.024,1519.9765 L859.024,1515.2145 L859.024,1515.2145 Z M822.088,1517.712 L824.488,1513.6 C822.769,1512.595 821.312,1511.1665 820.2735,1509.4645 L816.209,1511.943 C817.657,1514.3165 819.688,1516.312 822.088,1517.712 L822.088,1517.712 Z M813.785,1503.3095 C813.7855,1503.557 813.7905,1503.8045 813.802,1504.0525 L818.559,1503.524 L818.547,1496.167 L813.785,1496.167 L813.785,1503.3095 L813.785,1503.3095 Z M813.7855,1481.881 L818.5475,1481.881 L818.5475,1489.024 L813.7855,1489.024 L813.7855,1481.881 L813.7855,1481.881 Z M874.245,1558.9905 L876.538,1563.162 C878.9715,1561.824 881.0545,1559.881 882.564,1557.5455 L878.559,1554.9645 C877.481,1556.6355 875.988,1558.0285 874.245,1558.9905 L874.245,1558.9905 Z M880.4525,1548.5475 C880.4525,1548.8285 880.443,1549.107 880.4215,1549.388 L885.174,1549.719 C885.2,1549.331 885.2145,1548.9405 885.2145,1548.5475 L885.2145,1541.405 L880.4525,1541.405 L880.4525,1548.5475 L880.4525,1548.5475 Z M844.738,1515.2145 L851.881,1515.2145 L851.881,1519.9765 L844.738,1519.9765 L844.738,1515.2145 L844.738,1515.2145 Z M884.638,1527.5475 L880.043,1528.788 C880.3145,1529.795 880.4525,1530.8355 880.4525,1531.881 L880.4525,1534.262 L885.2145,1534.262 L885.2145,1531.881 C885.2145,1530.4165 885.0215,1528.957 884.638,1527.5475 L884.638,1527.5475 Z M880.581,1520.3715 C878.6525,1518.355 876.238,1516.843 873.5955,1515.9975 L872.1455,1520.531 C874.031,1521.136 875.76,1522.219 877.1405,1523.662 L880.581,1520.3715 L880.581,1520.3715 Z M813.7855,1474.738 L818.5475,1474.738 L824.262,1479.024 L827.119,1475.2145 L816.1665,1467 L805.2145,1475.2145 L808.0715,1479.024 L813.7855,1474.738 L813.7855,1474.738 Z M775.6905,1479.5 L780.4525,1479.5 L780.4525,1486.643 L775.6905,1486.643 L775.6905,1479.5 L775.6905,1479.5 Z M775.6905,1522.357 L780.4525,1522.357 L780.4525,1529.5 L775.6905,1529.5 L775.6905,1522.357 L775.6905,1522.357 Z M775.6905,1508.0715 L780.4525,1508.0715 L780.4525,1515.2145 L775.6905,1515.2145 L775.6905,1508.0715 L775.6905,1508.0715 Z M775.6905,1550.9285 L780.4525,1550.9285 L780.4525,1558.0715 L775.6905,1558.0715 L775.6905,1550.9285 L775.6905,1550.9285 Z M778.0715,1472.9525 L786.1665,1479.024 L789.024,1475.2145 L778.0715,1467 L767.119,1475.2145 L769.976,1479.024 L778.0715,1472.9525 L778.0715,1472.9525 Z" id="brainstorm"></path>
        </g>
    </g>
</svg>