<?xml version="1.0" encoding="UTF-8" standalone="no"?>
<svg width="126px" height="149px" viewBox="0 0 126 149" version="1.1" xmlns="http://www.w3.org/2000/svg" xmlns:xlink="http://www.w3.org/1999/xlink">
    <!-- Generator: Sketch 47.1 (45422) - http://www.bohemiancoding.com/sketch -->
    <title>Group 5</title>
    <desc>Created with Sketch.</desc>
    <defs></defs>
    <g id="Page-2" stroke="none" stroke-width="1" fill="none" fill-rule="evenodd">
        <g id="01_Home" transform="translate(-748.000000, -2471.000000)" fill-rule="nonzero">
            <g id="Group-5" transform="translate(598.000000, 2294.000000)">
                <ellipse id="Oval" cx="213" cy="225.984375" rx="7" ry="6.984375"></ellipse>
                <path d="M256.649667,219.588391 L255,217.942406 L251.700667,221.234375 L253.350333,222.880359 C265.115,234.621094 271.333333,248.540953 271.333333,263.140625 C271.333333,272.518312 269.112,281.546781 264.942333,289.655641 C261.883333,286.161125 257.473333,284.09375 252.666667,284.09375 C246.772667,284.09375 241.413,287.29725 238.543,292.228219 C236.032333,290.007187 232.786667,288.75 229.333333,288.75 C225.793667,288.75 222.501333,290.086344 220,292.314359 L220,279.4375 L227,279.4375 L227,270.125 L234,270.125 L234,267.615281 C240.514667,268.432453 246.700333,272.062 246.793667,272.120203 L250.333333,274.243453 L250.333333,270.125 C250.333333,258.761422 244.341333,247.102172 234,243.412094 L234,225.890625 C234,197.317547 215.440667,179.432891 214.649667,178.645984 L213,177 L211.350333,178.645984 C210.559333,179.432891 192,197.317547 192,225.890625 L192,243.412094 C181.658667,247.102172 175.666667,258.761422 175.666667,270.125 L175.669,274.243453 L179.206333,272.120203 C179.302,272.062 185.487667,268.427797 192,267.612953 L192,270.125 L199,270.125 L199,279.4375 L206,279.4375 L206,292.314359 C203.498667,290.086344 200.206333,288.75 196.666667,288.75 C193.208667,288.75 189.960667,290.009516 187.45,292.235203 C184.566,287.299578 179.208667,284.09375 173.333333,284.09375 C168.561667,284.09375 164.135333,286.182078 161.067,289.674266 C156.890333,281.56075 154.666667,272.522969 154.666667,263.138297 C154.666667,248.540953 160.885,234.621094 172.649667,222.880359 L174.299333,221.234375 L171,217.942406 L169.350333,219.588391 C156.692,232.220797 150,247.281437 150,263.138297 C150,279.931062 156.554333,295.71575 168.452,307.589187 C180.734667,319.842109 196.867333,326 213,326 C229.132667,326 245.265333,319.842109 257.548,307.589187 C269.445667,295.71575 276,279.931062 276,263.140625 C276,247.281437 269.308,232.220797 256.649667,219.588391 Z M245.391333,266.1765 C242.535333,264.886719 238.384333,263.371109 234,262.919453 L234,248.489734 C240.309333,251.558203 244.343667,258.621734 245.391333,266.1765 Z M213.002333,183.7795 C216.038,187.3555 222.529333,195.522562 226.351333,207.265625 L199.660333,207.265625 C203.484667,195.541188 209.971333,187.362484 213.002333,183.7795 Z M180.608667,266.1765 C181.656333,258.621734 185.690667,251.560531 192,248.487406 L192,262.912469 C187.615667,263.366453 183.462333,264.884391 180.608667,266.1765 Z M196.666667,265.46875 L196.666667,225.890625 C196.666667,220.861875 197.322333,216.203297 198.356,211.921875 L227.648667,211.921875 C228.68,216.200969 229.333333,220.857219 229.333333,225.890625 L229.333333,265.46875 L227,265.46875 L199,265.46875 L196.666667,265.46875 Z M203.666667,274.78125 L203.666667,270.125 L222.333333,270.125 L222.333333,274.78125 L220,274.78125 L206,274.78125 L203.666667,274.78125 Z M254.248667,304.297219 C231.503333,326.989453 194.496667,326.989453 171.753667,304.297219 C168.610667,301.161234 165.885333,297.720266 163.573,294.055797 C165.726667,290.766156 169.364333,288.75 173.333333,288.75 C178.508667,288.75 183.121667,292.239859 184.554333,297.236016 L186.003333,302.297359 L188.78,297.822703 C190.497333,295.056891 193.446667,293.40625 196.666667,293.40625 C201.093,293.40625 204.940667,296.537578 205.811,300.849266 L206.191333,302.71875 L210.666667,302.71875 L210.666667,279.4375 L215.333333,279.4375 L215.333333,302.71875 L219.808667,302.71875 L220.186667,300.849266 C221.059333,296.537578 224.907,293.40625 229.333333,293.40625 C232.553333,293.40625 235.502667,295.056891 237.22,297.820375 L240.013,302.318312 L241.450333,297.226703 C242.857333,292.235203 247.470333,288.75 252.666667,288.75 C256.663667,288.75 260.282667,290.749859 262.434,294.046484 C260.121667,297.713281 257.394,301.156578 254.248667,304.297219 Z" id="Shape" fill="#FFFFFF"></path>
                <path d="M213.333333,217 C208.186,217 204,221.176656 204,226.3125 C204,231.448344 208.186,235.625 213.333333,235.625 C218.480667,235.625 222.666667,231.448344 222.666667,226.3125 C222.666667,221.176656 218.480667,217 213.333333,217 Z M213.333333,230.96875 C210.759667,230.96875 208.666667,228.880422 208.666667,226.3125 C208.666667,223.744578 210.759667,221.65625 213.333333,221.65625 C215.907,221.65625 218,223.744578 218,226.3125 C218,228.880422 215.907,230.96875 213.333333,230.96875 Z" id="Shape" fill="#FFFFFF"></path>
                <polygon id="Shape" fill="#FFFFFF" points="240.666667 195.96875 245.333333 195.96875 245.333333 191.3125 250 191.3125 250 186.65625 245.333333 186.65625 245.333333 182 240.666667 182 240.666667 186.65625 236 186.65625 236 191.3125 240.666667 191.3125"></polygon>
                <polygon id="Shape" fill="#FFFFFF" points="166.666667 206.96875 171.333333 206.96875 171.333333 202.3125 176 202.3125 176 197.65625 171.333333 197.65625 171.333333 193 166.666667 193 166.666667 197.65625 162 197.65625 162 202.3125 166.666667 202.3125"></polygon>
                <polygon id="Shape" fill="#FFFFFF" points="261.666667 213.96875 266.333333 213.96875 266.333333 209.3125 271 209.3125 271 204.65625 266.333333 204.65625 266.333333 200 261.666667 200 261.666667 204.65625 257 204.65625 257 209.3125 261.666667 209.3125"></polygon>
                <polygon id="Shape" fill="#FFFFFF" points="248.333333 231 248.333333 233.328125 246 233.328125 246 237.984375 248.333333 237.984375 248.333333 240.3125 253 240.3125 253 237.984375 255.333333 237.984375 255.333333 233.328125 253 233.328125 253 231"></polygon>
                <polygon id="Shape" fill="#FFFFFF" points="180.333333 228.3125 185 228.3125 185 225.984375 187.333333 225.984375 187.333333 221.328125 185 221.328125 185 219 180.333333 219 180.333333 221.328125 178 221.328125 178 225.984375 180.333333 225.984375"></polygon>
                <polygon id="Shape" fill="#FFFFFF" points="180.333333 186.3125 185 186.3125 185 183.984375 187.333333 183.984375 187.333333 179.328125 185 179.328125 185 177 180.333333 177 180.333333 179.328125 178 179.328125 178 183.984375 180.333333 183.984375"></polygon>
            </g>
        </g>
    </g>
</svg>