<?xml version="1.0" encoding="UTF-8" standalone="no"?>
<svg width="24px" height="23px" viewBox="0 0 24 23" version="1.1" xmlns="http://www.w3.org/2000/svg" xmlns:xlink="http://www.w3.org/1999/xlink">
    <!-- Generator: Sketch 47.1 (45422) - http://www.bohemiancoding.com/sketch -->
    <title>facebook_F</title>
    <desc>Created with Sketch.</desc>
    <defs></defs>
    <g id="Page-2" stroke="none" stroke-width="1" fill="none" fill-rule="evenodd">
        <g id="01_Home" transform="translate(-861.000000, -4062.000000)" fill="#000000">
            <g id="Group-7" transform="translate(861.000000, 4062.000000)">
                <path d="M11.6735537,23 C5.2264277,23 0,17.8512749 0,11.5 C0,5.14872506 5.2264277,0 11.6735537,0 C18.1206797,0 23.3471074,5.14872506 23.3471074,11.5 C23.3471074,17.8512749 18.1206797,23 11.6735537,23 Z M13.0781157,4.07652 C12.5878264,4.07652 12.1171488,4.13448 11.5680248,4.347 C10.4501653,4.79136 9.88142975,5.83464 9.88142975,7.45752 L9.88142975,9.04176 L8.31250413,9.04176 L8.31250413,11.6886 L9.88142975,11.6886 L9.88142975,19.32 L13.0781157,19.32 L13.0781157,11.6886 L15.255,11.6886 L15.5491736,9.04176 L13.0781157,9.04176 L13.0781157,7.84392 C13.0781157,7.47684 13.1173388,7.20636 13.2153967,7.0518 C13.3526777,6.81996 13.6272397,6.70404 14.0586942,6.70404 L15.5099504,6.70404 L15.5099504,4.07652 L13.0781157,4.07652 Z" id="facebook_F"></path>
            </g>
        </g>
    </g>
</svg>