<?xml version="1.0" encoding="UTF-8"?>
<svg width="30px" height="30px" viewBox="0 0 30 30" version="1.1" xmlns="http://www.w3.org/2000/svg" xmlns:xlink="http://www.w3.org/1999/xlink">
    <title>facebook</title>
    <defs></defs>
    <g id="Page-1" stroke="none" stroke-width="1" fill-rule="evenodd">
        <path d="M15,30 C6.71572834,30 0,23.2842717 0,15 C0,6.71572834 6.71572834,0 15,0 C23.2842717,0 30,6.71572834 30,15 C30,23.2842717 23.2842717,30 15,30 Z M16.0781157,7.07652 C15.5878264,7.07652 15.1171488,7.13448 14.5680248,7.347 C13.4501653,7.79136 12.8814298,8.83464 12.8814298,10.45752 L12.8814298,12.04176 L11.3125041,12.04176 L11.3125041,14.6886 L12.8814298,14.6886 L12.8814298,22.32 L16.0781157,22.32 L16.0781157,14.6886 L18.255,14.6886 L18.5491736,12.04176 L16.0781157,12.04176 L16.0781157,10.84392 C16.0781157,10.47684 16.1173388,10.20636 16.2153967,10.0518 C16.3526777,9.81996 16.6272397,9.70404 17.0586942,9.70404 L18.5099504,9.70404 L18.5099504,7.07652 L16.0781157,7.07652 Z" id="facebook"></path>
    </g>
</svg>
