<?xml version="1.0" encoding="UTF-8" standalone="no"?>
<svg width="148px" height="148px" viewBox="0 0 148 148" version="1.1" xmlns="http://www.w3.org/2000/svg" xmlns:xlink="http://www.w3.org/1999/xlink">
    <!-- Generator: Sketch 47.1 (45422) - http://www.bohemiancoding.com/sketch -->
    <title>graphic-design-4</title>
    <desc>Created with Sketch.</desc>
    <defs></defs>
    <g id="Page-2" stroke="none" stroke-width="1" fill="none" fill-rule="evenodd">
        <g id="01_Home" transform="translate(-139.000000, -1969.000000)" fill="#FFFFFF">
            <g id="Group-3" transform="translate(0.000000, 1792.000000)">
                <path d="M265.1905,241.2855 C261.2525,241.2855 258.0475,244.4905 258.0475,248.4285 C258.0475,252.3665 261.2525,255.5715 265.1905,255.5715 C269.1285,255.5715 272.3335,252.3665 272.3335,248.4285 C272.3335,244.4905 269.1285,241.2855 265.1905,241.2855 L265.1905,241.2855 L265.1905,241.2855 Z M269.9525,291.2845 C273.8905,291.2845 277.0955,288.0795 277.0955,284.1415 L277.0955,218.0285 C282.8475,213.9215 286.619,207.2095 286.619,199.619 C286.619,187.1475 276.4715,177 264,177 L247.3335,177 C234.862,177 224.7145,187.1475 224.7145,199.619 C224.7145,201.6595 225,203.657 225.5265,205.5715 L155.6665,205.5715 C151.7285,205.5715 148.5235,208.7765 148.5235,212.7145 L148.5235,241.286 L143.762,241.286 L143.762,265.5335 C140.9975,266.519 139,269.138 139,272.238 L139,296.0475 C139,299.1475 140.9975,301.7665 143.762,302.7525 L143.762,324.619 L167.5715,324.619 L167.5715,302.7525 C170.336,301.767 172.3335,299.1475 172.3335,296.0475 L172.3335,291.2855 L179.4765,291.2855 L179.4765,317.476 C179.4765,321.414 182.6815,324.619 186.6195,324.619 L246.1435,324.619 L250.9055,324.619 L269.953,324.619 C273.891,324.619 277.096,321.414 277.096,317.476 L277.096,305.571 C277.096,300.3185 272.8245,296.047 267.572,296.047 L265.191,296.047 L265.191,315.0945 L267.572,315.0945 C269.315,315.0945 270.927,314.5895 272.334,313.7705 L272.334,317.4755 C272.334,318.79 271.2675,319.8565 269.953,319.8565 L257.61,319.8565 C257.8765,319.109 258.048,318.3135 258.048,317.4755 L258.048,305.5705 C258.048,300.318 253.7765,296.0465 248.524,296.0465 L246.143,296.0465 L246.143,315.094 L248.524,315.094 C250.267,315.094 251.879,314.589 253.286,313.77 L253.286,317.475 C253.286,318.7895 252.2195,319.856 250.905,319.856 L246.143,319.856 L186.619,319.856 C185.3045,319.856 184.238,318.7895 184.238,317.475 L184.238,291.2845 L269.9525,291.2845 L269.9525,291.2845 Z M269.9525,309.693 L269.9525,301.448 C271.3765,302.272 272.3335,303.81 272.3335,305.5695 C272.3335,307.3285 271.376,308.8715 269.9525,309.693 L269.9525,309.693 Z M250.905,309.693 L250.905,301.448 C252.329,302.272 253.286,303.81 253.286,305.5695 C253.2855,307.3285 252.3285,308.8715 250.905,309.693 L250.905,309.693 Z M265.1905,250.8095 C263.876,250.8095 262.8095,249.7405 262.8095,248.4285 C262.8095,247.1165 263.876,246.0475 265.1905,246.0475 C266.505,246.0475 267.5715,247.1165 267.5715,248.4285 C267.5715,249.7405 266.505,250.8095 265.1905,250.8095 L265.1905,250.8095 Z M272.3335,248.4285 L272.3335,284.143 C272.3335,285.4575 271.267,286.524 269.9525,286.524 L258.0475,286.524 L258.0475,248.429 L258.0475,248.4285 L258.0475,222.238 L264,222.238 C266.945,222.238 269.75,221.6545 272.3335,220.626 L272.3335,248.4285 L272.3335,248.4285 L272.3335,248.4285 Z M247.3335,181.762 L264,181.762 C273.8475,181.762 281.857,189.7715 281.857,199.619 C281.857,209.4665 273.8475,217.476 264,217.476 L258.0475,217.476 L253.2855,217.476 L248.9925,217.476 L241.381,222.55 L241.381,216.512 L239.9835,215.8785 C233.6,212.9855 229.4765,206.6045 229.4765,199.619 C229.476,189.7715 237.4855,181.762 247.3335,181.762 L247.3335,181.762 Z M153.2855,212.7145 C153.2855,211.4025 154.352,210.3335 155.6665,210.3335 L162.8095,210.3335 L162.8095,241.286 L153.2855,241.286 L153.2855,212.7145 L153.2855,212.7145 Z M148.524,246.0475 L162.8095,246.0475 L162.8095,265.095 L148.524,265.095 L148.524,246.0475 L148.524,246.0475 Z M162.8095,319.857 L148.524,319.857 L148.524,303.1905 L162.8095,303.1905 L162.8095,319.857 L162.8095,319.857 Z M167.5715,284.143 L167.5715,296.048 C167.5715,297.3625 166.505,298.429 165.1905,298.429 L146.143,298.429 C144.8285,298.429 143.762,297.3625 143.762,296.048 L143.762,284.162 C143.7725,290.7175 149.1085,296.048 155.6665,296.048 C162.231,296.048 167.5715,290.7075 167.5715,284.143 C167.5715,277.5785 162.231,272.238 155.6665,272.238 C149.1085,272.238 143.7725,277.568 143.762,284.124 L143.762,272.238 C143.762,270.9235 144.8285,269.857 146.143,269.857 L165.1905,269.857 C166.505,269.857 167.5715,270.9235 167.5715,272.238 L167.5715,284.143 L167.5715,284.143 Z M148.5235,284.1425 C148.5235,280.2045 151.7285,276.9995 155.6665,276.9995 C159.6045,276.9995 162.8095,280.2045 162.8095,284.1425 C162.8095,288.081 159.605,291.2855 155.6665,291.2855 C151.7285,291.2855 148.5235,288.0805 148.5235,284.1425 L148.5235,284.1425 Z M210.4285,215.095 C197.3,215.095 186.619,225.776 186.619,238.905 C186.619,252.034 197.3,262.7145 210.4285,262.7145 C223.557,262.7145 234.238,252.0335 234.238,238.905 C234.238,225.7765 223.557,215.095 210.4285,215.095 L210.4285,215.095 Z M217.5715,256.55 C215.3645,257.4475 212.955,257.9525 210.4285,257.9525 C207.902,257.9525 205.493,257.4475 203.2855,256.55 L203.2855,250.8095 C203.2855,246.8715 206.4905,243.6665 210.4285,243.6665 C214.3665,243.6665 217.5715,246.8715 217.5715,250.8095 L217.5715,256.55 L217.5715,256.55 Z M205.6665,231.762 C205.6665,229.136 207.802,227 210.4285,227 C213.0545,227 215.1905,229.1355 215.1905,231.762 C215.1905,234.388 213.055,236.524 210.4285,236.524 C207.8025,236.524 205.6665,234.3885 205.6665,231.762 L205.6665,231.762 Z M222.333,253.7495 L222.333,250.809 C222.333,245.9565 219.407,241.79 215.233,239.9375 C218.0425,238.278 219.952,235.252 219.952,231.7615 C219.952,226.509 215.6805,222.2375 210.428,222.2375 C205.1755,222.2375 200.904,226.509 200.904,231.7615 C200.904,235.252 202.8135,238.278 205.623,239.9375 C201.449,241.79 198.523,245.9565 198.523,250.809 L198.523,253.7495 C194.1755,250.2545 191.38,244.9045 191.38,238.9045 C191.381,228.4025 199.926,219.857 210.4285,219.857 C220.931,219.857 229.476,228.402 229.476,238.9045 C229.476,244.9045 226.681,250.257 222.333,253.7495 L222.333,253.7495 Z M202.0955,269.857 L192.5715,269.857 C189.288,269.857 186.619,272.526 186.619,275.8095 C186.619,279.093 189.288,281.762 192.5715,281.762 L202.0955,281.762 C205.379,281.762 208.048,279.093 208.048,275.8095 C208.048,272.526 205.379,269.857 202.0955,269.857 L202.0955,269.857 Z M202.0955,277 L192.5715,277 C191.9165,277 191.381,276.4645 191.381,275.8095 C191.381,275.155 191.9165,274.619 192.5715,274.619 L202.0955,274.619 C202.7505,274.619 203.286,275.1545 203.286,275.8095 C203.286,276.4645 202.7505,277 202.0955,277 L202.0955,277 Z M228.2855,269.857 L218.7615,269.857 C215.478,269.857 212.809,272.526 212.809,275.8095 C212.809,279.093 215.478,281.762 218.7615,281.762 L228.2855,281.762 C231.569,281.762 234.238,279.093 234.238,275.8095 C234.238,272.526 231.569,269.857 228.2855,269.857 L228.2855,269.857 Z M228.2855,277 L218.7615,277 C218.1065,277 217.571,276.4645 217.571,275.8095 C217.571,275.1545 218.1065,274.619 218.7615,274.619 L228.2855,274.619 C228.9405,274.619 229.476,275.1545 229.476,275.8095 C229.476,276.4645 228.9405,277 228.2855,277 L228.2855,277 Z M172.3335,286.5235 L172.3335,272.238 C172.3335,269.138 170.3355,266.519 167.5715,265.5335 L167.5715,241.286 L167.5715,210.3335 L227.481,210.3335 C229.5525,214.1595 232.6785,217.398 236.619,219.524 L236.619,231.45 L250.4355,222.238 L253.2855,222.238 L253.2855,286.5235 L172.3335,286.5235 L172.3335,286.5235 Z M239,191.2855 L272.3335,191.2855 L272.3335,196.0475 L239,196.0475 L239,191.2855 L239,191.2855 Z M239,203.1905 L272.3335,203.1905 L272.3335,207.9525 L239,207.9525 L239,203.1905 L239,203.1905 Z" id="graphic-design-4"></path>
            </g>
        </g>
    </g>
</svg>