<?xml version="1.0" encoding="UTF-8" standalone="no"?>
<svg width="24px" height="23px" viewBox="0 0 24 23" version="1.1" xmlns="http://www.w3.org/2000/svg" xmlns:xlink="http://www.w3.org/1999/xlink">
    <!-- Generator: Sketch 47.1 (45422) - http://www.bohemiancoding.com/sketch -->
    <title>instagram_F</title>
    <desc>Created with Sketch.</desc>
    <defs></defs>
    <g id="Page-2" stroke="none" stroke-width="1" fill="none" fill-rule="evenodd">
        <g id="01_Home" transform="translate(-950.000000, -4062.000000)" fill="#000000">
            <g id="Group-7" transform="translate(861.000000, 4062.000000)">
                <path d="M96.1900826,4.60941095 L96.1900826,7.36 L95.7231405,7.36 L95.7231405,4.70905769 C94.908423,4.98486672 94.322314,5.75383838 94.322314,6.67 L94.322314,8.74 L98.1940491,8.74 C98.9635518,7.89302587 100.081812,7.36 101.326446,7.36 C102.57108,7.36 103.689341,7.89302587 104.458843,8.74 L108.330579,8.74 L108.330579,6.67 C108.330579,5.52677057 107.411457,4.6 106.263611,4.6 L96.3892817,4.6 C96.3220849,4.6 96.255637,4.60318365 96.1900826,4.60941095 Z M97.5608005,9.66 L94.322314,9.66 L94.322314,14.03 C94.322314,16.4434844 96.2701032,18.4 98.6969951,18.4 L103.955897,18.4 C106.371967,18.4 108.330579,16.4385734 108.330579,14.03 L108.330579,9.66 L105.092092,9.66 C105.371703,10.2142811 105.528926,10.8390529 105.528926,11.5 C105.528926,13.786459 103.647412,15.64 101.326446,15.64 C99.0054809,15.64 97.1239669,13.786459 97.1239669,11.5 C97.1239669,10.8390529 97.2811892,10.2142811 97.5608005,9.66 Z M101.326446,23 C94.8793203,23 89.6528926,17.8512749 89.6528926,11.5 C89.6528926,5.14872506 94.8793203,0 101.326446,0 C107.773572,0 113,5.14872506 113,11.5 C113,17.8512749 107.773572,23 101.326446,23 Z M97.5909091,4.6 L98.0578512,4.6 L98.0578512,7.36 L97.5909091,7.36 L97.5909091,4.6 Z M96.6570248,4.6 L97.1239669,4.6 L97.1239669,7.36 L96.6570248,7.36 L96.6570248,4.6 Z M105.598718,5.52 L105.926075,5.52 C106.479596,5.52 106.929752,5.96866564 106.929752,6.52212275 L106.929752,6.81787725 C106.929752,7.37653687 106.480391,7.82 105.926075,7.82 L105.598718,7.82 C105.045197,7.82 104.595041,7.37133436 104.595041,6.81787725 L104.595041,6.52212275 C104.595041,5.96346313 105.044403,5.52 105.598718,5.52 Z M101.326446,14.72 C103.131642,14.72 104.595041,13.278357 104.595041,11.5 C104.595041,9.72164302 103.131642,8.28 101.326446,8.28 C99.521251,8.28 98.0578512,9.72164302 98.0578512,11.5 C98.0578512,13.278357 99.521251,14.72 101.326446,14.72 Z" id="instagram_F"></path>
            </g>
        </g>
    </g>
</svg>