<?xml version="1.0" encoding="UTF-8" standalone="no"?>
<svg width="25px" height="23px" viewBox="0 0 25 23" version="1.1" xmlns="http://www.w3.org/2000/svg" xmlns:xlink="http://www.w3.org/1999/xlink">
    <!-- Generator: Sketch 47.1 (45422) - http://www.bohemiancoding.com/sketch -->
    <title>linkedin_F</title>
    <desc>Created with Sketch.</desc>
    <defs></defs>
    <g id="Page-2" stroke="none" stroke-width="1" fill="none" fill-rule="evenodd">
        <g id="01_Home" transform="translate(-920.000000, -4062.000000)" fill="#000000">
            <g id="Group-7" transform="translate(861.000000, 4062.000000)">
                <path d="M71.4421488,23 C64.9950227,23 59.768595,17.8512749 59.768595,11.5 C59.768595,5.14872506 64.9950227,0 71.4421488,0 C77.8892748,0 83.1157025,5.14872506 83.1157025,11.5 C83.1157025,17.8512749 77.8892748,23 71.4421488,23 Z M68.1066429,17.02 L68.1066429,8.36846154 L65.4631504,8.36846154 L65.4631504,17.02 L68.1066429,17.02 Z M66.7848966,4.6 C65.9327181,4.6 65.3761934,5.18384615 65.3935848,5.96230769 C65.3761934,6.70538462 65.9327181,7.30692308 66.7675052,7.30692308 C67.6370752,7.30692308 68.1935999,6.70538462 68.1935999,5.96230769 C68.1762085,5.18384615 67.6370752,4.6 66.7848966,4.6 Z M70.2283935,17.02 L72.8718861,17.02 L72.8718861,12.0307692 C72.8718861,11.7830769 72.9066689,11.5176923 72.9762344,11.3584615 C73.1501484,10.8630769 73.5849334,10.35 74.3153721,10.35 C75.271899,10.35 75.6545098,11.1107692 75.6545098,12.2253846 L75.6545098,17.02 L78.2980023,17.02 L78.2980023,11.8892308 C78.2980023,9.34153846 76.9936475,8.17384615 75.2545076,8.17384615 C73.8458044,8.17384615 72.9762344,9.00538462 72.6284065,9.55384615 L72.5762323,9.55384615 L72.4544925,8.36846154 L70.1588279,8.36846154 C70.1936107,9.12923077 70.2283935,10.0492308 70.2283935,11.1284615 L70.2283935,17.02 Z" id="linkedin_F"></path>
            </g>
        </g>
    </g>
</svg>