<?xml version="1.0" encoding="UTF-8"?>
<svg width="30px" height="30px" viewBox="0 0 30 30" version="1.1" xmlns="http://www.w3.org/2000/svg" xmlns:xlink="http://www.w3.org/1999/xlink">
    <title>linkedin</title>
    <defs></defs>
    <g id="Page-1" stroke="none" stroke-width="1" fill="none" fill-rule="evenodd">
        <path d="M15,30 C6.71572834,30 0,23.2842717 0,15 C0,6.71572834 6.71572834,0 15,0 C23.2842717,0 30,6.71572834 30,15 C30,23.2842717 23.2842717,30 15,30 Z M11.3380479,20.02 L11.3380479,11.3684615 L8.69455533,11.3684615 L8.69455533,20.02 L11.3380479,20.02 Z M10.0163016,7.6 C9.16412309,7.6 8.60759834,8.18384615 8.62498974,8.96230769 C8.60759834,9.70538462 9.16412309,10.3069231 9.99891021,10.3069231 C10.8684801,10.3069231 11.4250049,9.70538462 11.4250049,8.96230769 C11.4076135,8.18384615 10.8684801,7.6 10.0163016,7.6 Z M13.4597985,20.02 L16.103291,20.02 L16.103291,15.0307692 C16.103291,14.7830769 16.1380738,14.5176923 16.2076394,14.3584615 C16.3815534,13.8630769 16.8163383,13.35 17.5467771,13.35 C18.503304,13.35 18.8859147,14.1107692 18.8859147,15.2253846 L18.8859147,20.02 L21.5294073,20.02 L21.5294073,14.8892308 C21.5294073,12.3415385 20.2250524,11.1738462 18.4859126,11.1738462 C17.0772093,11.1738462 16.2076394,12.0053846 15.8598114,12.5538462 L15.8076372,12.5538462 L15.6858975,11.3684615 L13.3902329,11.3684615 C13.4250157,12.1292308 13.4597985,13.0492308 13.4597985,14.1284615 L13.4597985,20.02 Z" id="linkedin"></path>
    </g>
</svg>
