<?xml version="1.0" encoding="UTF-8" standalone="no"?>
<svg width="148px" height="148px" viewBox="0 0 148 148" version="1.1" xmlns="http://www.w3.org/2000/svg" xmlns:xlink="http://www.w3.org/1999/xlink">
    <!-- Generator: Sketch 47.1 (45422) - http://www.bohemiancoding.com/sketch -->
    <title>perspective</title>
    <desc>Created with Sketch.</desc>
    <defs></defs>
    <g id="Page-2" stroke="none" stroke-width="1" fill="none" fill-rule="evenodd">
        <g id="01_Home" transform="translate(-139.000000, -2973.000000)" fill="#FFFFFF">
            <path d="M212.8095,2973 C172.1095,2973 139,3006.1095 139,3046.8095 C139,3087.5095 172.1095,3120.619 212.8095,3120.619 C253.5095,3120.619 286.619,3087.5095 286.619,3046.8095 C286.619,3006.1095 253.5095,2973 212.8095,2973 L212.8095,2973 L212.8095,2973 Z M215.4145,3115.7905 L217.2525,3112.6095 L213.1285,3110.2285 L212.8095,3110.781 L212.4905,3110.2285 L208.3665,3112.6095 L210.2045,3115.7905 C173.3355,3114.4145 143.762,3084.007 143.762,3046.8095 C143.762,3035.174 146.667,3024.2095 151.7715,3014.5835 L153.605,3017.7575 L157.729,3015.893 L157.41,3015.8575 L158.048,3015.8575 L158.048,3011.095 L154.395,3011.095 C166.6355,2989.6665 188.238,2978.795 212.8095,2978.795 C237.381,2978.795 258.9835,2989.6665 271.224,3011.095 L267.5715,3011.095 L267.5715,3015.857 L268.2095,3015.857 L267.8905,3015.8925 L272.0145,3018.0165 L273.848,3014.7115 C278.953,3024.3375 281.8575,3035.24 281.8575,3046.8735 C281.857,3084.0715 252.2835,3114.4145 215.4145,3115.7905 L215.4145,3115.7905 Z M193.427594,3086.74287 L188.450344,3078.12227 L192.574236,3075.74127 L197.551486,3084.36187 L193.427594,3086.74287 L193.427594,3086.74287 Z M203.384464,3103.98834 L198.407214,3095.36774 L202.531106,3092.98674 L207.508356,3101.60734 L203.384464,3103.98834 L203.384464,3103.98834 Z M173.514472,3052.25004 L168.537222,3043.62944 L172.661114,3041.24844 L177.638364,3049.86904 L173.514472,3052.25004 L173.514472,3052.25004 Z M163.558002,3035.00487 L158.580752,3026.38427 L162.704644,3024.00327 L167.681894,3032.62387 L163.558002,3035.00487 L163.558002,3035.00487 Z M189,3011.095 L198.524,3011.095 L198.524,3015.857 L189,3015.857 L189,3011.095 L189,3011.095 Z M167.5715,3011.095 L177.0955,3011.095 L177.0955,3015.857 L167.5715,3015.857 L167.5715,3011.095 L167.5715,3011.095 Z M227.095,3011.095 L236.619,3011.095 L236.619,3015.857 L227.095,3015.857 L227.095,3011.095 L227.095,3011.095 Z M248.524,3011.095 L258.048,3011.095 L258.048,3015.857 L248.524,3015.857 L248.524,3011.095 L248.524,3011.095 Z M222.230823,3103.97724 L218.106455,3101.59672 L223.08296,3092.9747 L227.207328,3095.35522 L222.230823,3103.97724 L222.230823,3103.97724 Z M241.7,3060.7405 L238.75,3059.0335 L236.3645,3063.1525 L239.319,3064.8645 L238.0215,3067.112 L242.145,3069.493 L247.124,3060.8715 L243,3058.4905 L241.7,3060.7405 L241.7,3060.7405 Z M232.186622,3086.73379 L228.062254,3084.35326 L233.038758,3075.73124 L237.163127,3078.11176 L232.186622,3086.73379 L232.186622,3086.73379 Z M252.098105,3052.24286 L247.973737,3049.86234 L252.950241,3041.24032 L257.07461,3043.62084 L252.098105,3052.24286 L252.098105,3052.24286 Z M262.053905,3034.99717 L257.929537,3032.61665 L262.906041,3023.99462 L267.03041,3026.37515 L262.053905,3034.99717 L262.053905,3034.99717 Z M210.4285,3092.0475 L215.1905,3092.0475 L215.1905,3101.5715 L210.4285,3101.5715 L210.4285,3092.0475 L210.4285,3092.0475 Z M166.690206,3017.43907 L174.782042,3022.11344 L172.400089,3026.23686 L164.308254,3021.56249 L166.690206,3017.43907 L166.690206,3017.43907 Z M236.355,3063.1475 L238.7405,3059.0235 L236.1455,3057.5235 L241.9025,3032.7685 L245.1265,3030.9065 L242.7455,3026.7825 L239.5145,3028.649 L215.1905,3021.2705 L215.1905,3018.238 L215.1905,3018.237 L215.1905,3015.857 L217.5715,3015.857 L217.5715,3011.095 L208.0475,3011.095 L208.0475,3015.857 L210.4285,3015.857 L210.4285,3018.237 L210.4285,3018.238 L210.4285,3021.2705 L186.1025,3028.6465 L182.8715,3026.78 L180.4905,3030.904 L183.7145,3032.766 L189.474,3057.523 L186.879,3059.0255 L189.2645,3063.1445 L191.8575,3061.6445 L210.429,3079.03 L210.429,3082.523 L215.191,3082.523 L215.191,3079.0325 L233.76,3061.649 L236.355,3063.1475 L236.355,3063.1475 Z M210.4285,3072.507 L194.3525,3057.457 L189.3715,3036.0355 L210.4285,3048.1975 L210.4285,3072.507 L210.4285,3072.507 Z M191.7525,3031.912 L212.8095,3025.5265 L233.8665,3031.912 L212.8095,3044.074 L191.7525,3031.912 L191.7525,3031.912 Z M215.1905,3072.5095 L215.1905,3048.1975 L236.2475,3036.038 L231.2665,3057.462 L215.1905,3072.5095 L215.1905,3072.5095 Z M189.255,3063.15 L186.869,3059.031 L183.919,3060.738 L182.6215,3058.4905 L178.4975,3060.8715 L183.476,3069.493 L187.6,3067.112 L186.3,3064.862 L189.255,3063.15 L189.255,3063.15 Z M261.312302,3021.55119 L253.220466,3026.22556 L250.838514,3022.10214 L258.93035,3017.42777 L261.312302,3021.55119 L261.312302,3021.55119 Z" id="perspective"></path>
        </g>
    </g>
</svg>