<?xml version="1.0" encoding="UTF-8" standalone="no"?>
<svg width="25px" height="23px" viewBox="0 0 25 23" version="1.1" xmlns="http://www.w3.org/2000/svg" xmlns:xlink="http://www.w3.org/1999/xlink">
    <!-- Generator: Sketch 47.1 (45422) - http://www.bohemiancoding.com/sketch -->
    <title>twitter_F</title>
    <desc>Created with Sketch.</desc>
    <defs></defs>
    <g id="Page-2" stroke="none" stroke-width="1" fill="none" fill-rule="evenodd">
        <g id="01_Home" transform="translate(-890.000000, -4062.000000)" fill="#000000">
            <g id="Group-7" transform="translate(861.000000, 4062.000000)">
                <path d="M41.5578512,23 C35.1107252,23 29.8842975,17.8512749 29.8842975,11.5 C29.8842975,5.14872506 35.1107252,0 41.5578512,0 C48.0049773,0 53.231405,5.14872506 53.231405,11.5 C53.231405,17.8512749 48.0049773,23 41.5578512,23 Z M38.1263505,8.554577 C35.8819157,7.43831053 35.3371499,6.42971281 35.3371499,6.42971281 C35.3371499,6.42971281 34.9884999,7.03077936 35.1410343,8.14704582 C35.2935688,9.26331228 36.3656306,10.6995472 36.3656306,10.6995472 L35.0756624,10.1863788 C35.0756624,10.1863788 35.1410342,10.8947787 35.6422188,11.6246452 C36.1434032,12.3545117 37.9084442,13.2775782 37.9084442,13.2775782 L36.2305658,13.2990449 C36.2305658,13.2990449 36.3831002,13.6425115 36.9932378,14.2221114 C37.6033754,14.8017113 39.3030445,15.3169112 39.3030445,15.3169112 C39.3030445,15.3169112 38.107665,16.1415767 37.276516,16.4546443 C36.445367,16.7677119 35.1410343,16.8410442 35.1410343,16.8410442 C35.1410343,16.8410442 37.0833582,18.0316295 40.0657166,17.742644 C43.0480749,17.4536586 45.1011063,16.0805796 46.690068,13.7927781 C48.2790294,11.5049765 48.1282495,8.53344575 48.1282495,8.53344575 C48.1282495,8.53344575 48.3022112,8.33643378 48.7242957,7.95508 C49.1463801,7.5737262 49.2763674,7.38649501 49.2763674,7.38649501 L48.2217273,7.49662502 L48.9066259,6.29229501 C48.9066259,6.29229501 48.4885842,6.47948892 48.1997553,6.58431751 C47.9109265,6.68914609 47.5232878,6.79397468 47.5232878,6.79397468 C47.5232878,6.79397468 45.9937892,4.94817767 43.771145,6.04297746 C41.5485007,7.13777708 42.2675916,9.60644347 42.2675916,9.60644347 C42.2675916,9.60644347 40.3707854,9.67084346 38.1263505,8.554577 Z" id="twitter_F"></path>
            </g>
        </g>
    </g>
</svg>