<?xml version="1.0" encoding="UTF-8"?>
<svg width="30px" height="30px" viewBox="0 0 30 30" version="1.1" xmlns="http://www.w3.org/2000/svg" xmlns:xlink="http://www.w3.org/1999/xlink">
    <title>twitter</title>
    <defs></defs>
    <g id="Page-1" stroke="none" stroke-width="1" fill-rule="evenodd">
        <path d="M15,30 C6.71572834,30 0,23.2842717 0,15 C0,6.71572834 6.71572834,0 15,0 C23.2842717,0 30,6.71572834 30,15 C30,23.2842717 23.2842717,30 15,30 Z M11.242053,11.554577 C8.99761817,10.4383105 8.45285242,9.42971281 8.45285242,9.42971281 C8.45285242,9.42971281 8.10420235,10.0307794 8.25673676,11.1470458 C8.40927124,12.2633123 9.48133303,13.6995472 9.48133303,13.6995472 L8.19136487,13.1863788 C8.19136487,13.1863788 8.25673671,13.8947787 8.75792124,14.6246452 C9.25910572,15.3545117 11.0241467,16.2775782 11.0241467,16.2775782 L9.34626824,16.2990449 C9.34626824,16.2990449 9.49880264,16.6425115 10.1089403,17.2221114 C10.7190779,17.8017113 12.418747,18.3169112 12.418747,18.3169112 C12.418747,18.3169112 11.2233675,19.1415767 10.3922185,19.4546443 C9.56106945,19.7677119 8.25673676,19.8410442 8.25673676,19.8410442 C8.25673676,19.8410442 10.1990607,21.0316295 13.181419,20.742644 C16.1637774,20.4536586 18.2168088,19.0805796 19.8057704,16.7927781 C21.3947319,14.5049765 21.243952,11.5334458 21.243952,11.5334458 C21.243952,11.5334458 21.4179137,11.3364338 21.8399981,10.95508 C22.2620826,10.5737262 22.3920698,10.386495 22.3920698,10.386495 L21.3374298,10.496625 L22.0223284,9.29229501 C22.0223284,9.29229501 21.6042867,9.47948892 21.3154578,9.58431751 C21.026629,9.68914609 20.6389903,9.79397468 20.6389903,9.79397468 C20.6389903,9.79397468 19.1094917,7.94817767 16.8868475,9.04297746 C14.6642032,10.1377771 15.3832941,12.6064435 15.3832941,12.6064435 C15.3832941,12.6064435 13.4864879,12.6708435 11.242053,11.554577 Z" id="twitter"></path>
    </g>
</svg>
