<?xml version="1.0" encoding="UTF-8" standalone="no"?>
<svg width="148px" height="122px" viewBox="0 0 148 122" version="1.1" xmlns="http://www.w3.org/2000/svg" xmlns:xlink="http://www.w3.org/1999/xlink">
    <!-- Generator: Sketch 47.1 (45422) - http://www.bohemiancoding.com/sketch -->
    <title>web-design</title>
    <desc>Created with Sketch.</desc>
    <defs></defs>
    <g id="Page-2" stroke="none" stroke-width="1" fill="none" fill-rule="evenodd">
        <g id="01_Home" transform="translate(-139.000000, -978.000000)" fill="#FFFFFF">
            <path d="M277.095,978 L148.524,978 C143.2715,978 139,982.2715 139,987.524 L139,1073.2385 C139,1078.491 143.2715,1082.7625 148.524,1082.7625 L191.381,1082.7625 L191.381,1094.6675 L174.7145,1094.6675 L174.7145,1099.4295 L191.381,1099.4295 L234.238,1099.4295 L250.9045,1099.4295 L250.9045,1094.6675 L234.238,1094.6675 L234.238,1082.7625 L277.095,1082.7625 C282.3475,1082.7625 286.619,1078.491 286.619,1073.2385 L286.619,987.524 C286.619,982.2715 282.3475,978 277.095,978 L277.095,978 L277.095,978 Z M229.476,1094.667 L196.1425,1094.667 L196.1425,1082.762 L229.476,1082.762 L229.476,1094.667 L229.476,1094.667 L229.476,1094.667 Z M281.857,1073.2385 C281.857,1075.8645 279.7215,1078.0005 277.095,1078.0005 L234.238,1078.0005 L191.381,1078.0005 L148.524,1078.0005 C145.898,1078.0005 143.762,1075.865 143.762,1073.2385 L143.762,987.524 C143.762,984.898 145.8975,982.762 148.524,982.762 L277.095,982.762 C279.721,982.762 281.857,984.8975 281.857,987.524 L281.857,1073.2385 L281.857,1073.2385 Z M148.524,1073.2385 L277.095,1073.2385 L277.095,987.524 L148.524,987.524 L148.524,1073.2385 L148.524,1073.2385 Z M153.2855,992.2865 L272.333,992.2865 L272.333,1068.477 L153.2855,1068.477 L153.2855,992.2865 L153.2855,992.2865 Z M160.4285,1001.8105 C161.74349,1001.8105 162.8095,1000.74449 162.8095,999.4295 C162.8095,998.11451 161.74349,997.0485 160.4285,997.0485 C159.11351,997.0485 158.0475,998.11451 158.0475,999.4295 C158.0475,1000.74449 159.11351,1001.8105 160.4285,1001.8105 L160.4285,1001.8105 Z M167.5715,1001.8105 C168.88649,1001.8105 169.9525,1000.74449 169.9525,999.4295 C169.9525,998.11451 168.88649,997.0485 167.5715,997.0485 C166.25651,997.0485 165.1905,998.11451 165.1905,999.4295 C165.1905,1000.74449 166.25651,1001.8105 167.5715,1001.8105 L167.5715,1001.8105 Z M174.7145,1001.8105 C176.02949,1001.8105 177.0955,1000.74449 177.0955,999.4295 C177.0955,998.11451 176.02949,997.0485 174.7145,997.0485 C173.39951,997.0485 172.3335,998.11451 172.3335,999.4295 C172.3335,1000.74449 173.39951,1001.8105 174.7145,1001.8105 L174.7145,1001.8105 Z M158.0475,1035.1435 L191.381,1035.1435 L191.381,1006.572 L158.0475,1006.572 L158.0475,1035.1435 L158.0475,1035.1435 Z M162.8095,1011.3335 L186.619,1011.3335 L186.619,1030.381 L162.8095,1030.381 L162.8095,1011.3335 L162.8095,1011.3335 Z M196.143,1035.1435 L229.4765,1035.1435 L229.4765,1006.572 L196.143,1006.572 L196.143,1035.1435 L196.143,1035.1435 Z M200.905,1011.3335 L224.7145,1011.3335 L224.7145,1030.381 L200.905,1030.381 L200.905,1011.3335 L200.905,1011.3335 Z M234.238,1035.1435 L267.5715,1035.1435 L267.5715,1006.572 L234.238,1006.572 L234.238,1035.1435 L234.238,1035.1435 L234.238,1035.1435 Z M239,1011.3335 L262.8095,1011.3335 L262.8095,1030.381 L239,1030.381 L239,1011.3335 L239,1011.3335 Z M158.0475,1039.905 L229.476,1039.905 L229.476,1044.667 L158.0475,1044.667 L158.0475,1039.905 L158.0475,1039.905 Z M158.0475,1049.429 L229.476,1049.429 L229.476,1054.191 L158.0475,1054.191 L158.0475,1049.429 L158.0475,1049.429 Z M158.0475,1058.9525 L229.476,1058.9525 L229.476,1063.7145 L158.0475,1063.7145 L158.0475,1058.9525 L158.0475,1058.9525 Z M236.619,1039.905 L267.5715,1039.905 L267.5715,1044.667 L236.619,1044.667 L236.619,1039.905 L236.619,1039.905 Z M236.619,1049.429 L267.5715,1049.429 L267.5715,1054.191 L236.619,1054.191 L236.619,1049.429 L236.619,1049.429 Z M236.619,1058.9525 L267.5715,1058.9525 L267.5715,1063.7145 L236.619,1063.7145 L236.619,1058.9525 L236.619,1058.9525 Z" id="web-design"></path>
        </g>
    </g>
</svg>