<?xml version="1.0" encoding="UTF-8" standalone="no"?>
<svg width="40px" height="33px" viewBox="0 0 40 33" version="1.1" xmlns="http://www.w3.org/2000/svg" xmlns:xlink="http://www.w3.org/1999/xlink">
    <!-- Generator: Sketch 47.1 (45422) - http://www.bohemiancoding.com/sketch -->
    <title>Group</title>
    <desc>Created with Sketch.</desc>
    <defs></defs>
    <g id="Page-2" stroke="none" stroke-width="1" fill="none" fill-rule="evenodd">
        <g id="01_Home" transform="translate(-48.000000, -21.000000)" fill="#FFFFFF">
            <g id="Group" transform="translate(48.000000, 21.000000)">
                <path d="M3.62202054,10.224361 C3.17667734,10.224361 2.94363264,9.87710528 2.94363264,9.534132 C2.94363264,9.35603276 3.00345296,9.18889154 3.11214776,9.06356711 C3.23726132,8.91934956 3.41354036,8.84314727 3.62202054,8.84314727 C3.830628,8.84314727 4.00690703,8.9192236 4.13202059,9.06331521 C4.24058811,9.18838772 4.30053571,9.35540299 4.30053571,9.53337627 C4.30053571,9.87672742 4.06749101,10.224361 3.62202054,10.224361" id="Fill-60"></path>
                <path d="M5.43074522,11.0339064 C5.37283406,11.0339064 5.3126319,11.0255935 5.25064787,11.007582 C4.82312349,10.883769 4.71646513,10.4232805 4.8320329,10.0324446 C4.94760067,9.64135681 5.28806739,9.31022322 5.7159736,9.43365834 C6.14349798,9.55747131 6.25002906,10.0178339 6.13458857,10.4086698 C6.03569412,10.7432041 5.77235743,11.0339064 5.43074522,11.0339064" id="Fill-62"></path>
                <path d="M14.2097719,12.7430797 C13.3357588,12.7430797 12.5406576,12.1386255 12.234174,11.2166408 C12.0944235,10.7962057 12.3573784,10.4984499 12.6608074,10.3997018 C12.9972012,10.2902476 13.4328714,10.4062515 13.5764401,10.8377705 C13.6992627,11.2071942 14.0749852,11.3737057 14.3537225,11.3162705 C14.5922401,11.2670225 14.712899,11.0687705 14.6846434,10.7724003 C14.6445511,10.3489423 14.952053,10.1256255 15.2548456,10.0975377 C15.6287863,10.0629003 16.0364554,10.2971751 16.0792205,10.7488469 C16.1720057,11.7228507 15.4038873,12.6316102 14.4022151,12.7332553 C14.3378128,12.7399309 14.2735378,12.7430797 14.2097719,12.7430797" id="Fill-90"></path>
                <path d="M27.9471395,12.7649202 C27.8495178,12.377611 27.379101,12.3339049 27.0881451,12.4874431 C25.1610399,13.5046492 23.4849254,14.1297599 21.3095021,14.3747408 C20.5819852,14.456611 20.6699338,15.5830194 21.4026691,15.5005194 C23.4914165,15.2654889 25.1812769,14.690256 26.9879779,13.8000118 C27.0477982,14.4602637 26.9065205,15.1077942 26.275607,15.498882 C26.0731088,15.6243324 25.8348458,15.7096034 25.6005283,15.7524278 C25.2058415,15.8247255 24.1793502,15.8607484 24.3202462,16.4374927 C24.4709425,17.0546683 24.552909,17.811527 24.4367049,18.4521301 C24.3101912,19.1491606 24.0221628,19.5183324 23.3244287,19.2103744 C23.0297818,19.0803896 22.746208,18.911737 22.4758711,18.7380461 C22.0848753,18.4871454 21.6425868,18.9080843 21.6554418,19.291237 C21.7006252,20.6254698 20.4321798,21.9690232 19.1255513,21.1450309 C18.3018128,20.6255957 17.2460477,19.4130347 17.3670884,18.3774393 C17.4509641,17.6596263 16.330415,17.4437408 16.2457756,18.1670957 C16.045823,19.8789393 17.6341162,21.9550423 19.2593197,22.4679278 C20.9062877,22.9876148 22.2812642,21.6410385 22.6783693,20.1502446 C23.5970567,20.5912102 24.5823101,20.7137637 25.2203511,19.6411377 C25.6864405,18.8574507 25.7032411,17.8471721 25.5656543,16.918008 C26.0353075,16.8483553 26.5134882,16.6600538 26.7724975,16.5152064 C28.1870572,15.7238362 28.3059341,14.1889583 27.9471395,12.7649202" id="Fill-92"></path>
                <path d="M34.6833913,11.416316 C34.6444444,10.9336595 35.1422259,10.8114839 35.5743322,11.416316 C35.8288868,11.7941786 35.7138281,12.0014992 35.7184101,12.2212893 C35.3027225,12.1249343 34.7180107,11.8870068 34.6833913,11.416316 M30.0496074,20.1841137 C29.9981874,20.3567969 29.9421854,20.5280946 29.8837651,20.6987625 C29.8663281,20.7495221 29.8480002,20.7997778 29.8300541,20.8502854 C29.7858889,20.9746022 29.7396872,21.0981633 29.6915764,21.2209686 C29.6713393,21.2729877 29.6512295,21.3250068 29.6302288,21.376774 C29.5698993,21.525274 29.5070244,21.6726404 29.4410947,21.8184954 C29.4326944,21.8372625 29.4251851,21.8562816 29.4165302,21.8747969 C29.3418185,22.0381595 29.2629065,22.1991289 29.1811945,22.358587 C29.1580301,22.4039305 29.1335928,22.4485183 29.109792,22.4936099 C29.0479352,22.6106213 28.9841693,22.7263732 28.9183669,22.8411175 C28.8901114,22.8901137 28.8621104,22.9389839 28.8332184,22.9876022 C28.7579976,23.1143122 28.6803584,23.2392587 28.6001737,23.3625679 C28.5823549,23.3901518 28.5655543,23.4183656 28.5473537,23.4456976 C28.4493502,23.5939457 28.3471465,23.7391709 28.2420155,23.882003 C28.2140145,23.9199152 28.1847407,23.9566938 28.1563579,23.9941022 C28.0756641,24.1006595 27.9931884,24.2054534 27.9084217,24.308358 C27.8724023,24.3520641 27.8362555,24.3955183 27.7994724,24.4385946 C27.7094874,24.5441442 27.6169568,24.6475526 27.5226443,24.7490717 C27.4948979,24.7789228 27.4682969,24.8096557 27.4401686,24.839003 C27.318237,24.9668465 27.1927416,25.0909114 27.063937,25.2114496 C27.0331359,25.2401671 27.0011893,25.2673732 26.9698791,25.2957129 C26.8685664,25.3877854 26.7650899,25.4779686 26.6593225,25.5653809 C26.6155391,25.6016557 26.5715012,25.6371747 26.5269542,25.6725679 C26.4220777,25.7560755 26.3149102,25.8368122 26.2058336,25.9154076 C26.1849601,25.9303961 26.1654867,25.9468961 26.1446132,25.9617587 L26.059592,26.0397244 C25.9309147,26.1884763 25.9176778,26.4299305 26.1498316,26.7561518 C26.2376529,26.879461 26.3275107,26.9982358 26.4211867,27.1129801 C27.1627042,28.020858 27.5884467,28.4857549 28.7128141,28.7390488 C28.7128141,28.7390488 28.1671764,28.7443389 27.9084217,29.2446289 C27.6562855,29.7319457 27.6609947,30.102503 27.6609947,30.102503 C26.3117283,29.7164534 25.512427,29.1211938 24.3199661,28.1267854 C23.9844632,27.8470412 23.6697065,27.5489076 23.3838418,27.2352816 C22.765656,26.5571442 22.2818751,25.8074648 22.0161201,25.0172282 C21.7852391,24.3311557 20.6827634,24.6252587 20.9156808,25.317503 C21.1721445,26.0800297 21.5901231,26.807919 22.1199784,27.4812702 C20.0662322,27.7545908 17.9520293,27.4539381 15.9275569,27.0217893 C16.0273423,26.5037396 16.1033269,25.9840526 16.1452011,25.4638618 C16.2033668,24.7392473 15.0618169,24.7430259 15.0039057,25.4638618 C14.9689045,25.8986557 14.9081932,26.3345831 14.8269903,26.7698809 C14.7585151,27.138045 14.674003,27.5055793 14.579436,27.872106 C14.2383329,29.1936175 13.9463588,29.9935526 13.4601596,31.2421366 C13.1241476,30.9266213 11.8291013,30.5582053 11.4459967,30.8243465 L12.4290864,27.2414534 C12.5107984,26.8698885 12.5841101,26.497316 12.6496579,26.1239877 C12.7246242,25.6967511 12.7919539,25.2688847 12.8413375,24.8398847 C12.924195,24.1189228 11.7823905,24.1247167 11.7001694,24.8398847 C11.6666955,25.1300831 11.6259668,25.4202816 11.5788742,25.7101022 C10.7191161,25.3469763 9.89015923,24.9164648 9.11325872,24.3972816 C6.7226096,22.7998045 5.47160122,20.5141137 4.96440127,17.8446404 C5.66417175,18.2877473 6.42312616,18.6343732 7.16057071,18.8724267 C9.54065582,19.6408732 12.4813973,18.629461 14.2882256,17.0214038 C14.8355179,16.5344648 14.026289,15.7379305 13.4812876,16.2229801 C12.0734737,17.4757205 9.70280708,18.3431671 7.82101251,17.8868351 C5.85228756,17.4093427 3.45209264,15.8182893 3.23712132,13.6827358 C6.58629563,14.633816 11.1180031,13.0397396 9.49941798,9.03049154 C9.49356323,9.01600681 9.14635081,8.43006788 9.27833735,8.60564803 C9.31372044,8.58045719 9.34821258,8.55085795 9.38117739,8.51395337 C10.042001,7.77321673 10.8950133,7.19093047 11.8397926,6.74127398 C11.9673244,6.68056406 12.0956199,6.62098772 12.2265882,6.56519001 C12.9992886,6.23556788 13.8227726,5.9915946 14.6504567,5.8221862 C14.5505441,6.07988849 14.4764687,6.34237704 14.4412129,6.60700681 C14.3456276,7.32544956 15.4876867,7.31839612 15.582381,6.60700681 C15.6222188,6.30773963 15.7853882,5.95733505 15.9920865,5.60919765 C16.2514776,5.17175872 16.5784529,4.73872818 16.8163342,4.41414421 C16.8248618,4.40255643 16.8340257,4.39021292 16.8421715,4.37887704 C17.7958601,3.07298391 19.4239911,1.17976635 20.1737815,1.46593429 C21.1919997,1.84379689 21.1423616,3.50374727 21.2687479,4.78860605 C21.3069311,5.17767856 21.3267864,5.56813658 21.3278046,5.95998009 C21.3313684,7.16888849 21.4151168,7.38200299 21.0638315,8.60589994 C20.8628607,9.30620528 21.9580817,9.60345719 22.1642709,8.90604879 C22.4647725,7.88959841 22.4647725,7.51173582 22.4620997,6.27448772 C23.4580444,6.59038085 24.4224244,7.00124345 25.3323296,7.50556406 C27.58081,8.75150299 29.4381674,10.6255755 30.1291557,13.1337015 C30.7643966,15.439545 30.7304136,17.8965335 30.0496074,20.1841137 M8.46159905,29.2096137 C8.23351817,28.5319801 7.77697457,28.3061442 6.86401465,28.5319801 C7.61278688,27.3374305 7.9543991,26.5573961 8.32273954,25.2216518 C8.78284691,25.5404419 9.26242769,25.8300106 9.75740903,26.092877 C9.40816018,27.2147511 9.08563955,28.2099152 8.46159905,29.2096137 M8.43397989,9.42510605 C10.4963809,14.8690984 -1.85091517,13.2617969 1.68701134,8.19869001 C3.22095711,6.00356024 7.37834214,7.42356788 8.43397989,9.42510605 Z M7.91010661,4.11588467 C8.06513033,3.80162895 8.29690226,3.21934269 8.53567443,2.82812895 C8.85844961,3.09804879 9.28902864,3.57440757 9.51240027,3.80956406 C10.0991485,4.42699154 10.6488591,5.10815185 11.0170723,5.87760605 C10.0848935,6.35875108 8.57054841,7.72094574 8.56825741,7.72359078 C8.11578669,7.28426253 7.57116721,6.92352971 6.97818237,6.65008314 C7.05505785,5.77621292 7.53094759,4.88269383 7.91010661,4.11588467 M38.4800725,8.81876253 C38.9018694,9.81191139 38.9657626,10.9237091 38.0615848,11.6833389 C37.8041029,11.8996022 37.3400499,12.0964686 36.8483778,12.1989954 C36.8380683,11.6480717 36.660262,11.1074763 36.2752482,10.6770908 C35.7494658,10.0891366 34.6836458,9.68835032 33.969493,10.1946862 C33.2693407,10.6910717 33.5014945,11.6682244 33.940092,12.2544152 C34.3043595,12.7414801 34.8344694,13.0682053 35.4142174,13.2451709 C35.2665758,13.473148 35.0792236,13.6779496 34.8804165,13.850003 C33.9504014,14.6547244 32.6031714,14.7043503 31.5115142,14.2043122 C30.995914,11.4708541 29.5508077,8.97078925 27.0815013,7.25730834 C25.6803057,6.28494192 24.0909943,5.5598236 22.4304077,5.08119765 C22.3049123,3.303732 22.2967665,2.07051444 21.319277,0.458300702 C20.9374452,-0.17147029 19.7919497,-0.0455160919 19.4101178,0.206392305 C17.7103298,1.32788849 17.0534518,2.16535795 15.8567908,3.80893429 C15.6849665,4.0448465 15.50436,4.29612513 15.3307538,4.55848772 C14.2169503,4.71744192 13.0948738,4.99617856 12.0463636,5.41144956 C11.5440002,4.36691139 10.7869549,3.45235795 9.95519792,2.64222055 C9.54574691,2.24357551 8.71322623,1.22536177 8.05291171,1.65083505 C7.49849189,2.00804116 7.14173367,3.09943429 6.8721604,3.6518694 C6.47403707,4.4678007 6.04129432,5.34910223 5.88436144,6.25949918 C3.31425135,5.58614803 0.383437455,6.44276253 0.0298611746,9.46591521 C-0.180019058,11.2613923 0.738668339,12.5095984 2.08717111,13.2255221 C2.0339692,14.675003 2.68982902,15.8788732 3.66604575,16.8300793 C4.0164401,19.7888694 5.02218515,22.4704343 7.33417692,24.4586213 C6.99549208,26.1401099 5.89950743,27.7685717 4.99482054,29.2077244 C4.74217514,29.6097702 5.08493285,30.0060221 5.48751088,30.0574114 C6.50420179,30.1868923 7.52051086,30.3193961 8.53669265,30.451774 C8.73460882,30.4775946 8.93048855,30.3243083 9.02938299,30.1721557 C9.75002695,29.0642625 10.3815768,27.8582511 10.7954825,26.598961 C10.9830892,26.6824686 11.1717141,26.7637091 11.3622482,26.841045 C11.0155449,28.4613198 10.5133088,30.0658503 10.0207457,31.6268007 C9.93356078,31.9033961 10.1239676,32.2624915 10.4192509,32.3214381 C11.4363236,32.5246022 12.4523781,32.7320488 13.4685599,32.9394954 C13.7943898,33.0061251 14.0525081,32.8460373 14.1704941,32.5451328 C14.7259322,31.1267625 15.2883705,29.643148 15.6772025,28.1342167 C18.082234,28.6700259 20.61327,28.9555641 23.0232652,28.4763083 C24.5354466,29.9364954 26.5480822,31.0247396 28.4095124,31.460919 C28.6699217,31.5218809 28.9081848,31.4167091 29.0539172,31.2014534 C29.6117736,30.377461 30.1696299,29.5534686 30.7276135,28.7294763 C30.9811498,28.3551404 30.6403012,27.8976747 30.2349231,27.8797893 C29.0702087,27.8285259 28.0558088,27.3239534 27.3368195,26.4445412 C29.0545536,25.0380106 30.3007255,23.0814381 31.0206058,20.8972664 C31.6074813,19.1167778 31.8339076,17.2506404 31.6799021,15.4473541 C33.5842247,15.9667893 35.7849761,15.3413007 36.6120239,13.3921595 C36.6551709,13.3898923 36.6989543,13.3917816 36.7417194,13.387877 C39.261555,13.1614114 40.5236365,10.7399419 39.5805119,8.51848772 C39.3002473,7.85848772 38.1956078,8.14856024 38.4800725,8.81876253 Z" id="Fill-94"></path>
            </g>
        </g>
    </g>
</svg>