<?xml version="1.0" encoding="UTF-8" standalone="no"?>
<svg width="176px" height="33px" viewBox="0 0 176 33" version="1.1" xmlns="http://www.w3.org/2000/svg" xmlns:xlink="http://www.w3.org/1999/xlink">
    <!-- Generator: Sketch 47.1 (45422) - http://www.bohemiancoding.com/sketch -->
    <title>Group 6</title>
    <desc>Created with Sketch.</desc>
    <defs></defs>
    <g id="Page-2" stroke="none" stroke-width="1" fill="none" fill-rule="evenodd">
        <g id="01_Home" transform="translate(-48.000000, -4057.000000)" fill="#000000">
            <g id="Group-6" transform="translate(48.000000, 4057.000000)">
                <g id="logo" transform="translate(49.187773, 4.604651)">
                    <path d="M7.2425944,4.1983197 C6.55880298,3.98071593 5.99933727,3.88745718 5.59496789,3.88745718 C4.19630362,3.88745718 3.5125122,4.63352724 3.5125122,6.09489197 L3.5125122,8.70613719 L5.50172361,7.99115338 C5.78176727,7.89758376 6.0304187,7.86680837 6.2479887,7.86680837 C7.2425944,7.86680837 7.98854868,8.61287843 7.98854868,9.60763851 C7.98854868,10.4158811 7.55340868,10.9757445 6.65204726,11.286607 L3.5125122,12.4054012 L3.5125122,22.0427613 C3.5125122,23.255436 2.70439507,23.9393335 1.74087079,23.9393335 C1.27464937,23.9393335 0.870590804,23.7839023 0.559776522,23.4730397 C0.186799384,23.1307801 0,22.6337109 0,22.0427613 L0,6.00163321 C0,3.85637092 0.68379142,2.27097204 2.05168508,1.30698735 C2.98412792,0.654486908 4.13414077,0.312227267 5.53311585,0.312227267 C6.71421012,0.312227267 7.83314154,0.560917287 8.85882867,1.02752194 C9.72910866,1.43164322 10.1642487,2.08414366 10.1642487,3.0170421 C10.1642487,4.01180219 9.69802723,4.50918223 8.73450295,4.50918223 C8.42368867,4.50918223 7.92638582,4.41592347 7.2425944,4.1983197" id="Fill-37"></path>
                    <path d="M22.4412263,21.4524022 C20.1719712,22.7269386 17.5611313,23.5662674 14.6080848,23.9393025 C13.3648276,24.0947337 12.4631554,23.3175774 12.4631554,22.0427302 L12.4631554,2.20876845 C12.4631554,1.61781879 12.6499548,1.151525 13.0229319,0.809887084 C13.3337462,0.499024558 13.7378048,0.343593295 14.2040262,0.343593295 C15.1678613,0.343593295 15.9756676,1.0585771 15.9756676,2.20876845 L15.9756676,20.177555 C17.6543755,19.8977788 19.2706098,19.2760537 20.824992,18.3745524 C21.1665769,18.1880349 21.4773912,18.0947761 21.8195977,18.0947761 C22.7206483,18.0947761 23.4047506,18.9341049 23.4047506,19.8356062 C23.4047506,20.5195038 23.0939363,21.0479701 22.4412263,21.4524022" id="Fill-40"></path>
                    <path d="M37.515719,17.5040751 C37.515719,19.4935953 36.9251718,21.079305 35.7748482,22.2605826 C34.6869982,23.410774 33.3194154,23.9703265 31.6717889,23.9392403 C29.7447403,23.9084649 27.8484624,23.3796877 25.9524952,22.3227551 C25.3308667,21.9497201 25.0200524,21.4212538 25.0200524,20.7370454 C25.0200524,19.8355441 25.7038438,19.0273015 26.6052052,19.0273015 C26.9160195,19.0273015 27.2268338,19.1205603 27.5690403,19.3070778 C28.6568903,19.9291137 29.7758217,20.2399762 30.956916,20.2399762 C33.0086011,20.2399762 34.0342882,19.2759915 34.0342882,17.3797301 L34.0342882,12.032273 C33.0704531,12.3123601 32.044766,12.4677914 30.956916,12.4677914 C29.0609489,12.4367051 27.5068775,11.9082388 26.2633095,10.8820816 C25.0200524,9.85623527 24.3984238,8.45735391 24.3984238,6.71652376 C24.3984238,6.49892 24.3984238,6.25022997 24.4291945,6.03262621 L24.8024824,2.02218876 C24.9268081,0.933859059 25.6727624,0.312134008 26.5430424,0.312134008 C27.7555289,0.312134008 28.346076,1.46232535 28.2217503,2.70608632 L27.910936,5.90797033 C27.8176918,6.87195503 28.0971138,7.61802509 28.7501346,8.17757763 C29.3096003,8.67526854 30.086636,8.95473395 31.0501603,8.98613106 C32.044766,9.01690645 33.0396825,8.86147519 34.0342882,8.48844016 L34.0342882,2.17762002 C34.0342882,1.02742868 34.8113239,0.312134008 35.7748482,0.312134008 C36.6765204,0.312134008 37.515719,1.02742868 37.515719,2.17762002 L37.515719,17.5040751 Z" id="Fill-42"></path>
                    <path d="M43.6685674,22.0118926 C43.6685674,23.2242565 42.8604503,23.9392403 41.896926,23.9392403 C41.4307046,23.9392403 41.026646,23.783809 40.7158317,23.4729465 C40.3428546,23.0999115 40.1560552,22.6025314 40.1560552,22.0118926 L40.1560552,2.20870628 C40.1560552,1.61806748 40.3428546,1.12068744 40.7158317,0.778427797 C41.026646,0.467565271 41.4307046,0.312134008 41.896926,0.312134008 C42.8604503,0.312134008 43.6685674,0.996342427 43.6685674,2.20870628 L43.6685674,22.0118926 Z" id="Fill-44"></path>
                    <path d="M60.0178649,22.0118926 C60.0178649,23.2242565 59.2097478,23.9392403 58.2462235,23.9392403 C57.3445512,23.9392403 56.5053527,23.2242565 56.5053527,22.0118926 L56.5053527,15.0168641 C56.5053527,14.2397077 55.8218721,12.9029989 54.422897,10.9756512 L51.2211991,6.62326501 C49.8846977,10.8820816 49.2009062,15.0168641 49.2009062,18.9962153 C49.2009062,19.8355441 49.2319877,20.6440975 49.2941505,21.4212538 C49.4184762,22.9133939 49.0147285,23.7530336 48.0819748,23.9084649 C47.6157534,24.0014128 47.149532,23.9084649 46.7454734,23.5662052 C46.279252,23.2242565 45.9992083,22.6957902 45.9062749,21.9804955 C45.7508677,20.7995288 45.688394,19.5868541 45.688394,18.343404 C45.688394,13.4003789 46.776244,7.89780136 48.9833362,1.77349874 C49.3255428,0.840911164 49.8846977,0.343531123 50.724207,0.312134008 C51.3458356,0.281358618 51.9049905,0.622996534 52.4336856,1.40015285 L55.3553398,6.18805747 C56.0083606,7.21359294 56.3499455,7.71128385 56.3813378,7.71128385 C56.4745821,7.71128385 56.5053527,7.21359294 56.5053527,6.18805747 L56.5053527,2.20870628 C56.5053527,1.05851493 57.3445512,0.343531123 58.2462235,0.343531123 C59.2097478,0.343531123 60.0178649,1.05851493 60.0178649,2.20870628 L60.0178649,22.0118926 Z" id="Fill-46"></path>
                    <path d="M75.8068885,20.0222481 C75.8068885,22.7581492 73.9106106,24.2502893 71.0511192,24.2502893 C68.7818641,24.2502893 66.7926527,23.0376146 65.0831742,20.6439732 C63.3733848,18.2189346 62.5341862,15.3900856 62.5341862,12.1260291 C62.5341862,8.86166171 63.3733848,6.03250186 65.0831742,3.63886041 C66.7926527,1.21382185 68.7818641,0.00145799964 71.0511192,0.00145799964 C72.1389692,0.00145799964 73.1335749,0.281234273 74.0352471,0.809700567 C74.9984606,1.40033937 75.4960742,2.05315067 75.4960742,2.76813448 C75.4960742,3.6074633 74.6876463,4.13592959 73.7862849,4.13592959 C73.4133077,4.13592959 72.9470863,4.01189544 72.3565392,3.79429168 C71.765992,3.54560166 71.330852,3.42125665 70.9889563,3.42125665 C69.4659663,3.35877328 68.191317,4.54005088 67.1656298,6.99648655 C66.3885941,8.92383421 65.9842248,10.6335781 66.015617,12.1260291 C66.0777799,14.3950147 66.6058533,16.4159319 67.6007698,18.1881592 C68.626457,19.9600756 69.7767806,20.8304907 71.0511192,20.8304907 C71.8903177,20.8304907 72.3254577,20.5196281 72.3254577,19.8668168 L72.3254577,12.7477541 C72.3254577,11.5350794 73.1646563,10.8511819 74.0660177,10.8511819 C75.0298528,10.8511819 75.8068885,11.5350794 75.8068885,12.7477541 L75.8068885,20.0222481 Z" id="Fill-48"></path>
                    <path d="M87.0265381,4.63365158 C86.435991,4.16735779 85.6897259,3.94975403 84.7883645,3.91835691 C84.0113288,3.91835691 83.3897002,4.07378817 82.861316,4.41604781 C82.270458,4.78908285 81.991036,5.28646289 81.991036,5.90818794 L81.991036,10.8822992 C82.8920866,10.9444717 83.7937588,10.851213 84.6951202,10.5714367 C86.653561,9.94971164 87.8657367,8.39539901 87.958981,6.80968926 C88.0211438,5.90818794 87.7100188,5.16211788 87.0265381,4.63365158 M88.829261,12.1260602 C87.0576196,13.6492866 84.7883645,14.3328732 81.991036,14.2088391 L81.991036,22.0428856 C81.991036,23.2552495 81.2140003,23.9394579 80.2501652,23.9394579 C79.2866409,23.9394579 78.5096052,23.2552495 78.5096052,22.0428856 L78.5096052,5.78384293 C78.5096052,2.08426801 80.5609795,0.249868244 84.6329574,0.312351612 C86.4667616,0.343437864 88.0522253,0.965162916 89.3887267,2.11535426 C90.8495538,3.38989062 91.5333452,5.00668661 91.440101,6.90294802 C91.3468567,8.98603781 90.4768875,10.7268679 88.829261,12.1260602" id="Fill-51"></path>
                    <path d="M96.7853296,22.0118926 C96.7853296,23.2242565 95.9772124,23.9392403 95.0136882,23.9392403 C94.5474667,23.9392403 94.1434082,23.783809 93.8325939,23.4729465 C93.4596167,23.0999115 93.2728174,22.6025314 93.2728174,22.0118926 L93.2728174,2.20870628 C93.2728174,1.61806748 93.4596167,1.12068744 93.8325939,0.778427797 C94.1434082,0.467565271 94.5474667,0.312134008 95.0136882,0.312134008 C95.9772124,0.312134008 96.7853296,0.996342427 96.7853296,2.20870628 L96.7853296,22.0118926 Z" id="Fill-53"></path>
                    <path d="M112.699674,20.0222481 C112.699674,22.7581492 110.803396,24.2502893 107.943904,24.2502893 C105.674649,24.2502893 103.685438,23.0376146 101.975959,20.6439732 C100.26617,18.2189346 99.4269712,15.3900856 99.4269712,12.1260291 C99.4269712,8.86166171 100.26617,6.03250186 101.975959,3.63886041 C103.685438,1.21382185 105.674649,0.00145799964 107.943904,0.00145799964 C109.031754,0.00145799964 110.02636,0.281234273 110.928032,0.809700567 C111.891246,1.40033937 112.388859,2.05315067 112.388859,2.76813448 C112.388859,3.6074633 111.580431,4.13592959 110.67907,4.13592959 C110.306093,4.13592959 109.839871,4.01189544 109.249324,3.79429168 C108.658777,3.54560166 108.223637,3.42125665 107.881741,3.42125665 C106.358751,3.35877328 105.084102,4.54005088 104.058415,6.99648655 C103.281379,8.92383421 102.87701,10.6335781 102.908402,12.1260291 C102.970565,14.3950147 103.498638,16.4159319 104.493555,18.1881592 C105.519242,19.9600756 106.669566,20.8304907 107.943904,20.8304907 C108.783103,20.8304907 109.218243,20.5196281 109.218243,19.8668168 L109.218243,12.7477541 C109.218243,11.5350794 110.057441,10.8511819 110.958803,10.8511819 C111.922638,10.8511819 112.699674,11.5350794 112.699674,12.7477541 L112.699674,20.0222481 Z" id="Fill-55"></path>
                    <path d="M124.509715,22.6336177 C123.390783,23.7216365 121.991808,24.2501028 120.28233,24.2501028 C118.199874,24.2501028 116.272826,23.4421711 114.500873,21.8250642 C113.910326,21.2965979 113.630593,20.70627 113.630593,20.084545 C113.630593,19.2452161 114.252222,18.5610077 115.09142,18.5610077 C115.557642,18.5610077 115.993093,18.7475252 116.459314,19.1205603 C117.733653,20.1464066 118.97691,20.6748729 120.189396,20.6440975 C121.898875,20.6440975 122.986725,19.5246815 122.955643,17.8149377 C122.924562,16.2917113 122.271852,14.7060015 121.059366,13.0273439 L117.640098,8.9236477 C116.428233,7.33824882 115.837686,5.90797033 115.837686,4.57126147 C115.837686,3.29672512 116.303907,2.20870628 117.267431,1.33829121 C118.230956,0.467565271 119.318806,0.0326685972 120.562373,0.00127148213 C122.396178,-0.0295039079 123.794842,0.498962386 124.758677,1.52480872 C125.318143,2.11544752 125.597565,2.70608632 125.597565,3.32781137 C125.597565,4.19822644 124.975936,4.882124 124.105656,4.882124 C123.608353,4.882124 123.173213,4.66452023 122.831318,4.22931269 C122.365096,3.6386739 121.743468,3.32781137 121.028595,3.29672512 C120.189396,3.26563887 119.349887,3.70115726 119.349887,4.47831358 C119.349887,4.882124 119.723175,5.56633242 120.500211,6.49892 C122.706992,9.20342397 124.074886,10.9134787 124.541107,11.690635 C125.970542,13.9288452 126.623563,15.9808488 126.530319,17.8771102 C126.405993,19.8977166 125.721891,21.4834263 124.509715,22.6336177" id="Fill-58"></path>
                </g>
                <g id="Group">
                    <path d="M3.62202054,10.224361 C3.17667734,10.224361 2.94363264,9.87710528 2.94363264,9.534132 C2.94363264,9.35603276 3.00345296,9.18889154 3.11214776,9.06356711 C3.23726132,8.91934956 3.41354036,8.84314727 3.62202054,8.84314727 C3.830628,8.84314727 4.00690703,8.9192236 4.13202059,9.06331521 C4.24058811,9.18838772 4.30053571,9.35540299 4.30053571,9.53337627 C4.30053571,9.87672742 4.06749101,10.224361 3.62202054,10.224361" id="Fill-60"></path>
                    <path d="M5.43074522,11.0339064 C5.37283406,11.0339064 5.3126319,11.0255935 5.25064787,11.007582 C4.82312349,10.883769 4.71646513,10.4232805 4.8320329,10.0324446 C4.94760067,9.64135681 5.28806739,9.31022322 5.7159736,9.43365834 C6.14349798,9.55747131 6.25002906,10.0178339 6.13458857,10.4086698 C6.03569412,10.7432041 5.77235743,11.0339064 5.43074522,11.0339064" id="Fill-62"></path>
                    <path d="M14.2097719,12.7430797 C13.3357588,12.7430797 12.5406576,12.1386255 12.234174,11.2166408 C12.0944235,10.7962057 12.3573784,10.4984499 12.6608074,10.3997018 C12.9972012,10.2902476 13.4328714,10.4062515 13.5764401,10.8377705 C13.6992627,11.2071942 14.0749852,11.3737057 14.3537225,11.3162705 C14.5922401,11.2670225 14.712899,11.0687705 14.6846434,10.7724003 C14.6445511,10.3489423 14.952053,10.1256255 15.2548456,10.0975377 C15.6287863,10.0629003 16.0364554,10.2971751 16.0792205,10.7488469 C16.1720057,11.7228507 15.4038873,12.6316102 14.4022151,12.7332553 C14.3378128,12.7399309 14.2735378,12.7430797 14.2097719,12.7430797" id="Fill-90"></path>
                    <path d="M27.9471395,12.7649202 C27.8495178,12.377611 27.379101,12.3339049 27.0881451,12.4874431 C25.1610399,13.5046492 23.4849254,14.1297599 21.3095021,14.3747408 C20.5819852,14.456611 20.6699338,15.5830194 21.4026691,15.5005194 C23.4914165,15.2654889 25.1812769,14.690256 26.9879779,13.8000118 C27.0477982,14.4602637 26.9065205,15.1077942 26.275607,15.498882 C26.0731088,15.6243324 25.8348458,15.7096034 25.6005283,15.7524278 C25.2058415,15.8247255 24.1793502,15.8607484 24.3202462,16.4374927 C24.4709425,17.0546683 24.552909,17.811527 24.4367049,18.4521301 C24.3101912,19.1491606 24.0221628,19.5183324 23.3244287,19.2103744 C23.0297818,19.0803896 22.746208,18.911737 22.4758711,18.7380461 C22.0848753,18.4871454 21.6425868,18.9080843 21.6554418,19.291237 C21.7006252,20.6254698 20.4321798,21.9690232 19.1255513,21.1450309 C18.3018128,20.6255957 17.2460477,19.4130347 17.3670884,18.3774393 C17.4509641,17.6596263 16.330415,17.4437408 16.2457756,18.1670957 C16.045823,19.8789393 17.6341162,21.9550423 19.2593197,22.4679278 C20.9062877,22.9876148 22.2812642,21.6410385 22.6783693,20.1502446 C23.5970567,20.5912102 24.5823101,20.7137637 25.2203511,19.6411377 C25.6864405,18.8574507 25.7032411,17.8471721 25.5656543,16.918008 C26.0353075,16.8483553 26.5134882,16.6600538 26.7724975,16.5152064 C28.1870572,15.7238362 28.3059341,14.1889583 27.9471395,12.7649202" id="Fill-92"></path>
                    <path d="M34.6833913,11.416316 C34.6444444,10.9336595 35.1422259,10.8114839 35.5743322,11.416316 C35.8288868,11.7941786 35.7138281,12.0014992 35.7184101,12.2212893 C35.3027225,12.1249343 34.7180107,11.8870068 34.6833913,11.416316 M30.0496074,20.1841137 C29.9981874,20.3567969 29.9421854,20.5280946 29.8837651,20.6987625 C29.8663281,20.7495221 29.8480002,20.7997778 29.8300541,20.8502854 C29.7858889,20.9746022 29.7396872,21.0981633 29.6915764,21.2209686 C29.6713393,21.2729877 29.6512295,21.3250068 29.6302288,21.376774 C29.5698993,21.525274 29.5070244,21.6726404 29.4410947,21.8184954 C29.4326944,21.8372625 29.4251851,21.8562816 29.4165302,21.8747969 C29.3418185,22.0381595 29.2629065,22.1991289 29.1811945,22.358587 C29.1580301,22.4039305 29.1335928,22.4485183 29.109792,22.4936099 C29.0479352,22.6106213 28.9841693,22.7263732 28.9183669,22.8411175 C28.8901114,22.8901137 28.8621104,22.9389839 28.8332184,22.9876022 C28.7579976,23.1143122 28.6803584,23.2392587 28.6001737,23.3625679 C28.5823549,23.3901518 28.5655543,23.4183656 28.5473537,23.4456976 C28.4493502,23.5939457 28.3471465,23.7391709 28.2420155,23.882003 C28.2140145,23.9199152 28.1847407,23.9566938 28.1563579,23.9941022 C28.0756641,24.1006595 27.9931884,24.2054534 27.9084217,24.308358 C27.8724023,24.3520641 27.8362555,24.3955183 27.7994724,24.4385946 C27.7094874,24.5441442 27.6169568,24.6475526 27.5226443,24.7490717 C27.4948979,24.7789228 27.4682969,24.8096557 27.4401686,24.839003 C27.318237,24.9668465 27.1927416,25.0909114 27.063937,25.2114496 C27.0331359,25.2401671 27.0011893,25.2673732 26.9698791,25.2957129 C26.8685664,25.3877854 26.7650899,25.4779686 26.6593225,25.5653809 C26.6155391,25.6016557 26.5715012,25.6371747 26.5269542,25.6725679 C26.4220777,25.7560755 26.3149102,25.8368122 26.2058336,25.9154076 C26.1849601,25.9303961 26.1654867,25.9468961 26.1446132,25.9617587 L26.059592,26.0397244 C25.9309147,26.1884763 25.9176778,26.4299305 26.1498316,26.7561518 C26.2376529,26.879461 26.3275107,26.9982358 26.4211867,27.1129801 C27.1627042,28.020858 27.5884467,28.4857549 28.7128141,28.7390488 C28.7128141,28.7390488 28.1671764,28.7443389 27.9084217,29.2446289 C27.6562855,29.7319457 27.6609947,30.102503 27.6609947,30.102503 C26.3117283,29.7164534 25.512427,29.1211938 24.3199661,28.1267854 C23.9844632,27.8470412 23.6697065,27.5489076 23.3838418,27.2352816 C22.765656,26.5571442 22.2818751,25.8074648 22.0161201,25.0172282 C21.7852391,24.3311557 20.6827634,24.6252587 20.9156808,25.317503 C21.1721445,26.0800297 21.5901231,26.807919 22.1199784,27.4812702 C20.0662322,27.7545908 17.9520293,27.4539381 15.9275569,27.0217893 C16.0273423,26.5037396 16.1033269,25.9840526 16.1452011,25.4638618 C16.2033668,24.7392473 15.0618169,24.7430259 15.0039057,25.4638618 C14.9689045,25.8986557 14.9081932,26.3345831 14.8269903,26.7698809 C14.7585151,27.138045 14.674003,27.5055793 14.579436,27.872106 C14.2383329,29.1936175 13.9463588,29.9935526 13.4601596,31.2421366 C13.1241476,30.9266213 11.8291013,30.5582053 11.4459967,30.8243465 L12.4290864,27.2414534 C12.5107984,26.8698885 12.5841101,26.497316 12.6496579,26.1239877 C12.7246242,25.6967511 12.7919539,25.2688847 12.8413375,24.8398847 C12.924195,24.1189228 11.7823905,24.1247167 11.7001694,24.8398847 C11.6666955,25.1300831 11.6259668,25.4202816 11.5788742,25.7101022 C10.7191161,25.3469763 9.89015923,24.9164648 9.11325872,24.3972816 C6.7226096,22.7998045 5.47160122,20.5141137 4.96440127,17.8446404 C5.66417175,18.2877473 6.42312616,18.6343732 7.16057071,18.8724267 C9.54065582,19.6408732 12.4813973,18.629461 14.2882256,17.0214038 C14.8355179,16.5344648 14.026289,15.7379305 13.4812876,16.2229801 C12.0734737,17.4757205 9.70280708,18.3431671 7.82101251,17.8868351 C5.85228756,17.4093427 3.45209264,15.8182893 3.23712132,13.6827358 C6.58629563,14.633816 11.1180031,13.0397396 9.49941798,9.03049154 C9.49356323,9.01600681 9.14635081,8.43006788 9.27833735,8.60564803 C9.31372044,8.58045719 9.34821258,8.55085795 9.38117739,8.51395337 C10.042001,7.77321673 10.8950133,7.19093047 11.8397926,6.74127398 C11.9673244,6.68056406 12.0956199,6.62098772 12.2265882,6.56519001 C12.9992886,6.23556788 13.8227726,5.9915946 14.6504567,5.8221862 C14.5505441,6.07988849 14.4764687,6.34237704 14.4412129,6.60700681 C14.3456276,7.32544956 15.4876867,7.31839612 15.582381,6.60700681 C15.6222188,6.30773963 15.7853882,5.95733505 15.9920865,5.60919765 C16.2514776,5.17175872 16.5784529,4.73872818 16.8163342,4.41414421 C16.8248618,4.40255643 16.8340257,4.39021292 16.8421715,4.37887704 C17.7958601,3.07298391 19.4239911,1.17976635 20.1737815,1.46593429 C21.1919997,1.84379689 21.1423616,3.50374727 21.2687479,4.78860605 C21.3069311,5.17767856 21.3267864,5.56813658 21.3278046,5.95998009 C21.3313684,7.16888849 21.4151168,7.38200299 21.0638315,8.60589994 C20.8628607,9.30620528 21.9580817,9.60345719 22.1642709,8.90604879 C22.4647725,7.88959841 22.4647725,7.51173582 22.4620997,6.27448772 C23.4580444,6.59038085 24.4224244,7.00124345 25.3323296,7.50556406 C27.58081,8.75150299 29.4381674,10.6255755 30.1291557,13.1337015 C30.7643966,15.439545 30.7304136,17.8965335 30.0496074,20.1841137 M8.46159905,29.2096137 C8.23351817,28.5319801 7.77697457,28.3061442 6.86401465,28.5319801 C7.61278688,27.3374305 7.9543991,26.5573961 8.32273954,25.2216518 C8.78284691,25.5404419 9.26242769,25.8300106 9.75740903,26.092877 C9.40816018,27.2147511 9.08563955,28.2099152 8.46159905,29.2096137 M8.43397989,9.42510605 C10.4963809,14.8690984 -1.85091517,13.2617969 1.68701134,8.19869001 C3.22095711,6.00356024 7.37834214,7.42356788 8.43397989,9.42510605 Z M7.91010661,4.11588467 C8.06513033,3.80162895 8.29690226,3.21934269 8.53567443,2.82812895 C8.85844961,3.09804879 9.28902864,3.57440757 9.51240027,3.80956406 C10.0991485,4.42699154 10.6488591,5.10815185 11.0170723,5.87760605 C10.0848935,6.35875108 8.57054841,7.72094574 8.56825741,7.72359078 C8.11578669,7.28426253 7.57116721,6.92352971 6.97818237,6.65008314 C7.05505785,5.77621292 7.53094759,4.88269383 7.91010661,4.11588467 M38.4800725,8.81876253 C38.9018694,9.81191139 38.9657626,10.9237091 38.0615848,11.6833389 C37.8041029,11.8996022 37.3400499,12.0964686 36.8483778,12.1989954 C36.8380683,11.6480717 36.660262,11.1074763 36.2752482,10.6770908 C35.7494658,10.0891366 34.6836458,9.68835032 33.969493,10.1946862 C33.2693407,10.6910717 33.5014945,11.6682244 33.940092,12.2544152 C34.3043595,12.7414801 34.8344694,13.0682053 35.4142174,13.2451709 C35.2665758,13.473148 35.0792236,13.6779496 34.8804165,13.850003 C33.9504014,14.6547244 32.6031714,14.7043503 31.5115142,14.2043122 C30.995914,11.4708541 29.5508077,8.97078925 27.0815013,7.25730834 C25.6803057,6.28494192 24.0909943,5.5598236 22.4304077,5.08119765 C22.3049123,3.303732 22.2967665,2.07051444 21.319277,0.458300702 C20.9374452,-0.17147029 19.7919497,-0.0455160919 19.4101178,0.206392305 C17.7103298,1.32788849 17.0534518,2.16535795 15.8567908,3.80893429 C15.6849665,4.0448465 15.50436,4.29612513 15.3307538,4.55848772 C14.2169503,4.71744192 13.0948738,4.99617856 12.0463636,5.41144956 C11.5440002,4.36691139 10.7869549,3.45235795 9.95519792,2.64222055 C9.54574691,2.24357551 8.71322623,1.22536177 8.05291171,1.65083505 C7.49849189,2.00804116 7.14173367,3.09943429 6.8721604,3.6518694 C6.47403707,4.4678007 6.04129432,5.34910223 5.88436144,6.25949918 C3.31425135,5.58614803 0.383437455,6.44276253 0.0298611746,9.46591521 C-0.180019058,11.2613923 0.738668339,12.5095984 2.08717111,13.2255221 C2.0339692,14.675003 2.68982902,15.8788732 3.66604575,16.8300793 C4.0164401,19.7888694 5.02218515,22.4704343 7.33417692,24.4586213 C6.99549208,26.1401099 5.89950743,27.7685717 4.99482054,29.2077244 C4.74217514,29.6097702 5.08493285,30.0060221 5.48751088,30.0574114 C6.50420179,30.1868923 7.52051086,30.3193961 8.53669265,30.451774 C8.73460882,30.4775946 8.93048855,30.3243083 9.02938299,30.1721557 C9.75002695,29.0642625 10.3815768,27.8582511 10.7954825,26.598961 C10.9830892,26.6824686 11.1717141,26.7637091 11.3622482,26.841045 C11.0155449,28.4613198 10.5133088,30.0658503 10.0207457,31.6268007 C9.93356078,31.9033961 10.1239676,32.2624915 10.4192509,32.3214381 C11.4363236,32.5246022 12.4523781,32.7320488 13.4685599,32.9394954 C13.7943898,33.0061251 14.0525081,32.8460373 14.1704941,32.5451328 C14.7259322,31.1267625 15.2883705,29.643148 15.6772025,28.1342167 C18.082234,28.6700259 20.61327,28.9555641 23.0232652,28.4763083 C24.5354466,29.9364954 26.5480822,31.0247396 28.4095124,31.460919 C28.6699217,31.5218809 28.9081848,31.4167091 29.0539172,31.2014534 C29.6117736,30.377461 30.1696299,29.5534686 30.7276135,28.7294763 C30.9811498,28.3551404 30.6403012,27.8976747 30.2349231,27.8797893 C29.0702087,27.8285259 28.0558088,27.3239534 27.3368195,26.4445412 C29.0545536,25.0380106 30.3007255,23.0814381 31.0206058,20.8972664 C31.6074813,19.1167778 31.8339076,17.2506404 31.6799021,15.4473541 C33.5842247,15.9667893 35.7849761,15.3413007 36.6120239,13.3921595 C36.6551709,13.3898923 36.6989543,13.3917816 36.7417194,13.387877 C39.261555,13.1614114 40.5236365,10.7399419 39.5805119,8.51848772 C39.3002473,7.85848772 38.1956078,8.14856024 38.4800725,8.81876253 Z" id="Fill-94"></path>
                </g>
            </g>
        </g>
    </g>
</svg>