<svg width="32" height="38" viewBox="0 0 32 38" xmlns="http://www.w3.org/2000/svg"><title>android</title><g fill="#E3E3E3" fill-rule="evenodd"><path d="M26.03 28.933c0 .851-.69 1.541-1.549 1.541H6.55c-.856 0-1.549-.69-1.549-1.54V13.012c4.7-.017 15.666-.017 21.03 0v15.92zM12.134 4.686a.355.355 0 0 1-.155.478.36.36 0 0 1-.48-.154L9.233.62a.358.358 0 0 1 .636-.323l2.265 4.39zm8.256.185a.355.355 0 0 1-.488.128.35.35 0 0 1-.129-.483L22.255.245a.356.356 0 0 1 .487-.13.35.35 0 0 1 .132.483L20.39 4.871zm11.606 19.582a2.25 2.25 0 0 1-2.258 2.243 2.252 2.252 0 0 1-2.26-2.243v-9.819a2.25 2.25 0 0 1 2.26-2.243 2.248 2.248 0 0 1 2.258 2.243v9.819zm-27.476 0a2.252 2.252 0 0 1-2.257 2.243 2.25 2.25 0 0 1-2.26-2.243v-9.819a2.25 2.25 0 0 1 2.26-2.243 2.25 2.25 0 0 1 2.257 2.243v9.819z"/><path d="M14.352 35.689a2.252 2.252 0 0 1-2.261 2.244 2.25 2.25 0 0 1-2.255-2.244v-9.818a2.252 2.252 0 0 1 2.255-2.246 2.254 2.254 0 0 1 2.26 2.246v9.818zm7.832 0a2.252 2.252 0 0 1-2.26 2.244 2.251 2.251 0 0 1-2.258-2.244v-9.818a2.253 2.253 0 0 1 2.258-2.246 2.254 2.254 0 0 1 2.26 2.246v9.818zM16.007 2.358c-5.492 0-10.015 4.154-10.62 9.492h21.238c-.603-5.338-5.123-9.492-10.618-9.492zm-4.792 5.755a.88.88 0 0 1-.886-.877.88.88 0 0 1 .886-.875c.485 0 .88.391.88.875a.879.879 0 0 1-.88.877zm9.602 0a.88.88 0 0 1-.884-.877.88.88 0 0 1 .884-.875.877.877 0 1 1 0 1.752z"/></g></svg>