<svg width="33" height="40" viewBox="0 0 33 40" xmlns="http://www.w3.org/2000/svg"><title>apple</title><g fill="#E3E3E3" fill-rule="evenodd"><path d="M24.301 3.776a9.765 9.765 0 0 1-1.759 3.16 8.653 8.653 0 0 1-2.894 2.244c-1.034.488-2.166.751-3.293.664l-.345-.026-.045-.34c-.147-1.098.023-2.21.379-3.238a9.685 9.685 0 0 1 1.805-3.116c.745-.865 1.745-1.618 2.815-2.164 1.074-.547 2.227-.89 3.277-.932l.397-.016.044.393c.127 1.15-.028 2.297-.38 3.371z"/><path d="M31.597 14.1c-.38.234-4.057 2.489-4.012 7.035.048 5.48 4.736 7.38 4.995 7.484h.002l.011.005.368.15-.126.374c-.008.022 0-.001-.01.033-.12.38-.93 2.955-2.762 5.608-.832 1.204-1.678 2.405-2.678 3.332-1.036.96-2.218 1.608-3.679 1.635-1.376.025-2.278-.361-3.214-.763-.894-.383-1.823-.782-3.277-.782-1.527 0-2.504.413-3.444.81-.885.374-1.741.735-2.975.784h-.001c-1.425.052-2.66-.636-3.757-1.655-1.05-.975-1.97-2.252-2.809-3.454C2.337 31.987.691 28.046.183 24.039c-.419-3.296-.07-6.645 1.539-9.41a10.367 10.367 0 0 1 3.618-3.691 9.728 9.728 0 0 1 4.87-1.402c1.521-.028 2.956.537 4.212 1.031.89.35 1.681.661 2.275.661.524 0 1.297-.302 2.198-.654 1.522-.595 3.385-1.323 5.354-1.129.826.036 2.549.232 4.31 1.178a9.037 9.037 0 0 1 3.194 2.864l.246.357-.368.236c-.02.013 0 0-.034.02z"/></g></svg>