<svg xmlns="http://www.w3.org/2000/svg" viewBox="0 0 30.89 22.79"><title>icon_026</title><path d="M28.82 13c0-.45-.5-.57-.86-.57h-17.6a3.73 3.73 0 0 0-2.54 1.2L3.06 19.5a1.13 1.13 0 0 0-.29.65c0 .45.5.57.86.57h17.6a3.68 3.68 0 0 0 2.54-1.21l4.76-5.87a1 1 0 0 0 .29-.64zm-18.46-2.64h12.43V7.79a1.55 1.55 0 0 0-1.55-1.55h-9.33a1.55 1.55 0 0 1-1.55-1.55v-1A1.55 1.55 0 0 0 8.8 2.08H3.63a1.55 1.55 0 0 0-1.56 1.55v13.8l4.14-5.1a5.78 5.78 0 0 1 4.15-1.97zM30.9 13a3.18 3.18 0 0 1-.74 1.94l-4.78 5.85a5.84 5.84 0 0 1-4.14 2H3.63A3.64 3.64 0 0 1 0 19.16V3.63A3.64 3.64 0 0 1 3.63 0H8.8a3.64 3.64 0 0 1 3.63 3.63v.52h8.8a3.64 3.64 0 0 1 3.63 3.64v2.59H28a2.88 2.88 0 0 1 2.69 1.54 2.54 2.54 0 0 1 .2 1.08z"/></svg>