<svg width="149" height="149" viewBox="0 0 149 149" xmlns="http://www.w3.org/2000/svg"><title>brainstorm</title><path d="M138.69 24.405V7.738l5.715 4.286 2.857-3.81L136.309 0l-10.952 8.215 2.857 3.809 5.714-4.286v16.667c0 6.564-5.34 11.905-11.904 11.905H112.5c-7.534 0-13.907 4.762-15.965 11.905h-3.409l-.088 4.762h2.795v7.422a25.24 25.24 0 0 0-3.572-.279c-5.538 0-10.862 1.85-15.233 5.255A16.662 16.662 0 0 0 64.88 60.12c-1.63 0-3.23.26-4.761.719V45.834c0-7.878-6.407-14.285-14.286-14.285h-2.381v-4.763H38.69v4.763h-7.142c-7.879 0-14.286 6.407-14.286 14.285v4.762a4.767 4.767 0 0 1-4.762 4.762H7.738l4.286-5.715-3.81-2.857L0 57.738 8.215 68.69l3.809-2.857-4.285-5.714H12.5c5.253 0 9.524-4.271 9.524-9.524v-4.762c0-5.252 4.271-9.524 9.524-9.524h14.285c5.253 0 9.524 4.272 9.524 9.524v17.31c-1.035.724-2 1.554-2.857 2.506a19.916 19.916 0 0 0-5.476-.769c-10.214 0-18.692 7.553-20.03 17.498C18.497 84.89 12.5 92.784 12.5 101.785a20.27 20.27 0 0 0 3.76 11.746 19.918 19.918 0 0 0-1.379 7.302c0 11.16 9.079 20.238 20.238 20.238.902 0 1.785-.081 2.657-.195.165-.022.329-.05.493-.076a19.976 19.976 0 0 0 2.59-.572 20.024 20.024 0 0 0 10.926 3.225c4.365 0 8.522-1.374 11.972-3.92 3.753 5.42 9.878 8.682 16.6 8.682 6.243 0 11.993-2.815 15.816-7.636a19.957 19.957 0 0 0 10.375 2.874c11.159 0 20.237-9.079 20.237-20.238 0-2.41-.425-4.762-1.266-7.015a20.188 20.188 0 0 0 6.029-14.414c0-1.214-.12-2.407-.329-3.571h.329v-4.762h-1.82c-2.385-5.244-6.943-9.365-12.637-11.06a24.866 24.866 0 0 0-16.495-20.838v-8.579c0-6.564 5.34-11.904 11.904-11.904h9.524c9.188 0 16.667-7.479 16.667-16.667zm-26.23 59.969l.066 1.879 1.843.368c4.284.86 7.833 3.491 10.034 7.012v4.582h1.906c.282 1.156.476 2.342.476 3.571 0 3.781-1.383 7.357-3.83 10.157-3.425-4.715-8.845-7.598-15.062-8.01l-.312 4.456c7.909.521 14.128 6.225 14.414 15.364-.285 8.283-7.095 14.938-15.447 14.938-3.467 0-6.755-1.136-9.508-3.283l-.95-.743a15.425 15.425 0 0 1-5.002-10.42l-4.752.317a20.153 20.153 0 0 0 6.052 13.122 15.34 15.34 0 0 1-12.031 5.769c-5.912 0-11.224-3.305-13.857-8.627l-1.466-2.959-2.346 2.331a15.39 15.39 0 0 1-10.902 4.493c-1.883 0-3.707-.376-5.438-1.033 5.429-3.634 9.01-9.817 9.01-16.825 0-.507-.067-1-.103-1.5a20.168 20.168 0 0 0 10.202-5.007l-3.218-3.512a15.404 15.404 0 0 1-7.882 3.838c-1.593-4.971-5.04-9.221-9.821-11.74l-2.219 4.215a15.46 15.46 0 0 1 8.279 13.706c0 6.681-4.265 12.37-10.207 14.534-.838.302-1.688.531-2.543.688-.057.01-.115.017-.172.026-.85.145-1.703.229-2.555.229-8.533 0-15.476-6.943-15.476-15.477 0-2.29.507-4.516 1.507-6.624l.653-1.371-.972-1.171a15.489 15.489 0 0 1-3.569-9.882c0-7.347 5.222-13.728 12.415-15.171l1.826-.365.085-1.857a15.44 15.44 0 0 1 7.103-12.311v4.704h4.761v-6.712a15.482 15.482 0 0 1 3.572-.43c1.84 0 3.676.34 5.447 1.009l1.703.643 1.066-1.472c.036-.05.079-.093.117-.143v11.867h4.762V65.909a11.789 11.789 0 0 1 4.762-1.029c3.295 0 6.393 1.375 8.622 3.727-3.991 4.54-6.836 10.418-6.836 16.512 0 13.785 12.5 25 24.405 25v-4.762c-9.524 0-19.643-9.079-19.643-20.238 0-4.97 2.143-9.765 5.419-13.453l1.364-1.16a20.25 20.25 0 0 1 13.976-5.626c1.222 0 2.486.122 3.645.329v9.195c0 6.564-5.34 11.905-11.905 11.905h-2.38v4.762h2.38c9.188 0 16.667-7.479 16.667-16.666V66.68a20.145 20.145 0 0 1 11.865 17.694zm-2.341 9.079h7.143v4.762h-7.143v-4.762zm11.905-45.238h7.143v4.761h-7.143v-4.761zm-36.936 2.497l2.4-4.112a12.113 12.113 0 0 1-4.214-4.135l-4.065 2.478a16.864 16.864 0 0 0 5.879 5.769zM76.785 36.31c0 .247.005.494.017.743l4.757-.529-.012-7.357h-4.762v7.143zm0-21.429h4.763v7.143h-4.763v-7.143zm60.46 77.11l2.293 4.171a16.89 16.89 0 0 0 6.026-5.617l-4.005-2.58a12.122 12.122 0 0 1-4.314 4.026zm6.207-10.444c0 .282-.009.56-.03.841l4.752.331c.026-.388.04-.779.04-1.172v-7.142h-4.762v7.142zm-35.714-33.332h7.143v4.761h-7.143v-4.761zm39.9 12.332l-4.595 1.241c.271 1.007.41 2.047.41 3.093v2.381h4.762v-2.381c0-1.464-.194-2.924-.577-4.334zm-4.057-7.176a16.768 16.768 0 0 0-6.985-4.374l-1.45 4.534a12.025 12.025 0 0 1 4.994 3.131l3.441-3.29zM76.785 7.738h4.763l5.714 4.286 2.857-3.81L79.167 0 68.215 8.215l2.857 3.809 5.713-4.286zM38.691 12.5h4.761v7.143h-4.761V12.5zm0 42.857h4.761V62.5h-4.761v-7.143zm0-14.285h4.761v7.143h-4.761v-7.143zm0 42.856h4.761v7.144h-4.761v-7.144zm2.38-77.975l8.096 6.071 2.857-3.81L41.072 0 30.119 8.215l2.857 3.809 8.096-6.071z" fill="#FFF" fill-rule="evenodd"/></svg>