<svg xmlns="http://www.w3.org/2000/svg" viewBox="0 0 30 28.07"><title>icon_028</title><path d="M28.13 4.63A1.9 1.9 0 0 1 30 6.51v19.65a1.9 1.9 0 0 1-1.87 1.88H1.88a1.8 1.8 0 0 1-1.32-.56A1.8 1.8 0 0 1 0 26.16V6.51a1.8 1.8 0 0 1 .56-1.35 1.8 1.8 0 0 1 1.32-.56h7.5V2.81a2.73 2.73 0 0 1 .82-2 2.69 2.69 0 0 1 2-.83h5.63a2.69 2.69 0 0 1 2 .83 2.73 2.73 0 0 1 .82 2v1.82zM11.25 2.81v1.82h7.5V2.81a.93.93 0 0 0-.26-.65.89.89 0 0 0-.67-.28h-5.63a1 1 0 0 0-.94.94zm-9.37 3.7v6.59h10.31v-.94a1.83 1.83 0 0 1 .54-1.32 1.79 1.79 0 0 1 1.33-.56h1.88a1.9 1.9 0 0 1 1.87 1.88v1h10.32V6.51zm14.06 10.34v-4.69h-1.88v4.72zM1.88 26.16h26.25V14.97H17.81v1.88a1.79 1.79 0 0 1-.55 1.31 1.83 1.83 0 0 1-1.32.54h-1.88a1.85 1.85 0 0 1-1.87-1.87v-1.86H1.88z"/></svg>