<svg width="64" height="44" viewBox="0 0 64 44" xmlns="http://www.w3.org/2000/svg"><title>comillas</title><path d="M64 32.19c0-2.316-.812-4.516-2.435-6.6-1.623-2.085-3.98-3.127-7.072-3.127-1.237 0-2.512.193-3.826.58-1.314.385-2.667 1.118-4.058 2.2-.928-1.39-1.392-3.629-1.392-6.717 0-4.94 1.392-8.607 4.174-11 2.783-2.393 6.88-4.13 12.29-5.21V0c-3.71 0-7.304.579-10.782 1.737-3.479 1.158-6.493 2.856-9.044 5.095a26.007 26.007 0 0 0-6.145 7.99c-1.546 3.087-2.319 6.56-2.319 10.42 0 5.095 1.546 9.495 4.638 13.2C41.121 42.147 45.295 44 50.551 44c3.555 0 6.686-1.003 9.391-3.01C62.647 38.981 64 36.05 64 32.19zm-33.391 0c0-2.316-.812-4.516-2.435-6.6-1.623-2.085-3.98-3.127-7.073-3.127-1.236 0-2.512.193-3.826.58-1.314.385-2.666 1.118-4.058 2.2-.927-1.39-1.39-3.629-1.39-6.717 0-4.94 1.39-8.607 4.173-11 2.783-2.393 6.88-4.13 12.29-5.21V0c-3.71 0-7.304.579-10.783 1.737-3.478 1.158-6.492 2.856-9.043 5.095a25.976 25.976 0 0 0-6.145 7.99C.773 17.908 0 21.381 0 25.241c0 5.095 1.546 9.495 4.638 13.2C7.729 42.147 11.903 44 17.159 44c3.556 0 6.686-1.003 9.392-3.01 2.705-2.008 4.058-4.94 4.058-8.8z" fill-rule="evenodd"/></svg>