<svg width="126" height="149" viewBox="0 0 126 149" xmlns="http://www.w3.org/2000/svg"><title>Group 5</title><g transform="translate(-150 -177)" fill="none"><ellipse cx="213" cy="225.984" rx="7" ry="6.984"/><path d="M256.65 219.588l-1.65-1.646-3.3 3.292 1.65 1.646c11.765 11.741 17.983 25.661 17.983 40.26 0 9.378-2.221 18.407-6.39 26.516a16.238 16.238 0 0 0-12.276-5.562c-5.894 0-11.254 3.203-14.124 8.134a13.851 13.851 0 0 0-9.21-3.478c-3.54 0-6.832 1.336-9.333 3.564v-12.877h7v-9.312h7v-2.51c6.515.817 12.7 4.447 12.794 4.505l3.54 2.123v-4.118c0-11.364-5.993-23.023-16.334-26.713v-17.521c0-28.573-18.56-46.458-19.35-47.245L213 177l-1.65 1.646c-.79.787-19.35 18.672-19.35 47.245v17.521c-10.341 3.69-16.333 15.35-16.333 26.713l.002 4.118 3.537-2.123c.096-.058 6.282-3.692 12.794-4.507v2.512h7v9.313h7v12.876a14.028 14.028 0 0 0-9.333-3.564c-3.458 0-6.706 1.26-9.217 3.485-2.884-4.935-8.241-8.141-14.117-8.141-4.771 0-9.198 2.088-12.266 5.58-4.177-8.113-6.4-17.151-6.4-26.536 0-14.597 6.218-28.517 17.983-40.258l1.65-1.646-3.3-3.292-1.65 1.646c-12.658 12.633-19.35 27.693-19.35 43.55 0 16.793 6.554 32.578 18.452 44.451C180.735 319.842 196.867 326 213 326c16.133 0 32.265-6.158 44.548-18.41C269.446 295.715 276 279.93 276 263.14c0-15.859-6.692-30.92-19.35-43.552zm-11.259 46.588c-2.856-1.29-7.007-2.805-11.391-3.257v-14.43c6.31 3.07 10.344 10.133 11.391 17.687zm-32.389-82.396c3.036 3.576 9.527 11.743 13.35 23.486H199.66c3.825-11.725 10.311-19.904 13.342-23.486zm-32.393 82.396c1.047-7.554 5.082-14.615 11.391-17.689v14.425c-4.384.454-8.538 1.972-11.391 3.264zm16.058-.707V225.89c0-5.03.655-9.688 1.689-13.97h29.293c1.031 4.28 1.684 8.936 1.684 13.97v39.578h-32.666zm7 9.312v-4.656h18.666v4.656h-18.666zm50.582 29.516c-22.746 22.692-59.752 22.692-82.495 0a58.688 58.688 0 0 1-8.181-10.241c2.154-3.29 5.791-5.306 9.76-5.306 5.176 0 9.789 3.49 11.221 8.486l1.45 5.061 2.776-4.474c1.717-2.766 4.667-4.417 7.887-4.417 4.426 0 8.274 3.132 9.144 7.443l.38 1.87h4.476v-23.281h4.666v23.28h4.476l.378-1.869c.872-4.311 4.72-7.443 9.146-7.443 3.22 0 6.17 1.65 7.887 4.414l2.793 4.498 1.437-5.091c1.407-4.992 6.02-8.477 11.217-8.477 3.997 0 7.616 2 9.767 5.296a58.756 58.756 0 0 1-8.185 10.251z" fill="#FFF"/><path d="M213.333 217c-5.147 0-9.333 4.177-9.333 9.313 0 5.135 4.186 9.312 9.333 9.312 5.148 0 9.334-4.177 9.334-9.313 0-5.135-4.186-9.312-9.334-9.312zm0 13.969a4.666 4.666 0 0 1-4.666-4.656 4.666 4.666 0 0 1 4.666-4.657 4.666 4.666 0 0 1 4.667 4.656 4.666 4.666 0 0 1-4.667 4.657zm27.334-35h4.666v-4.656H250v-4.657h-4.667V182h-4.666v4.656H236v4.656h4.667zm-74 11h4.666v-4.656H176v-4.657h-4.667V193h-4.666v4.656H162v4.656h4.667zm95 7h4.666v-4.656H271v-4.657h-4.667V200h-4.666v4.656H257v4.656h4.667zM248.333 231v2.328H246v4.656h2.333v2.328H253v-2.328h2.333v-4.656H253V231zm-68-2.687H185v-2.329h2.333v-4.656H185V219h-4.667v2.328H178v4.656h2.333zm0-42H185v-2.329h2.333v-4.656H185V177h-4.667v2.328H178v4.656h2.333z" fill="#FFF"/></g></svg>