<svg width="39" height="64" viewBox="0 0 39 64" xmlns="http://www.w3.org/2000/svg"><title>doc</title><path d="M34.125 19.692v24.616c0 8.142-6.562 14.769-14.625 14.769-8.063 0-14.625-6.627-14.625-14.77V14.77c0-5.43 4.373-9.846 9.75-9.846s9.75 4.416 9.75 9.846v22.154c0 2.715-2.186 4.923-4.875 4.923s-4.875-2.208-4.875-4.923V17.231H9.75v19.692c0 5.438 4.366 9.846 9.75 9.846s9.75-4.408 9.75-9.846V14.77C29.25 6.612 22.703 0 14.625 0S0 6.612 0 14.77v29.538C0 55.183 8.731 64 19.5 64S39 55.183 39 44.308V19.692h-4.875z" fill-rule="evenodd"/></svg>