<svg width="64" height="64" viewBox="0 0 64 64" xmlns="http://www.w3.org/2000/svg"><title>five</title><path d="M32 59.733C16.708 59.733 4.267 47.292 4.267 32S16.708 4.267 32 4.267 59.733 16.708 59.733 32 47.292 59.733 32 59.733M32 0C14.327 0 0 14.327 0 32c0 17.673 14.327 32 32 32 17.673 0 32-14.327 32-32C64 14.327 49.673 0 32 0zm-3.259 36.249c.037.803.276 1.4.718 1.792.442.392.995.588 1.657.588.681 0 1.183-.15 1.505-.452.323-.301.557-.603.705-.904.165-.362.276-.748.331-1.16a8.09 8.09 0 0 0 .083-1.04c0-.421-.042-.828-.124-1.22a3.09 3.09 0 0 0-.415-1.04 2.155 2.155 0 0 0-.773-.723c-.322-.18-.713-.27-1.174-.27-.662 0-1.173.19-1.532.572-.36.381-.576.803-.65 1.265l-5.302-.06.387-12.264h13.808v4.098h-9.003l-.331 5.123a6.36 6.36 0 0 1 .635-.95c.276-.351.727-.687 1.353-1.009.405-.22.82-.382 1.243-.482.423-.1.865-.15 1.325-.15.682 0 1.377.12 2.085.36a5.101 5.101 0 0 1 1.92 1.191c.57.553 1.035 1.266 1.394 2.14.36.873.539 1.943.539 3.209 0 .32-.023.718-.07 1.19a8.915 8.915 0 0 1-.29 1.506 8.627 8.627 0 0 1-.634 1.612 5.97 5.97 0 0 1-1.105 1.507 5.974 5.974 0 0 1-1.353 1.024 7.07 7.07 0 0 1-1.464.603 8.74 8.74 0 0 1-1.477.286c-.488.05-.935.076-1.34.076-.386 0-.865-.025-1.436-.076-.57-.05-1.16-.16-1.767-.331a9.116 9.116 0 0 1-1.795-.723 5.186 5.186 0 0 1-1.547-1.25 4.65 4.65 0 0 1-.773-1.116 5.955 5.955 0 0 1-.414-1.115 5.406 5.406 0 0 1-.166-1.009 13.831 13.831 0 0 1-.027-.798h5.274z" fill-rule="evenodd"/></svg>