<svg xmlns="http://www.w3.org/2000/svg" viewBox="0 0 29.16 26.94"><title>icon_029</title><path d="M18 13.33v-2h-2.08a7 7 0 0 0-1.32-3.19l1.47-1.47-1.41-1.41-1.47 1.47A7 7 0 0 0 10 5.41V3.33H8v2.08a7 7 0 0 0-3.19 1.32L3.24 5.16 1.83 6.57 3.4 8.14a7 7 0 0 0-1.32 3.19H0v2h2.08a7 7 0 0 0 1.63 3.58l-1.78 1.78 1.41 1.41 1.89-1.89a7 7 0 0 0 2.77 1v2.12h2v-2.08a7 7 0 0 0 3.19-1.32l1.47 1.47 1.41-1.41-1.47-1.47a7 7 0 0 0 1.32-3.19zm-9-6a5 5 0 1 1-5 5 5 5 0 0 1 5-5z"/><path d="M27.29 21.51v-1.36h-1.1a5 5 0 0 0-1-2.38l.78-.78-1-1-.78.78a5 5 0 0 0-2.38-1v-1.1H20.5v1.1a5 5 0 0 0-2.38 1l-.85-.85-1 1 .85.85a5 5 0 0 0-1 2.38h-1.1v1.36h1.1a5 5 0 0 0 1.2 2.64l-1 1 1 1 1-1a5 5 0 0 0 2.11.77v1.1h1.36v-1.19a5 5 0 0 0 2.38-1l.78.78 1-1-.78-.78a5 5 0 0 0 1-2.38zm-6.11 2.39a3.07 3.07 0 1 1 3.07-3.07 3.07 3.07 0 0 1-3.07 3.07zM28.1 5.53l1.06-.28-.35-1.32-1.06.28a5 5 0 0 0-1.57-2l.55-1-1.18-.68-.55 1a5 5 0 0 0-2.55-.34L22.14.03l-1.31.3.31 1.16a5 5 0 0 0-2 1.57l-1-.55-.68 1.18 1 .55a5 5 0 0 0-.28 2.89l-1.36.36.35 1.31 1.43-.38a5 5 0 0 0 1.4 1.74l-.55 1 1.18.68.55-1a5 5 0 0 0 2.55.34l.27 1.06 1.31-.35-.31-1.06a5 5 0 0 0 2-1.57l1 .55.68-1.18-1-.55a5 5 0 0 0 .42-2.55zm-2.35 2.18a3.07 3.07 0 1 1-1.12-4.2 3.07 3.07 0 0 1 1.12 4.2z"/></svg>