<svg width="148" height="148" viewBox="0 0 148 148" xmlns="http://www.w3.org/2000/svg"><title>graphic-design-4</title><path d="M126.19 64.286c-3.938 0-7.142 3.204-7.142 7.143 0 3.938 3.204 7.142 7.142 7.142s7.144-3.204 7.144-7.142c0-3.939-3.206-7.143-7.144-7.143zm4.762 49.998c3.938 0 7.144-3.205 7.144-7.142V41.029c5.752-4.107 9.523-10.82 9.523-18.41C147.619 10.148 137.471 0 125 0h-16.667C95.862 0 85.714 10.148 85.714 22.619c0 2.04.286 4.038.813 5.952h-69.86c-3.939 0-7.143 3.205-7.143 7.143v28.572H4.762v24.248C1.998 89.519 0 92.138 0 95.237v23.81c0 3.1 1.998 5.719 4.762 6.704v21.867h23.81v-21.867c2.764-.985 4.761-3.605 4.761-6.704v-4.762h7.143v26.19c0 3.938 3.206 7.143 7.143 7.143h83.334c3.938 0 7.143-3.205 7.143-7.143V128.57c0-5.253-4.272-9.524-9.524-9.524h-2.381v19.047h2.381c1.743 0 3.355-.505 4.762-1.323v3.705a2.382 2.382 0 0 1-2.381 2.38H118.61a7.05 7.05 0 0 0 .438-2.38V128.57c0-5.252-4.272-9.524-9.524-9.524h-2.381v19.048h2.381c1.743 0 3.355-.505 4.762-1.324v3.705a2.382 2.382 0 0 1-2.381 2.381H47.619a2.382 2.382 0 0 1-2.381-2.381v-26.19h85.714zm0 18.409v-8.245a4.758 4.758 0 0 1 0 8.245zm-19.047 0v-8.245a4.758 4.758 0 0 1 0 8.245zM126.19 73.81a2.383 2.383 0 0 1-2.38-2.381 2.383 2.383 0 0 1 2.38-2.381 2.383 2.383 0 0 1 2.382 2.38 2.383 2.383 0 0 1-2.382 2.382zm7.144-2.381v35.714a2.382 2.382 0 0 1-2.382 2.381h-11.904V45.238H125c2.945 0 5.75-.583 8.334-1.612v27.803zm-25-66.667H125c9.848 0 17.857 8.01 17.857 17.857S134.847 40.476 125 40.476h-15.007l-7.612 5.074v-6.038l-1.398-.633c-6.383-2.893-10.507-9.274-10.507-16.26 0-9.847 8.01-17.857 17.857-17.857zM14.285 35.714a2.383 2.383 0 0 1 2.38-2.38h7.144v30.952h-9.524V35.714zM9.524 69.048H23.81v19.047H9.524V69.048zm14.286 73.809H9.524V126.19H23.81v16.667zm4.761-35.714v11.905a2.382 2.382 0 0 1-2.38 2.381H7.142a2.382 2.382 0 0 1-2.381-2.381v-11.886c.01 6.555 5.346 11.886 11.905 11.886 6.564 0 11.904-5.34 11.904-11.905 0-6.564-5.34-11.905-11.904-11.905-6.559 0-11.894 5.33-11.905 11.886V95.238a2.382 2.382 0 0 1 2.381-2.381H26.19a2.382 2.382 0 0 1 2.381 2.381v11.905zm-19.047 0A7.15 7.15 0 0 1 16.667 100c3.938 0 7.143 3.204 7.143 7.142 0 3.939-3.205 7.144-7.143 7.144-3.939 0-7.143-3.206-7.143-7.144zm61.905-69.048c-13.129 0-23.81 10.681-23.81 23.81s10.681 23.81 23.81 23.81c13.128 0 23.809-10.681 23.809-23.81s-10.681-23.81-23.81-23.81zM78.57 79.55a18.919 18.919 0 0 1-7.142 1.402 18.92 18.92 0 0 1-7.143-1.402v-5.74a7.15 7.15 0 0 1 7.143-7.143c3.938 0 7.142 3.204 7.142 7.143v5.74zM66.667 54.762A4.767 4.767 0 0 1 71.429 50a4.767 4.767 0 0 1 4.761 4.762 4.767 4.767 0 0 1-4.761 4.762 4.767 4.767 0 0 1-4.762-4.762zM83.333 76.75v-2.941c0-4.852-2.926-9.019-7.1-10.871 2.81-1.66 4.719-4.686 4.719-8.176 0-5.253-4.272-9.524-9.524-9.524-5.252 0-9.524 4.271-9.524 9.524 0 3.49 1.91 6.516 4.719 8.175-4.174 1.853-7.1 6.02-7.1 10.872v2.94c-4.348-3.494-7.143-8.844-7.143-14.844.001-10.502 8.546-19.048 19.049-19.048 10.502 0 19.047 8.545 19.047 19.048 0 6-2.795 11.352-7.143 14.845zM63.095 92.857h-9.524a5.958 5.958 0 0 0-5.952 5.953 5.958 5.958 0 0 0 5.952 5.952h9.524a5.958 5.958 0 0 0 5.953-5.952 5.958 5.958 0 0 0-5.953-5.953zm0 7.143h-9.524c-.654 0-1.19-.536-1.19-1.19 0-.655.536-1.191 1.19-1.191h9.524c.655 0 1.191.535 1.191 1.19 0 .655-.536 1.191-1.19 1.191zm26.19-7.143h-9.523a5.958 5.958 0 0 0-5.953 5.953 5.958 5.958 0 0 0 5.953 5.952h9.524a5.958 5.958 0 0 0 5.952-5.952 5.958 5.958 0 0 0-5.952-5.953zm0 7.143h-9.523a1.194 1.194 0 0 1-1.191-1.19c0-.656.536-1.191 1.19-1.191h9.525c.654 0 1.19.535 1.19 1.19 0 .655-.536 1.191-1.19 1.191zm-55.952 9.524V95.238c0-3.1-1.998-5.719-4.762-6.704V33.333h59.91c2.072 3.827 5.198 7.065 9.138 9.191V54.45l13.816-9.212h2.85v64.286H33.334zM100 14.286h33.334v4.762H100v-4.762zm0 11.904h33.334v4.762H100V26.19z" fill="#FFF" fill-rule="evenodd"/></svg>