<svg xmlns="http://www.w3.org/2000/svg" viewBox="0 0 32 21"><title>icon_022</title><path d="M25.5 12A3.5 3.5 0 1 1 29 8.5a3.5 3.5 0 0 1-3.5 3.5zm0-2A1.5 1.5 0 1 0 24 8.5a1.5 1.5 0 0 0 1.5 1.5zm-19 2A3.5 3.5 0 1 1 10 8.5 3.5 3.5 0 0 1 6.5 12zm0-2A1.5 1.5 0 1 0 5 8.5 1.5 1.5 0 0 0 6.5 10zm9.5 0a5 5 0 1 1 5-5 5 5 0 0 1-5 5zm0-2a3 3 0 1 0-3-3 3 3 0 0 0 3 3z"/><path d="M28 13h-4.6a5.51 5.51 0 0 0-4.9-3h-5a5.5 5.5 0 0 0-4.9 3H4a4 4 0 0 0-4 4v4h32v-4a4 4 0 0 0-4-4zM2 19v-2a2 2 0 0 1 2-2h4v4zm8 0v-3.5a3.5 3.5 0 0 1 3.51-3.5h5A3.51 3.51 0 0 1 22 15.5V19zm20 0h-6v-4h4a2 2 0 0 1 2 2z"/></svg>