<svg xmlns="http://www.w3.org/2000/svg" viewBox="0 0 30 32.05"><title>icon_020</title><path d="M27 14h3v2h-3zM2.885 4.29L4.3 2.874l2.12 2.122-1.413 1.415zm20.698.72l2.12-2.122 1.415 1.414-2.121 2.122zM14 0h2v3h-2zM0 14h3v2H0zm11 13a1 1 0 0 1 1-1h6a1 1 0 0 1 0 2h-6a1 1 0 0 1-1-1zm13-12a9 9 0 1 0-13 8.05V24a1 1 0 0 0 1 1h6a1 1 0 0 0 1-1v-.95A9 9 0 0 0 24 15zm-10.2 1.34c0-.12-.09-.22-.13-.34h2.38c0 .11-.09.21-.13.34A18.89 18.89 0 0 0 15 22h-.3a18.87 18.87 0 0 0-.9-5.66zM17 21.7a16.45 16.45 0 0 1 .8-4.7 5.6 5.6 0 0 1 .49-1.06A1 1 0 0 0 18 14h-6a1 1 0 0 0-1 1 1 1 0 0 0 .31.72l.12.18a5.58 5.58 0 0 1 .5 1.08 16.3 16.3 0 0 1 .77 4.6 7 7 0 1 1 4.35.1zm1 7.3h-6a1 1 0 0 0 0 2h.73a3 3 0 0 0 4.52 0H18a1 1 0 0 0 0-2z"/></svg>