<svg width="24" height="23" viewBox="0 0 24 23" xmlns="http://www.w3.org/2000/svg"><title>instagram_F</title><path d="M7.19 4.61v2.75h-.467V4.71a2.064 2.064 0 0 0-1.4 1.96v2.07h3.871a4.22 4.22 0 0 1 3.132-1.38 4.22 4.22 0 0 1 3.133 1.38h3.872V6.67c0-1.143-.92-2.07-2.067-2.07H7.389a1.88 1.88 0 0 0-.199.01zm1.37 5.05H5.323v4.37a4.365 4.365 0 0 0 4.375 4.37h5.259a4.375 4.375 0 0 0 4.375-4.37V9.66h-3.239c.28.554.437 1.18.437 1.84 0 2.286-1.882 4.14-4.203 4.14-2.32 0-4.202-1.854-4.202-4.14 0-.66.157-1.286.437-1.84zM12.327 23C5.88 23 .653 17.851.653 11.5S5.879 0 12.326 0C18.774 0 24 5.149 24 11.5S18.774 23 12.326 23zM8.591 4.6h.467v2.76H8.59V4.6zm-.934 0h.467v2.76h-.467V4.6zm8.942.92h.327c.554 0 1.004.449 1.004 1.002v.296a1 1 0 0 1-1.004 1.002H16.6a1.003 1.003 0 0 1-1.004-1.002v-.296A1 1 0 0 1 16.6 5.52zm-4.273 9.2c1.806 0 3.269-1.442 3.269-3.22 0-1.778-1.463-3.22-3.269-3.22-1.805 0-3.268 1.442-3.268 3.22 0 1.778 1.463 3.22 3.268 3.22z" fill-rule="evenodd"/></svg>