<svg width="30" height="30" viewBox="0 0 30 30" xmlns="http://www.w3.org/2000/svg"><title>linkedin</title><path d="M15 30C6.716 30 0 23.284 0 15 0 6.716 6.716 0 15 0c8.284 0 15 6.716 15 15 0 8.284-6.716 15-15 15zm-3.662-9.98v-8.652H8.695v8.652h2.643zM10.016 7.6c-.852 0-1.408.584-1.391 1.362-.017.743.54 1.345 1.374 1.345.87 0 1.426-.602 1.426-1.345-.017-.778-.557-1.362-1.409-1.362zm3.444 12.42h2.643v-4.99c0-.247.035-.512.105-.672.174-.495.608-1.008 1.339-1.008.956 0 1.339.76 1.339 1.875v4.795h2.643v-5.13c0-2.548-1.304-3.716-3.043-3.716a3.101 3.101 0 0 0-2.626 1.38h-.052l-.122-1.186H13.39c.035.761.07 1.681.07 2.76v5.892z" fill-rule="evenodd"/></svg>