<svg width="29" height="41" viewBox="0 0 29 41" xmlns="http://www.w3.org/2000/svg"><title>Shape</title><path d="M29 30.288L24.706 26.6V3.302A3.299 3.299 0 0 0 21.41 0H7.937a3.299 3.299 0 0 0-3.295 3.302v6.063l-2.212-1.9L.347 9.9l4.295 3.69v23.195a3.299 3.299 0 0 0 3.295 3.302H21.41a3.3 3.3 0 0 0 3.295-3.302v-5.96l2.211 1.898L29 30.288zM6.235 5.353h16.878v19.879L6.235 10.734V5.353zm8.438 33.182a1.547 1.547 0 0 1-1.545-1.549 1.547 1.547 0 1 1 3.092 0c0 .856-.693 1.549-1.547 1.549zm8.44-4.615H6.235V14.958l16.878 14.498v4.464z" fill="#E3E3E3" fill-rule="evenodd"/></svg>