<svg width="64" height="60" viewBox="0 0 64 60" xmlns="http://www.w3.org/2000/svg"><title>notification</title><path d="M36.825 54.354C35.899 55.446 34.275 56 32.001 56c-2.272 0-3.894-.548-4.822-1.628-.566-.66-.902-1.514-1.092-2.372h11.816c-.19.846-.52 1.696-1.078 2.354zm-23.996-9.526l1.172-1.17V42l-.002-17.724C14.005 23.61 14.303 8 32.001 8c17.232 0 17.972 14.628 18 16.25v19.408l1.17 1.17L54.343 48H9.657l3.172-3.172zM64.001 52l-10-10V24.25s-.118-18.996-20-20.19V0h-4v4.06c-19.884 1.194-20 20.19-20 20.19V42l-10 10h22.032c.516 3.492 2.602 8 9.968 8 7.35 0 9.438-4.508 9.96-8h22.04z" fill-rule="evenodd"/></svg>