<svg xmlns="http://www.w3.org/2000/svg" viewBox="0 0 23 32"><title>icon_002</title><path d="M13 32l10-10V2a1.93 1.93 0 0 0-.58-1.42A1.93 1.93 0 0 0 21 0H2A1.93 1.93 0 0 0 .58.58 1.93 1.93 0 0 0 0 2v28a2 2 0 0 0 2 2zm8-10.84L12.19 30H12v-9h9zM2 2h19v17H10v11H2z"/><path d="M8.25 24.94A1.53 1.53 0 0 0 7 23.41l1.06-1.28v-1h-3.7v1.7h1.18v-.59h1.08a11.74 11.74 0 0 0-1.25 1.52l.29.63c.46 0 1.17 0 1.17.63 0 .45-.41.64-.8.64a1.86 1.86 0 0 1-1.18-.5l-.64 1a2.71 2.71 0 0 0 1.92.74 1.93 1.93 0 0 0 2.12-1.96zm0-9H7.1v.67H5.69c0-.87 2.46-1.24 2.46-2.89A1.75 1.75 0 0 0 6.21 12a2.14 2.14 0 0 0-2 1.21l.95.66a1.18 1.18 0 0 1 .9-.65.54.54 0 0 1 .6.58c0 .94-2.52 1.25-2.52 3.31a3.69 3.69 0 0 0 .07.6h4zm0-7.47H7.08V4H5.9L4.38 5.37l.79.85a2.19 2.19 0 0 0 .56-.6v2.84H4.55v1.1h3.74zm10.86 5.85c0-.2-.11-.36-.22-.36h-8.5c-.13 0-.22.16-.22.36v2.14c0 .19.1.36.22.36h8.53c.12 0 .22-.17.22-.36zm0-8c0-.19-.11-.36-.22-.36h-8.5c-.13 0-.22.17-.22.36v2.14c0 .19.1.36.22.36h8.53c.12 0 .22-.17.22-.36z"/></svg>