<svg xmlns="http://www.w3.org/2000/svg" viewBox="0 0 25 32"><title>icon_012</title><path d="M18 22H7a5 5 0 0 0-5 5v5h21v-5a5 5 0 0 0-5-5zM4 30v-3a3 3 0 0 1 3-3h4.05a1.21 1.21 0 0 0-.06.35 1.35 1.35 0 0 0 .88 1.23l-.6 4.42zm17 0h-7.27l-.61-4.42a1.35 1.35 0 0 0 .88-1.23 1.21 1.21 0 0 0-.06-.35H18a3 3 0 0 1 3 3zM10 17.5V19a1 1 0 0 0 1 1h.09a1.5 1.5 0 0 0 2.83 0H14a1 1 0 0 0 1-1v-1.5a6.5 6.5 0 1 0-5 0zM12.5 7a4.5 4.5 0 0 1 1.76 8.64 4.48 4.48 0 0 1-.73.23h-.2a4.05 4.05 0 0 1-1.62 0h-.2a4.47 4.47 0 0 1-.73-.23A4.5 4.5 0 0 1 12.5 7zm8.5 3h4v2h-4zM2.881 3.297l1.414-1.414 2.829 2.829-1.415 1.414zm14.997 1.408l2.828-2.828L22.12 3.29l-2.828 2.828zM12 0h2v3h-2zM0 10h4v2H0z"/></svg>