<svg width="148" height="148" viewBox="0 0 148 148" xmlns="http://www.w3.org/2000/svg"><title>perspective</title><path d="M73.81 0C33.11 0 0 33.11 0 73.81s33.11 73.809 73.81 73.809 73.809-33.11 73.809-73.81S114.509 0 73.809 0zm2.605 142.79l1.837-3.18-4.123-2.381-.32.552-.319-.552-4.123 2.38 1.837 3.182c-36.868-1.377-66.442-31.784-66.442-68.982 0-11.635 2.905-22.6 8.01-32.225l1.833 3.174 4.124-1.865-.319-.035h.638v-4.763h-3.653c12.24-21.429 33.843-32.3 58.415-32.3 24.571 0 46.173 10.871 58.414 32.3h-3.652v4.762h.637l-.319.035 4.125 2.125 1.833-3.306c5.105 9.627 8.01 20.529 8.01 32.163-.001 37.198-29.575 67.54-66.444 68.917zm-21.987-29.047l-4.978-8.62 4.124-2.382 4.977 8.62-4.123 2.382zm9.956 17.245l-4.977-8.62 4.124-2.381 4.977 8.62-4.124 2.381zM34.514 79.25l-4.977-8.62 4.124-2.382 4.977 8.621-4.124 2.381zm-9.956-17.245l-4.977-8.62 4.124-2.382 4.977 8.62-4.124 2.382zM50 38.095h9.524v4.762H50v-4.762zm-21.429 0h9.524v4.762h-9.524v-4.762zm59.524 0h9.524v4.762h-9.524v-4.762zm21.429 0h9.524v4.762h-9.524v-4.762zm-26.293 92.882l-4.125-2.38 4.977-8.622 4.124 2.38-4.976 8.622zM102.7 87.74l-2.95-1.706-2.386 4.119 2.955 1.712-1.297 2.247 4.123 2.381 4.979-8.621L104 85.49l-1.3 2.25zm-9.513 25.994l-4.125-2.38 4.977-8.623 4.124 2.38-4.976 8.623zm19.911-34.491l-4.124-2.38 4.976-8.623 4.125 2.38-4.977 8.623zm9.956-17.246l-4.124-2.38 4.976-8.622 4.124 2.38-4.976 8.622zm-51.625 57.05h4.761v9.525h-4.76v-9.524zM27.69 44.44l8.092 4.674-2.382 4.124-8.092-4.675 2.382-4.123zm69.665 45.709l2.385-4.125-2.594-1.5 5.757-24.754 3.223-1.862-2.38-4.125-3.231 1.867-24.325-7.378v-5.414h2.381v-4.762h-9.523v4.762h2.38v5.414l-24.326 7.375-3.23-1.866-2.382 4.124 3.224 1.862 5.76 24.757-2.595 1.503 2.386 4.118 2.592-1.5L71.43 106.03v3.493h4.762v-3.49L94.76 88.648l2.595 1.499zm-25.926 9.359l-16.077-15.05-4.98-21.422 21.057 12.163v24.309zM52.752 58.912l21.058-6.386 21.056 6.386L73.81 71.074 52.752 58.912zM76.19 99.51V75.198l21.058-12.16-4.981 21.424L76.19 99.51zm-25.935-9.36l-2.386-4.119-2.95 1.707-1.297-2.248-4.124 2.382 4.978 8.621 4.124-2.381-1.3-2.25 2.955-1.712zm72.057-41.599l-8.092 4.675-2.381-4.124 8.091-4.674 2.382 4.123z" fill="#FFF" fill-rule="evenodd"/></svg>