<svg xmlns="http://www.w3.org/2000/svg" viewBox="0 0 30.97 31.97"><title>icon_004</title><path d="M29.81 25.88l-.65-.36-4.52-2.16q.16-.21.31-.44a8.81 8.81 0 0 0 .85-1.76 10.26 10.26 0 0 0 .59-3.3v-3.27a4 4 0 0 0-.68-2.18 7 7 0 0 0-1.58-1.72A8.25 8.25 0 0 0 22 9.48 6.93 6.93 0 0 0 20 9a10 10 0 1 0-7.16 10.58 9.59 9.59 0 0 0 .41 1.49 10.17 10.17 0 0 0 .75 1.79q.16.26.34.51l-4.5 2.13-.73.42A2 2 0 0 0 8 27.69v2a2.24 2.24 0 0 0 .67 1.62 2.27 2.27 0 0 0 1.64.67h18.37a2.29 2.29 0 0 0 2.32-2.3v-2a2 2 0 0 0-1.19-1.8zM13.26 12.42a4.06 4.06 0 0 0-.66 2.17v3A8 8 0 1 1 18 9.18a7.27 7.27 0 0 0-1 .29 8.2 8.2 0 0 0-2.16 1.21 6.8 6.8 0 0 0-1.58 1.74zM29 29.68a.29.29 0 0 1-.29.29h-18.4a.27.27 0 0 1-.23-.09.25.25 0 0 1-.09-.21v-2h.16l.66-.38 5.69-2.69 1.5-.71-1.26-1a4 4 0 0 1-.93-1.07 8.17 8.17 0 0 1-.69-1.42 7.88 7.88 0 0 1-.48-2.54v-3.27a2.09 2.09 0 0 1 .36-1.11 4.81 4.81 0 0 1 1.11-1.22 6.21 6.21 0 0 1 1.64-.92 5 5 0 0 1 1.74-.34 4.87 4.87 0 0 1 1.78.34 6.26 6.26 0 0 1 1.63.92 5 5 0 0 1 1.1 1.23 2 2 0 0 1 .37 1.1v3.28a8.26 8.26 0 0 1-.48 2.63 6.81 6.81 0 0 1-.66 1.36 4 4 0 0 1-.92 1l-1.26 1 7.17 3.42.59.33c.13.07.13.07.13.06z"/><path d="M10 10H7v2h5V5h-2v5z"/></svg>