<svg xmlns="http://www.w3.org/2000/svg" viewBox="0 0 30 30"><title>icon_017</title><path d="M15 30a2.3 2.3 0 0 1-.85-.16 2.13 2.13 0 0 1-.73-.48L.64 16.55a2.23 2.23 0 0 1 0-3.13l4.69-4.69a1 1 0 0 1 .51-.26.82.82 0 0 1 .57.09 1 1 0 0 1 .41.42.84.84 0 0 1 .09.57 2 2 0 0 0-.07.37v.31a3.66 3.66 0 0 0 1.1 2.67 3.56 3.56 0 0 0 2.62 1.11 3.31 3.31 0 0 0 2.56-1.11 3.83 3.83 0 0 0 1-2.67 3.74 3.74 0 0 0-1-2.62 3.33 3.33 0 0 0-2.56-1.1h-.31a2 2 0 0 0-.37.07.84.84 0 0 1-.57-.09 1 1 0 0 1-.43-.37 1 1 0 0 1-.08-.6.88.88 0 0 1 .25-.51L13.42.62a2.34 2.34 0 0 1 3.16 0l3.19 3.22a5.08 5.08 0 0 1 1.85-2.59 5.11 5.11 0 0 1 6.69.51 5 5 0 0 1 1.51 3.63 5 5 0 0 1-1 3.08 5.08 5.08 0 0 1-2.56 1.85l3.11 3.11a2.23 2.23 0 0 1 0 3.13L16.58 29.35a2.13 2.13 0 0 1-.73.48A2.3 2.3 0 0 1 15 30zM5.13 11.57L2 14.73a.32.32 0 0 0-.1.26.37.37 0 0 0 .1.23l12.77 12.8a.36.36 0 0 0 .53 0L28 15.23a.32.32 0 0 0 .09-.23.43.43 0 0 0-.09-.26l-4.47-4.52a1 1 0 0 1-.26-.5.79.79 0 0 1 .09-.56.86.86 0 0 1 .38-.41.93.93 0 0 1 .56-.12h.39a3.25 3.25 0 0 0 3.28-3.28A3.18 3.18 0 0 0 27 3.12a3.27 3.27 0 0 0-4.64 0 3.16 3.16 0 0 0-1 2.31.48.48 0 0 0 0 .12.48.48 0 0 1 0 .12v.18a.93.93 0 0 1-.12.56.86.86 0 0 1-.41.38 1 1 0 0 1-.56.07.87.87 0 0 1-.5-.25l-4.6-4.6a.31.31 0 0 0-.53 0L11.89 4.8a5.07 5.07 0 0 1 3 1.95A5.64 5.64 0 0 1 16 10.22a5.62 5.62 0 0 1-1.57 4 5.11 5.11 0 0 1-3.88 1.67 5.34 5.34 0 0 1-3.47-1.23 5.53 5.53 0 0 1-1.95-3.09z"/></svg>