<svg width="120" height="120" viewBox="0 0 120 120" xmlns="http://www.w3.org/2000/svg"><title>icon_clock</title><path d="M60 0C26.863 0 0 26.863 0 60s26.863 60 60 60 60-26.863 60-60S93.137 0 60 0zm0 112C31.327 112 8 88.673 8 60S31.327 8 60 8s52 23.327 52 52-23.327 52-52 52zM41 54a4 4 0 1 0 0-8 4 4 0 0 0 0 8zm38 0a4 4 0 1 0 0-8 4 4 0 0 0 0 8zM37.414 86.244c.419-.218.91-.465 1.465-.732 1.606-.77 3.4-1.543 5.333-2.265C49.66 81.213 55.076 80 60 80c4.924 0 10.34 1.213 15.788 3.247a64.585 64.585 0 0 1 5.333 2.265c.556.267 1.046.514 1.465.732.24.126.395.21.46.246l3.908-6.98a45.375 45.375 0 0 0-2.372-1.21 72.541 72.541 0 0 0-5.995-2.547C72.317 73.412 66.014 72 60 72c-6.014 0-12.317 1.412-18.587 3.753a72.541 72.541 0 0 0-5.995 2.547c-1.105.53-1.911.952-2.372 1.21l3.908 6.98c.065-.036.22-.12.46-.246z" fill-rule="evenodd"/></svg>