<svg width="59" height="64" viewBox="0 0 59 64" xmlns="http://www.w3.org/2000/svg"><title>settings</title><path d="M59 14.77c0-3.206-2.063-5.91-4.917-6.932V0h-4.916v7.838c-2.854 1.021-4.917 3.726-4.917 6.931s2.063 5.91 4.917 6.932V64h4.916V21.7C56.937 20.68 59 17.975 59 14.77zm-7.375 2.46a2.46 2.46 0 0 1 0-4.922 2.46 2.46 0 0 1 0 4.923zM31.958 42.3V0h-4.916v42.3c-2.854 1.02-4.917 3.726-4.917 6.93 0 3.206 2.063 5.91 4.917 6.932V64h4.916v-7.838c2.854-1.021 4.917-3.726 4.917-6.931s-2.063-5.91-4.917-6.932zM29.5 51.691a2.46 2.46 0 0 1 0-4.923 2.46 2.46 0 0 1 0 4.923zM9.833 25.068V0H4.917v25.068C2.063 26.09 0 28.795 0 32c0 3.205 2.063 5.91 4.917 6.932V64h4.916V38.932C12.687 37.91 14.75 35.205 14.75 32c0-3.205-2.063-5.91-4.917-6.932zm-2.458 9.394a2.46 2.46 0 0 1 0-4.924 2.46 2.46 0 0 1 0 4.924z" fill-rule="evenodd"/></svg>