<svg width="64" height="64" viewBox="0 0 64 64" xmlns="http://www.w3.org/2000/svg"><title>three</title><path d="M32 59.733C16.708 59.733 4.267 47.292 4.267 32S16.708 4.267 32 4.267 59.733 16.708 59.733 32 47.292 59.733 32 59.733M32 0C14.327 0 0 14.327 0 32c0 17.673 14.327 32 32 32 17.673 0 32-14.327 32-32C64 14.327 49.673 0 32 0zm-8.533 36.433c.053.937.133 2.43 1.409 3.893 1.409 1.638 3.429 2.34 6.486 2.34 3.642 0 5.13-.994 6.034-1.726 1.516-1.2 1.941-2.838 1.941-4.302 0-4.36-3.668-4.828-4.652-4.945v-.147c2.525-.292 4.28-2.37 4.28-4.828 0-3.073-2.579-5.385-7.364-5.385-4.2 0-7.55 1.844-7.682 6.087h5.13c.08-1.99 1.462-2.34 2.366-2.34 1.489 0 2.499.877 2.499 2.282 0 .234 0 2.224-2.286 2.575-1.09.175-2.1.117-2.791.088v3.628a18.27 18.27 0 0 1 1.462-.058c1.063 0 3.88 0 3.88 2.604 0 1.259-.637 2.693-2.87 2.693-1.994 0-2.632-1.142-2.685-2.459h-5.157z" fill-rule="evenodd"/></svg>