<svg width="30" height="30" viewBox="0 0 30 30" xmlns="http://www.w3.org/2000/svg"><title>twitter</title><path d="M15 30C6.716 30 0 23.284 0 15 0 6.716 6.716 0 15 0c8.284 0 15 6.716 15 15 0 8.284-6.716 15-15 15zm-3.758-18.445c-2.244-1.117-2.79-2.125-2.79-2.125s-.348.6-.195 1.717C8.409 12.263 9.48 13.7 9.48 13.7l-1.29-.514s.066.709.567 1.439c.501.73 2.266 1.653 2.266 1.653l-1.678.021s.153.344.763.923c.61.58 2.31 1.095 2.31 1.095s-1.196.825-2.027 1.138c-.83.313-2.135.386-2.135.386s1.942 1.19 4.924.902c2.983-.29 5.036-1.662 6.625-3.95 1.589-2.288 1.438-5.26 1.438-5.26s.174-.197.596-.578c.422-.381.552-.569.552-.569l-1.055.11.685-1.204s-.418.187-.707.292c-.288.105-.676.21-.676.21s-1.53-1.846-3.752-.751c-2.223 1.095-1.504 3.563-1.504 3.563s-1.897.065-4.14-1.051z" fill-rule="evenodd"/></svg>