<svg width="64" height="64" viewBox="0 0 64 64" xmlns="http://www.w3.org/2000/svg"><title>two</title><path d="M32 59.733C16.708 59.733 4.267 47.292 4.267 32S16.708 4.267 32 4.267 59.733 16.708 59.733 32 47.292 59.733 32 59.733M32 0C14.327 0 0 14.327 0 32c0 17.673 14.327 32 32 32 17.673 0 32-14.327 32-32C64 14.327 49.673 0 32 0zm-8.533 42.667h15.311v-4.118h-8.911c5.184-4.117 8.857-7.041 8.857-11.338 0-1.193-.297-2.357-1-3.342-1.214-1.73-3.267-2.536-6.13-2.536-1.592 0-4.806.269-6.4 2.387-1.295 1.73-1.35 3.342-1.35 3.998h5.267c.054-.566.189-2.416 2.214-2.416.675 0 2.025.238 2.025 2.088 0 .955-.324 1.73-.675 2.357-1.377 2.178-4.969 5.162-9.208 8.623v4.297z" fill-rule="evenodd"/></svg>