<svg xmlns="http://www.w3.org/2000/svg" viewBox="0 0 32 32"><title>icon_008</title><path d="M15.57 8.93H17V5.71a2.75 2.75 0 0 1-.61.64l-.86-.89 1.65-1.53h1.27v5h1.43v1h.67a5.85 5.85 0 0 0 .76-2.84c0-2-1.23-4.64-3.57-4.64s-3.57 2.61-3.57 4.64A5.85 5.85 0 0 0 14.9 10h.67zm11.1 10.66a1.78 1.78 0 0 0-1.25 3 1.78 1.78 0 0 0 2.51-2.51 1.69 1.69 0 0 0-1.26-.49z"/><path d="M31.13 10.91A3 3 0 0 0 29 10H4q-.59 0-.78-.25L3 9.47l4-.8V10h2V4.29c1.57 0 2.25-.73 2.25-2.3h12.89c0 1.57.61 2.3 2.18 2.3V10h2.1V.71a.72.72 0 0 0-.71-.71h-20A.72.72 0 0 0 7 .71v5.88l-4.56.91A2.76 2.76 0 0 0 .38 9 5.07 5.07 0 0 0 0 10.56V29a2.89 2.89 0 0 0 .88 2.13A2.89 2.89 0 0 0 3 32h26a3 3 0 0 0 3-3V13a2.86 2.86 0 0 0-.87-2.09zM30 29a.94.94 0 0 1-.3.69 1 1 0 0 1-.7.31H3a1 1 0 0 1-.7-.29A.94.94 0 0 1 2 29V11.3q0 .49.64.74a3.76 3.76 0 0 0 1.36.24h25a1 1 0 0 1 .7.29.94.94 0 0 1 .3.69z"/></svg>