<svg width="148" height="122" viewBox="0 0 148 122" xmlns="http://www.w3.org/2000/svg"><title>web-design</title><path d="M138.095 0H9.524C4.272 0 0 4.271 0 9.524v85.714c0 5.253 4.272 9.525 9.524 9.525h42.857v11.905H35.714v4.761h76.191v-4.761H95.238v-11.905h42.857c5.253 0 9.524-4.272 9.524-9.525V9.524c0-5.253-4.271-9.524-9.524-9.524zM90.476 116.667H57.143v-11.905h33.333v11.905zm52.381-21.429a4.767 4.767 0 0 1-4.762 4.763H9.524a4.767 4.767 0 0 1-4.762-4.763V9.524a4.767 4.767 0 0 1 4.762-4.762h128.571a4.767 4.767 0 0 1 4.762 4.762v85.714zm-133.333 0h128.571V9.524H9.524v85.714zm4.762-80.951h119.047v76.19H14.286v-76.19zm7.143 9.524a2.381 2.381 0 1 0 0-4.762 2.381 2.381 0 0 0 0 4.762zm7.142 0a2.381 2.381 0 1 0 0-4.762 2.381 2.381 0 0 0 0 4.762zm7.143 0a2.381 2.381 0 1 0 0-4.762 2.381 2.381 0 0 0 0 4.762zM19.048 57.143H52.38V28.572H19.048v28.571zm4.762-23.81h23.809v19.048h-23.81V33.333zm33.333 23.81h33.333V28.572H57.143v28.571zm4.762-23.81h23.81v19.048h-23.81V33.333zm33.333 23.81h33.334V28.572H95.238v28.571zM100 33.333h23.81v19.048H100V33.333zM19.048 61.905h71.428v4.762H19.048v-4.762zm0 9.524h71.428v4.762H19.048v-4.762zm0 9.524h71.428v4.762H19.048v-4.762zm78.571-19.048h30.953v4.762H97.619v-4.762zm0 9.524h30.953v4.762H97.619v-4.762zm0 9.524h30.953v4.762H97.619v-4.762z" fill="#FFF" fill-rule="evenodd"/></svg>