<?xml version="1.0" encoding="UTF-8" standalone="no"?><svg xmlns="http://www.w3.org/2000/svg" xmlns:xlink="http://www.w3.org/1999/xlink"><symbol viewBox="0 0 64 56" id="alert" xmlns="http://www.w3.org/2000/svg"><title>alert</title><path d="M0 56h64L32 0 0 56zm32-39.876l18.212 31.877H13.784L32 16.124z" fill-rule="evenodd"/></symbol><symbol viewBox="0 0 32 38" id="android" xmlns="http://www.w3.org/2000/svg"><title>android</title><g fill="#E3E3E3" fill-rule="evenodd"><path d="M26.03 28.933c0 .851-.69 1.541-1.549 1.541H6.55c-.856 0-1.549-.69-1.549-1.54V13.012c4.7-.017 15.666-.017 21.03 0v15.92zM12.134 4.686a.355.355 0 0 1-.155.478.36.36 0 0 1-.48-.154L9.233.62a.358.358 0 0 1 .636-.323l2.265 4.39zM20.39 4.871a.355.355 0 0 1-.488.128.35.35 0 0 1-.129-.483L22.255.245a.356.356 0 0 1 .487-.13.35.35 0 0 1 .132.483L20.39 4.871zM31.996 24.453a2.25 2.25 0 0 1-2.258 2.243 2.252 2.252 0 0 1-2.26-2.243v-9.819a2.25 2.25 0 0 1 2.26-2.243 2.248 2.248 0 0 1 2.258 2.243v9.819zM4.52 24.453a2.252 2.252 0 0 1-2.257 2.243 2.25 2.25 0 0 1-2.26-2.243v-9.819c0-1.24 1.01-2.243 2.26-2.243a2.25 2.25 0 0 1 2.257 2.243v9.819z"/><path d="M14.352 35.689a2.252 2.252 0 0 1-2.261 2.244 2.25 2.25 0 0 1-2.255-2.244v-9.818a2.252 2.252 0 0 1 2.255-2.246 2.254 2.254 0 0 1 2.26 2.246v9.818zM22.184 35.689a2.252 2.252 0 0 1-2.26 2.244 2.251 2.251 0 0 1-2.258-2.244v-9.818a2.253 2.253 0 0 1 2.258-2.246 2.254 2.254 0 0 1 2.26 2.246v9.818zM16.007 2.358c-5.492 0-10.015 4.154-10.62 9.492h21.238c-.603-5.338-5.123-9.492-10.618-9.492zm-4.792 5.755a.88.88 0 0 1-.886-.877.88.88 0 0 1 .886-.875c.485 0 .88.391.88.875a.879.879 0 0 1-.88.877zm9.602 0a.88.88 0 0 1-.884-.877.88.88 0 0 1 .884-.875.877.877 0 1 1 0 1.752z"/></g></symbol><symbol viewBox="0 0 33 40" id="apple" xmlns="http://www.w3.org/2000/svg"><title>apple</title><g fill="#E3E3E3" fill-rule="evenodd"><path d="M24.301 3.776a9.765 9.765 0 0 1-1.759 3.16 8.653 8.653 0 0 1-2.894 2.244c-1.034.488-2.166.751-3.293.664l-.345-.026-.045-.34c-.147-1.098.023-2.21.379-3.238a9.685 9.685 0 0 1 1.805-3.116c.745-.865 1.745-1.618 2.815-2.164 1.074-.547 2.227-.89 3.277-.932l.397-.016.044.393c.127 1.15-.028 2.297-.38 3.371z"/><path d="M31.597 14.1c-.38.234-4.057 2.489-4.012 7.035.048 5.48 4.736 7.38 4.995 7.484h.002l.011.005.368.15-.126.374c-.008.022 0-.001-.01.033-.12.38-.93 2.955-2.762 5.608-.832 1.204-1.678 2.405-2.678 3.332-1.036.96-2.218 1.608-3.679 1.635-1.376.025-2.278-.361-3.214-.763-.894-.383-1.823-.782-3.277-.782-1.527 0-2.504.413-3.444.81-.885.374-1.741.735-2.975.784h-.001c-1.425.052-2.66-.636-3.757-1.655-1.05-.975-1.97-2.252-2.809-3.454C2.337 31.987.691 28.046.183 24.039c-.419-3.296-.07-6.645 1.539-9.41a10.367 10.367 0 0 1 3.618-3.691 9.728 9.728 0 0 1 4.87-1.402c1.521-.028 2.956.537 4.212 1.031.89.35 1.681.661 2.275.661.524 0 1.297-.302 2.198-.654 1.522-.595 3.385-1.323 5.354-1.129.826.036 2.549.232 4.31 1.178a9.037 9.037 0 0 1 3.194 2.864l.246.357-.368.236c-.02.013 0 0-.034.02z"/></g></symbol><symbol viewBox="0 0 40 56" id="arrow-down" xmlns="http://www.w3.org/2000/svg"><title>Fill-2</title><path d="M16 0v42.808L5.326 32 0 35.746 20 56l20-20.254L34.674 32 24 42.808V0z" fill="#FFF" fill-rule="nonzero"/></symbol><symbol viewBox="0 0 28 50" id="arrow-down2" xmlns="http://www.w3.org/2000/svg"><path d="M12 0v42.808L3 33l-3 3 14 14 14-14-3-3-9 9.808V0z" fill-rule="nonzero" fill="#FFF"/></symbol><symbol viewBox="0 0 64 38" id="arrow_down" xmlns="http://www.w3.org/2000/svg"><title>arrow_down</title><path d="M55.482 0L32.006 23.528 8.525 0 0 5.934 32.006 38 64 5.934 55.482 0z" fill-rule="evenodd"/></symbol><symbol viewBox="0 0 38 64" id="arrow_left" xmlns="http://www.w3.org/2000/svg"><title>arrow_left</title><path d="M38 8.518L14.472 31.994 38 55.475 32.066 64 0 31.994 32.066 0 38 8.518z" fill-rule="evenodd"/></symbol><symbol viewBox="0 0 38 64" id="arrow_rigth" xmlns="http://www.w3.org/2000/svg"><title>arrow_rigth</title><path d="M0 8.518l23.528 23.476L0 55.475 5.934 64 38 31.994 5.934 0 0 8.518z" fill-rule="evenodd"/></symbol><symbol viewBox="0 0 56 40" id="back" xmlns="http://www.w3.org/2000/svg"><title>back</title><path d="M56 16H13.192L24 5.326 20.254 0 0 20l20.254 20L24 34.674 13.192 24H56z" fill-rule="evenodd"/></symbol><symbol viewBox="0 0 30.89 22.79" id="binder" xmlns="http://www.w3.org/2000/svg"><title>icon_026</title><path d="M28.82 13c0-.45-.5-.57-.86-.57h-17.6a3.73 3.73 0 0 0-2.54 1.2L3.06 19.5a1.13 1.13 0 0 0-.29.65c0 .45.5.57.86.57h17.6a3.68 3.68 0 0 0 2.54-1.21l4.76-5.87a1 1 0 0 0 .29-.64zm-18.46-2.64h12.43V7.79a1.55 1.55 0 0 0-1.55-1.55h-9.33a1.55 1.55 0 0 1-1.55-1.55v-1A1.55 1.55 0 0 0 8.8 2.08H3.63a1.55 1.55 0 0 0-1.56 1.55v13.8l4.14-5.1a5.78 5.78 0 0 1 4.15-1.97zM30.9 13a3.18 3.18 0 0 1-.74 1.94l-4.78 5.85a5.84 5.84 0 0 1-4.14 2H3.63A3.64 3.64 0 0 1 0 19.16V3.63A3.64 3.64 0 0 1 3.63 0H8.8a3.64 3.64 0 0 1 3.63 3.63v.52h8.8a3.64 3.64 0 0 1 3.63 3.64v2.59H28a2.88 2.88 0 0 1 2.69 1.54 2.54 2.54 0 0 1 .2 1.08z"/></symbol><symbol viewBox="0 0 149 149" id="brainstorm" xmlns="http://www.w3.org/2000/svg"><title>brainstorm</title><path d="M138.69 24.405V7.738l5.715 4.286 2.857-3.81L136.309 0l-10.952 8.215 2.857 3.809 5.714-4.286v16.667c0 6.564-5.34 11.905-11.904 11.905H112.5c-7.534 0-13.907 4.762-15.965 11.905h-3.409l-.088 4.762h2.795v7.422a25.24 25.24 0 0 0-3.572-.279c-5.538 0-10.862 1.85-15.233 5.255A16.662 16.662 0 0 0 64.88 60.12c-1.63 0-3.23.26-4.761.719V45.834c0-7.878-6.407-14.285-14.286-14.285h-2.381v-4.763H38.69v4.763h-7.142c-7.879 0-14.286 6.407-14.286 14.285v4.762a4.767 4.767 0 0 1-4.762 4.762H7.738l4.286-5.715-3.81-2.857L0 57.738 8.215 68.69l3.809-2.857-4.285-5.714H12.5c5.253 0 9.524-4.271 9.524-9.524v-4.762c0-5.252 4.271-9.524 9.524-9.524h14.285c5.253 0 9.524 4.272 9.524 9.524v17.31c-1.035.724-2 1.554-2.857 2.506a19.916 19.916 0 0 0-5.476-.769c-10.214 0-18.692 7.553-20.03 17.498C18.497 84.89 12.5 92.784 12.5 101.785a20.27 20.27 0 0 0 3.76 11.746 19.918 19.918 0 0 0-1.379 7.302c0 11.16 9.079 20.238 20.238 20.238.902 0 1.785-.081 2.657-.195.165-.022.329-.05.493-.076a19.976 19.976 0 0 0 2.59-.572 20.024 20.024 0 0 0 10.926 3.225c4.365 0 8.522-1.374 11.972-3.92 3.753 5.42 9.878 8.682 16.6 8.682 6.243 0 11.993-2.815 15.816-7.636a19.957 19.957 0 0 0 10.375 2.874c11.159 0 20.237-9.079 20.237-20.238 0-2.41-.425-4.762-1.266-7.015a20.188 20.188 0 0 0 6.029-14.414c0-1.214-.12-2.407-.329-3.571h.329v-4.762h-1.82c-2.385-5.244-6.943-9.365-12.637-11.06a24.866 24.866 0 0 0-16.495-20.838v-8.579c0-6.564 5.34-11.904 11.904-11.904h9.524c9.188 0 16.667-7.479 16.667-16.667zm-26.23 59.969l.066 1.879 1.843.368c4.284.86 7.833 3.491 10.034 7.012v4.582h1.906c.282 1.156.476 2.342.476 3.571 0 3.781-1.383 7.357-3.83 10.157-3.425-4.715-8.845-7.598-15.062-8.01l-.312 4.456c7.909.521 14.128 6.225 14.414 15.364-.285 8.283-7.095 14.938-15.447 14.938-3.467 0-6.755-1.136-9.508-3.283l-.95-.743a15.425 15.425 0 0 1-5.002-10.42l-4.752.317a20.153 20.153 0 0 0 6.052 13.122 15.34 15.34 0 0 1-12.031 5.769c-5.912 0-11.224-3.305-13.857-8.627l-1.466-2.959-2.346 2.331a15.39 15.39 0 0 1-10.902 4.493c-1.883 0-3.707-.376-5.438-1.033 5.429-3.634 9.01-9.817 9.01-16.825 0-.507-.067-1-.103-1.5a20.168 20.168 0 0 0 10.202-5.007l-3.218-3.512a15.404 15.404 0 0 1-7.882 3.838c-1.593-4.971-5.04-9.221-9.821-11.74l-2.219 4.215a15.46 15.46 0 0 1 8.279 13.706c0 6.681-4.265 12.37-10.207 14.534-.838.302-1.688.531-2.543.688-.057.01-.115.017-.172.026-.85.145-1.703.229-2.555.229-8.533 0-15.476-6.943-15.476-15.477 0-2.29.507-4.516 1.507-6.624l.653-1.371-.972-1.171a15.489 15.489 0 0 1-3.569-9.882c0-7.347 5.222-13.728 12.415-15.171l1.826-.365.085-1.857a15.44 15.44 0 0 1 7.103-12.311v4.704h4.761v-6.712a15.482 15.482 0 0 1 3.572-.43c1.84 0 3.676.34 5.447 1.009l1.703.643 1.066-1.472c.036-.05.079-.093.117-.143v11.867h4.762V65.909a11.789 11.789 0 0 1 4.762-1.029c3.295 0 6.393 1.375 8.622 3.727-3.991 4.54-6.836 10.418-6.836 16.512 0 13.785 12.5 25 24.405 25v-4.762c-9.524 0-19.643-9.079-19.643-20.238 0-4.97 2.143-9.765 5.419-13.453l1.364-1.16a20.25 20.25 0 0 1 13.976-5.626c1.222 0 2.486.122 3.645.329v9.195c0 6.564-5.34 11.905-11.905 11.905h-2.38v4.762h2.38c9.188 0 16.667-7.479 16.667-16.666V66.68a20.145 20.145 0 0 1 11.865 17.694zm-2.341 9.079h7.143v4.762h-7.143v-4.762zm11.905-45.238h7.143v4.761h-7.143v-4.761zm-36.936 2.497l2.4-4.112a12.113 12.113 0 0 1-4.214-4.135l-4.065 2.478a16.864 16.864 0 0 0 5.879 5.769zM76.785 36.31c0 .247.005.494.017.743l4.757-.529-.012-7.357h-4.762v7.143zm0-21.429h4.763v7.143h-4.763v-7.143zm60.46 77.11l2.293 4.171a16.89 16.89 0 0 0 6.026-5.617l-4.005-2.58a12.122 12.122 0 0 1-4.314 4.026zm6.207-10.444c0 .282-.009.56-.03.841l4.752.331c.026-.388.04-.779.04-1.172v-7.142h-4.762v7.142zm-35.714-33.332h7.143v4.761h-7.143v-4.761zm39.9 12.332l-4.595 1.241c.271 1.007.41 2.047.41 3.093v2.381h4.762v-2.381c0-1.464-.194-2.924-.577-4.334zm-4.057-7.176a16.768 16.768 0 0 0-6.985-4.374l-1.45 4.534a12.025 12.025 0 0 1 4.994 3.131l3.441-3.29zM76.785 7.738h4.763l5.714 4.286 2.857-3.81L79.167 0 68.215 8.215l2.857 3.809 5.713-4.286zM38.691 12.5h4.761v7.143h-4.761V12.5zm0 42.857h4.761V62.5h-4.761v-7.143zm0-14.285h4.761v7.143h-4.761v-7.143zm0 42.856h4.761v7.144h-4.761v-7.144zm2.38-77.975l8.096 6.071 2.857-3.81L41.072 0 30.119 8.215l2.857 3.809 8.096-6.071z" fill="#FFF" fill-rule="evenodd"/></symbol><symbol viewBox="0 0 30 28.07" id="briefcase" xmlns="http://www.w3.org/2000/svg"><title>icon_028</title><path d="M28.13 4.63A1.9 1.9 0 0 1 30 6.51v19.65a1.9 1.9 0 0 1-1.87 1.88H1.88a1.8 1.8 0 0 1-1.32-.56A1.8 1.8 0 0 1 0 26.16V6.51a1.8 1.8 0 0 1 .56-1.35 1.8 1.8 0 0 1 1.32-.56h7.5V2.81a2.73 2.73 0 0 1 .82-2 2.69 2.69 0 0 1 2-.83h5.63a2.69 2.69 0 0 1 2 .83 2.73 2.73 0 0 1 .82 2v1.82zM11.25 2.81v1.82h7.5V2.81a.93.93 0 0 0-.26-.65.89.89 0 0 0-.67-.28h-5.63a1 1 0 0 0-.94.94zm-9.37 3.7v6.59h10.31v-.94a1.83 1.83 0 0 1 .54-1.32 1.79 1.79 0 0 1 1.33-.56h1.88a1.9 1.9 0 0 1 1.87 1.88v1h10.32V6.51zm14.06 10.34v-4.69h-1.88v4.72zM1.88 26.16h26.25V14.97H17.81v1.88a1.79 1.79 0 0 1-.55 1.31 1.83 1.83 0 0 1-1.32.54h-1.88a1.85 1.85 0 0 1-1.87-1.87v-1.86H1.88z"/></symbol><symbol viewBox="0 0 64 55" id="calendar" xmlns="http://www.w3.org/2000/svg"><title>calendar</title><path d="M50 0v6h-4V0h-4.002v6H20V0h-4v6h-4V0H7.998v6H0v48h64V6H54V0h-4zM54 12v-2h5.998V18H4V9.999h3.998v2H12v-2h4v2h4v-2h21.998v2H46v-2h4v2h4zm-50 38h56V22H4v27.998zM16 32h32v-4H16v4zm0 10h32v-4H16v4z" fill-rule="evenodd"/></symbol><symbol viewBox="0 0 20 20" id="calendar2" xmlns="http://www.w3.org/2000/svg"><title>ico calendario</title><g fill="#0BADFF" fill-rule="evenodd"><path d="M8.75 11.25h2.5v-2.5h-2.5zM5 11.25h2.5v-2.5H5zM12.5 11.25H15v-2.5h-2.5zM13.75 2.5h2.5V0h-2.5z"/><path d="M17.5 0V3.75h-5V0h-5V3.75h-5V0H0v20h20V0h-2.5zm-15 17.5h15V6.25h-15V17.5z"/><path d="M3.75 2.5h2.501V0H3.75zM8.75 15h2.5v-2.5h-2.5zM5 15h2.5v-2.5H5zM12.5 15H15v-2.5h-2.5z"/></g></symbol><symbol viewBox="0 0 64 58" id="chart" xmlns="http://www.w3.org/2000/svg"><title>chart</title><path d="M4.297 57.918L.274 55.755 15.37 27.953l13.924 17.814L52.288 0l11.328 16.908-3.804 2.523-6.957-10.386-22.718 45.213-14.078-18.01-11.762 21.67z" fill-rule="evenodd"/></symbol><symbol viewBox="0 0 64 54" id="chat" xmlns="http://www.w3.org/2000/svg"><title>chat</title><path d="M0 0v36h20v18l10-12h8l12 12V42h14V14H48V0H0zm4 4h40v10H28v23l-4 5V32H4V4zm28 14h28v20H46v6l-6-6h-8V18z" fill-rule="evenodd"/></symbol><symbol viewBox="0 0 64 50" id="check" xmlns="http://www.w3.org/2000/svg"><title>check</title><path d="M22.857 27.273L9.143 18.182 0 27.272 22.857 50 64 9.09 54.857 0l-32 27.273z" fill-rule="evenodd"/></symbol><symbol viewBox="0 0 64 64" id="clock" xmlns="http://www.w3.org/2000/svg"><title>clock</title><path d="M32 59.733C16.708 59.733 4.267 47.293 4.267 32 4.267 16.708 16.707 4.267 32 4.267c15.292 0 27.733 12.44 27.733 27.733 0 15.292-12.44 27.733-27.733 27.733M32 0C14.327 0 0 14.327 0 32c0 17.673 14.327 32 32 32 17.673 0 32-14.327 32-32C64 14.327 49.673 0 32 0zm2.133 14.933h-4.266v21.334h12.8V32h-8.534V14.933z" fill-rule="evenodd"/></symbol><symbol viewBox="0 0 64 64" id="close" xmlns="http://www.w3.org/2000/svg"><title>close</title><path d="M64 6.4L57.6 0 32 25.6 6.4 0 0 6.4 25.6 32 0 57.6 6.4 64 32 38.4 57.6 64l6.4-6.4L38.4 32 64 6.4z" fill-rule="evenodd"/></symbol><symbol viewBox="0 0 40 64" id="cohete" xmlns="http://www.w3.org/2000/svg"><title>cohete</title><path d="M26 41.838s-.41 4.08-6 4.08-6-4.08-6-4.08l-10 2.04c0-9.48 6-12.242 6-12.242C7.74 14.544 20 5.11 20 5.11s12.26 9.434 10 26.526c0 0 6 2.762 6 12.242l-10-2.04zm8.214-12.21C35.312 12.004 22.96 2.276 22.408 1.854L20 0l-2.408 1.854c-.552.422-12.904 10.15-11.806 27.774C2.988 32.066 0 36.666 0 43.878v4.978l4.784-.976 7.004-1.43C13.286 48.358 15.858 50 20 50c4.142 0 6.714-1.642 8.212-3.55l7.004 1.43 4.784.976v-4.978c0-7.212-2.988-11.812-5.786-14.25zM18 60h4v-8h-4v8zm8 4h4V52h-4v12zm-16 0h4V52h-4v12zm10-48.99c-3.308 0-6 2.692-6 6s2.692 6 6 6 6-2.692 6-6-2.692-6-6-6zm0 8a2 2 0 1 1 .001-4.001A2 2 0 0 1 20 23.01z" fill-rule="evenodd"/></symbol><symbol viewBox="0 0 64 44" id="comillas" xmlns="http://www.w3.org/2000/svg"><title>comillas</title><path d="M64 32.19c0-2.316-.812-4.516-2.435-6.6-1.623-2.085-3.98-3.127-7.072-3.127-1.237 0-2.512.193-3.826.58-1.314.385-2.667 1.118-4.058 2.2-.928-1.39-1.392-3.629-1.392-6.717 0-4.94 1.392-8.607 4.174-11 2.783-2.393 6.88-4.13 12.29-5.21V0c-3.71 0-7.304.579-10.782 1.737-3.479 1.158-6.493 2.856-9.044 5.095-2.55 2.238-4.599 4.901-6.145 7.99-1.546 3.087-2.319 6.56-2.319 10.42 0 5.095 1.546 9.495 4.638 13.2C41.121 42.147 45.295 44 50.551 44c3.555 0 6.686-1.003 9.391-3.01C62.647 38.981 64 36.05 64 32.19zm-33.391 0c0-2.316-.812-4.516-2.435-6.6-1.623-2.085-3.98-3.127-7.073-3.127-1.236 0-2.512.193-3.826.58-1.314.385-2.666 1.118-4.058 2.2-.927-1.39-1.39-3.629-1.39-6.717 0-4.94 1.39-8.607 4.173-11 2.783-2.393 6.88-4.13 12.29-5.21V0c-3.71 0-7.304.579-10.783 1.737-3.478 1.158-6.492 2.856-9.043 5.095-2.551 2.238-4.6 4.901-6.145 7.99C.773 17.908 0 21.381 0 25.241c0 5.095 1.546 9.495 4.638 13.2C7.729 42.147 11.903 44 17.159 44c3.556 0 6.686-1.003 9.392-3.01 2.705-2.008 4.058-4.94 4.058-8.8z" fill-rule="evenodd"/></symbol><symbol viewBox="0 0 126 149" id="design" xmlns="http://www.w3.org/2000/svg"><title>Group 5</title><g transform="translate(-150 -177)" fill-rule="nonzero" fill="none"><ellipse cx="213" cy="225.984" rx="7" ry="6.984"/><path d="M256.65 219.588l-1.65-1.646-3.3 3.292 1.65 1.646c11.765 11.741 17.983 25.661 17.983 40.26 0 9.378-2.221 18.407-6.39 26.516a16.238 16.238 0 0 0-12.276-5.562c-5.894 0-11.254 3.203-14.124 8.134a13.851 13.851 0 0 0-9.21-3.478c-3.54 0-6.832 1.336-9.333 3.564v-12.877h7v-9.312h7v-2.51c6.515.817 12.7 4.447 12.794 4.505l3.54 2.123v-4.118c0-11.364-5.993-23.023-16.334-26.713v-17.521c0-28.573-18.56-46.458-19.35-47.245L213 177l-1.65 1.646c-.79.787-19.35 18.672-19.35 47.245v17.521c-10.341 3.69-16.333 15.35-16.333 26.713l.002 4.118 3.537-2.123c.096-.058 6.282-3.692 12.794-4.507v2.512h7v9.313h7v12.876a14.028 14.028 0 0 0-9.333-3.564c-3.458 0-6.706 1.26-9.217 3.485-2.884-4.935-8.241-8.141-14.117-8.141-4.771 0-9.198 2.088-12.266 5.58-4.177-8.113-6.4-17.151-6.4-26.536 0-14.597 6.218-28.517 17.983-40.258l1.65-1.646-3.3-3.292-1.65 1.646c-12.658 12.633-19.35 27.693-19.35 43.55 0 16.793 6.554 32.578 18.452 44.451C180.735 319.842 196.867 326 213 326c16.133 0 32.265-6.158 44.548-18.41C269.446 295.715 276 279.93 276 263.14c0-15.859-6.692-30.92-19.35-43.552zm-11.259 46.588c-2.856-1.29-7.007-2.805-11.391-3.257v-14.43c6.31 3.07 10.344 10.133 11.391 17.687zm-32.389-82.396c3.036 3.576 9.527 11.743 13.35 23.486H199.66c3.825-11.725 10.311-19.904 13.342-23.486zm-32.393 82.396c1.047-7.554 5.082-14.615 11.391-17.689v14.425c-4.384.454-8.538 1.972-11.391 3.264zm16.058-.707V225.89c0-5.03.655-9.688 1.689-13.97h29.293c1.031 4.28 1.684 8.936 1.684 13.97v39.578h-32.666zm7 9.312v-4.656h18.666v4.656H203.667zm50.582 29.516c-22.746 22.692-59.752 22.692-82.495 0a58.688 58.688 0 0 1-8.181-10.241c2.154-3.29 5.791-5.306 9.76-5.306 5.176 0 9.789 3.49 11.221 8.486l1.45 5.061 2.776-4.474c1.717-2.766 4.667-4.417 7.887-4.417 4.426 0 8.274 3.132 9.144 7.443l.38 1.87h4.476v-23.281h4.666v23.28h4.476l.378-1.869c.872-4.311 4.72-7.443 9.146-7.443 3.22 0 6.17 1.65 7.887 4.414l2.793 4.498 1.437-5.091c1.407-4.992 6.02-8.477 11.217-8.477 3.997 0 7.616 2 9.767 5.296a58.756 58.756 0 0 1-8.185 10.251z" fill="#FFF"/><path d="M213.333 217c-5.147 0-9.333 4.177-9.333 9.313 0 5.135 4.186 9.312 9.333 9.312 5.148 0 9.334-4.177 9.334-9.313 0-5.135-4.186-9.312-9.334-9.312zm0 13.969a4.666 4.666 0 0 1-4.666-4.656 4.666 4.666 0 0 1 4.666-4.657 4.666 4.666 0 0 1 4.667 4.656 4.666 4.666 0 0 1-4.667 4.657zM240.667 195.969h4.666v-4.656H250v-4.657h-4.667V182h-4.666v4.656H236v4.656h4.667zM166.667 206.969h4.666v-4.656H176v-4.657h-4.667V193h-4.666v4.656H162v4.656h4.667zM261.667 213.969h4.666v-4.656H271v-4.657h-4.667V200h-4.666v4.656H257v4.656h4.667zM248.333 231v2.328H246v4.656h2.333v2.328H253v-2.328h2.333v-4.656H253V231zM180.333 228.313H185v-2.329h2.333v-4.656H185V219h-4.667v2.328H178v4.656h2.333zM180.333 186.313H185v-2.329h2.333v-4.656H185V177h-4.667v2.328H178v4.656h2.333z" fill="#FFF"/></g></symbol><symbol viewBox="0 0 39 64" id="doc" xmlns="http://www.w3.org/2000/svg"><title>doc</title><path d="M34.125 19.692v24.616c0 8.142-6.562 14.769-14.625 14.769-8.063 0-14.625-6.627-14.625-14.77V14.77c0-5.43 4.373-9.846 9.75-9.846s9.75 4.416 9.75 9.846v22.154c0 2.715-2.186 4.923-4.875 4.923s-4.875-2.208-4.875-4.923V17.231H9.75v19.692c0 5.438 4.366 9.846 9.75 9.846s9.75-4.408 9.75-9.846V14.77C29.25 6.612 22.703 0 14.625 0S0 6.612 0 14.77v29.538C0 55.183 8.731 64 19.5 64S39 55.183 39 44.308V19.692h-4.875z" fill-rule="evenodd"/></symbol><symbol viewBox="0 0 64 64" id="error" xmlns="http://www.w3.org/2000/svg"><title>error</title><path d="M9.143 32c0-4.65 1.412-8.97 3.808-12.585l31.634 31.634C40.97 53.445 36.65 54.857 32 54.857 19.397 54.857 9.143 44.603 9.143 32m45.714 0c0 4.65-1.412 8.97-3.808 12.585L19.415 12.951C23.03 10.555 27.35 9.143 32 9.143c12.603 0 22.857 10.254 22.857 22.857M32 0C14.327 0 0 14.327 0 32c0 17.673 14.327 32 32 32 17.673 0 32-14.327 32-32C64 14.327 49.673 0 32 0" fill-rule="evenodd"/></symbol><symbol viewBox="0 0 30 20" id="eye" xmlns="http://www.w3.org/2000/svg"><title>icon_eye</title><path d="M15 18c-5.58 0-10.586-5.567-12.507-8C4.415 7.566 9.42 2 15 2s10.586 5.567 12.507 8C25.585 12.434 20.58 18 15 18m0-18C6.716 0 0 10 0 10s6.716 10 15 10c8.284 0 15-10 15-10S23.284 0 15 0zm0 6c-2.206 0-4 1.794-4 4s1.794 4 4 4 4-1.794 4-4-1.794-4-4-4zm0 6a2 2 0 1 1-.001-3.999A2 2 0 0 1 15 12z" fill="#CCC" fill-rule="evenodd"/></symbol><symbol viewBox="0 0 30 30" id="facebook" xmlns="http://www.w3.org/2000/svg"><title>facebook</title><path d="M15 30C6.716 30 0 23.284 0 15 0 6.716 6.716 0 15 0c8.284 0 15 6.716 15 15 0 8.284-6.716 15-15 15zm1.078-22.923c-.49 0-.96.057-1.51.27-1.118.444-1.687 1.488-1.687 3.11v1.585h-1.568v2.647h1.568v7.631h3.197v-7.631h2.177l.294-2.647h-2.47v-1.198c0-.367.038-.638.136-.792.138-.232.412-.348.844-.348h1.451V7.077h-2.432z" fill-rule="evenodd"/></symbol><symbol viewBox="0 0 64 64" id="five" xmlns="http://www.w3.org/2000/svg"><title>five</title><path d="M32 59.733C16.708 59.733 4.267 47.292 4.267 32S16.708 4.267 32 4.267 59.733 16.708 59.733 32 47.292 59.733 32 59.733M32 0C14.327 0 0 14.327 0 32c0 17.673 14.327 32 32 32 17.673 0 32-14.327 32-32C64 14.327 49.673 0 32 0zm-3.259 36.249c.037.803.276 1.4.718 1.792.442.392.995.588 1.657.588.681 0 1.183-.15 1.505-.452.323-.301.557-.603.705-.904.165-.362.276-.748.331-1.16.055-.412.083-.758.083-1.04 0-.421-.042-.828-.124-1.22a3.09 3.09 0 0 0-.415-1.04 2.155 2.155 0 0 0-.773-.723c-.322-.18-.713-.27-1.174-.27-.662 0-1.173.19-1.532.572-.36.381-.576.803-.65 1.265l-5.302-.06.387-12.264h13.808v4.098h-9.003l-.331 5.123a6.36 6.36 0 0 1 .635-.95c.276-.351.727-.687 1.353-1.009.405-.22.82-.382 1.243-.482.423-.1.865-.15 1.325-.15.682 0 1.377.12 2.085.36a5.101 5.101 0 0 1 1.92 1.191c.57.553 1.035 1.266 1.394 2.14.36.873.539 1.943.539 3.209 0 .32-.023.718-.07 1.19a8.915 8.915 0 0 1-.29 1.506 8.627 8.627 0 0 1-.634 1.612 5.97 5.97 0 0 1-1.105 1.507 5.974 5.974 0 0 1-1.353 1.024 7.07 7.07 0 0 1-1.464.603c-.497.14-.99.236-1.477.286-.488.05-.935.076-1.34.076-.386 0-.865-.025-1.436-.076-.57-.05-1.16-.16-1.767-.331a9.116 9.116 0 0 1-1.795-.723 5.186 5.186 0 0 1-1.547-1.25 4.65 4.65 0 0 1-.773-1.116 5.955 5.955 0 0 1-.414-1.115 5.406 5.406 0 0 1-.166-1.009 13.831 13.831 0 0 1-.027-.798h5.274z" fill-rule="evenodd"/></symbol><symbol viewBox="0 0 64 64" id="four" xmlns="http://www.w3.org/2000/svg"><title>four</title><path d="M32 59.733C16.708 59.733 4.267 47.292 4.267 32S16.708 4.267 32 4.267 59.733 16.708 59.733 32 47.292 59.733 32 59.733M32 0C14.327 0 0 14.327 0 32c0 17.673 14.327 32 32 32 17.673 0 32-14.327 32-32C64 14.327 49.673 0 32 0zm.585 42.667h4.9v-4.224h3.048v-3.887h-3.048V21.333h-6.043l-7.975 12.12v4.99h9.118v4.224zm-5.607-8.111l5.689-8.723v8.723h-5.689z" fill-rule="evenodd"/></symbol><symbol viewBox="0 0 29.16 26.94" id="gear" xmlns="http://www.w3.org/2000/svg"><title>icon_029</title><path d="M18 13.33v-2h-2.08a7 7 0 0 0-1.32-3.19l1.47-1.47-1.41-1.41-1.47 1.47A7 7 0 0 0 10 5.41V3.33H8v2.08a7 7 0 0 0-3.19 1.32L3.24 5.16 1.83 6.57 3.4 8.14a7 7 0 0 0-1.32 3.19H0v2h2.08a7 7 0 0 0 1.63 3.58l-1.78 1.78 1.41 1.41 1.89-1.89a7 7 0 0 0 2.77 1v2.12h2v-2.08a7 7 0 0 0 3.19-1.32l1.47 1.47 1.41-1.41-1.47-1.47a7 7 0 0 0 1.32-3.19zm-9-6a5 5 0 1 1-5 5 5 5 0 0 1 5-5z"/><path d="M27.29 21.51v-1.36h-1.1a5 5 0 0 0-1-2.38l.78-.78-1-1-.78.78a5 5 0 0 0-2.38-1v-1.1H20.5v1.1a5 5 0 0 0-2.38 1l-.85-.85-1 1 .85.85a5 5 0 0 0-1 2.38h-1.1v1.36h1.1a5 5 0 0 0 1.2 2.64l-1 1 1 1 1-1a5 5 0 0 0 2.11.77v1.1h1.36v-1.19a5 5 0 0 0 2.38-1l.78.78 1-1-.78-.78a5 5 0 0 0 1-2.38zm-6.11 2.39a3.07 3.07 0 1 1 3.07-3.07 3.07 3.07 0 0 1-3.07 3.07zM28.1 5.53l1.06-.28-.35-1.32-1.06.28a5 5 0 0 0-1.57-2l.55-1-1.18-.68-.55 1a5 5 0 0 0-2.55-.34L22.14.03l-1.31.3.31 1.16a5 5 0 0 0-2 1.57l-1-.55-.68 1.18 1 .55a5 5 0 0 0-.28 2.89l-1.36.36.35 1.31 1.43-.38a5 5 0 0 0 1.4 1.74l-.55 1 1.18.68.55-1a5 5 0 0 0 2.55.34l.27 1.06 1.31-.35-.31-1.06a5 5 0 0 0 2-1.57l1 .55.68-1.18-1-.55a5 5 0 0 0 .42-2.55zm-2.35 2.18a3.07 3.07 0 1 1-1.12-4.2 3.07 3.07 0 0 1 1.12 4.2z"/></symbol><symbol viewBox="0 0 24 16" id="gplus" xmlns="http://www.w3.org/2000/svg"><title>icon_facebook</title><path d="M7.623 6.124v3.024s2.928-.004 4.121-.004c-.646 1.961-1.65 3.029-4.121 3.029-2.501 0-4.453-2.031-4.453-4.537C3.17 5.131 5.122 3.1 7.623 3.1c1.322 0 2.176.466 2.96 1.114.626-.628.574-.717 2.17-2.226A7.588 7.588 0 0 0 7.622 0C3.413 0 0 3.419 0 7.636c0 4.217 3.413 7.637 7.623 7.637 6.292 0 7.83-5.49 7.32-9.149h-7.32zm13.736.151V3.63h-1.887v2.646h-2.717v1.89h2.717v2.723h1.887V8.165H24v-1.89h-2.641z" fill-rule="evenodd"/></symbol><symbol viewBox="0 0 148 148" id="graphic-design" xmlns="http://www.w3.org/2000/svg"><title>graphic-design-4</title><path d="M126.19 64.286c-3.938 0-7.142 3.204-7.142 7.143 0 3.938 3.204 7.142 7.142 7.142s7.144-3.204 7.144-7.142c0-3.939-3.206-7.143-7.144-7.143zm4.762 49.998c3.938 0 7.144-3.205 7.144-7.142V41.029c5.752-4.107 9.523-10.82 9.523-18.41C147.619 10.148 137.471 0 125 0h-16.667C95.862 0 85.714 10.148 85.714 22.619c0 2.04.286 4.038.813 5.952h-69.86c-3.939 0-7.143 3.205-7.143 7.143v28.572H4.762v24.248C1.998 89.519 0 92.138 0 95.237v23.81c0 3.1 1.998 5.719 4.762 6.704v21.867h23.81v-21.867c2.764-.985 4.761-3.605 4.761-6.704v-4.762h7.143v26.19c0 3.938 3.206 7.143 7.143 7.143h83.334c3.938 0 7.143-3.205 7.143-7.143v-11.905c0-5.253-4.272-9.524-9.524-9.524h-2.381v19.047h2.381c1.743 0 3.355-.505 4.762-1.323v3.705a2.382 2.382 0 0 1-2.381 2.38H118.61c.267-.747.438-1.543.438-2.38V128.57c0-5.252-4.272-9.524-9.524-9.524h-2.381v19.048h2.381c1.743 0 3.355-.505 4.762-1.324v3.705a2.382 2.382 0 0 1-2.381 2.381H47.619a2.382 2.382 0 0 1-2.381-2.381v-26.19h85.714zm0 18.409v-8.245a4.758 4.758 0 0 1 0 8.245zm-19.047 0v-8.245a4.758 4.758 0 0 1 0 8.245zM126.19 73.81a2.383 2.383 0 0 1-2.38-2.381 2.383 2.383 0 0 1 2.38-2.381 2.383 2.383 0 0 1 2.382 2.38 2.383 2.383 0 0 1-2.382 2.382zm7.144-2.381v35.714a2.382 2.382 0 0 1-2.382 2.381h-11.904V45.238H125c2.945 0 5.75-.583 8.334-1.612v27.803zm-25-66.667H125c9.848 0 17.857 8.01 17.857 17.857S134.847 40.476 125 40.476H109.993l-7.612 5.074v-6.038l-1.398-.633c-6.383-2.893-10.507-9.274-10.507-16.26 0-9.847 8.01-17.857 17.857-17.857zM14.285 35.714a2.383 2.383 0 0 1 2.38-2.38h7.144v30.952h-9.524V35.714zM9.524 69.048H23.81v19.047H9.524V69.048zm14.286 73.809H9.524V126.19H23.81v16.667zm4.761-35.714v11.905a2.382 2.382 0 0 1-2.38 2.381H7.142a2.382 2.382 0 0 1-2.381-2.381v-11.886c.01 6.555 5.346 11.886 11.905 11.886 6.564 0 11.904-5.34 11.904-11.905 0-6.564-5.34-11.905-11.904-11.905-6.559 0-11.894 5.33-11.905 11.886V95.238a2.382 2.382 0 0 1 2.381-2.381H26.19a2.382 2.382 0 0 1 2.381 2.381v11.905zm-19.047 0c0-3.939 3.204-7.143 7.143-7.143 3.938 0 7.143 3.204 7.143 7.142 0 3.939-3.205 7.144-7.143 7.144-3.939 0-7.143-3.206-7.143-7.144zm61.905-69.048c-13.129 0-23.81 10.681-23.81 23.81s10.681 23.81 23.81 23.81c13.128 0 23.809-10.681 23.809-23.81s-10.681-23.81-23.81-23.81zM78.57 79.55a18.919 18.919 0 0 1-7.142 1.402 18.92 18.92 0 0 1-7.143-1.402v-5.74c0-3.939 3.204-7.143 7.143-7.143 3.938 0 7.142 3.204 7.142 7.143v5.74zM66.667 54.762A4.767 4.767 0 0 1 71.429 50a4.767 4.767 0 0 1 4.761 4.762 4.767 4.767 0 0 1-4.761 4.762 4.767 4.767 0 0 1-4.762-4.762zM83.333 76.75v-2.941c0-4.852-2.926-9.019-7.1-10.871 2.81-1.66 4.719-4.686 4.719-8.176 0-5.253-4.272-9.524-9.524-9.524-5.252 0-9.524 4.271-9.524 9.524 0 3.49 1.91 6.516 4.719 8.175-4.174 1.853-7.1 6.02-7.1 10.872v2.94c-4.348-3.494-7.143-8.844-7.143-14.844.001-10.502 8.546-19.048 19.049-19.048 10.502 0 19.047 8.545 19.047 19.048 0 6-2.795 11.352-7.143 14.845zM63.095 92.857h-9.524a5.958 5.958 0 0 0-5.952 5.953 5.958 5.958 0 0 0 5.952 5.952h9.524a5.958 5.958 0 0 0 5.953-5.952 5.958 5.958 0 0 0-5.953-5.953zm0 7.143h-9.524c-.654 0-1.19-.536-1.19-1.19 0-.655.536-1.191 1.19-1.191h9.524c.655 0 1.191.535 1.191 1.19 0 .655-.536 1.191-1.19 1.191zm26.19-7.143h-9.523a5.958 5.958 0 0 0-5.953 5.953 5.958 5.958 0 0 0 5.953 5.952h9.524a5.958 5.958 0 0 0 5.952-5.952 5.958 5.958 0 0 0-5.952-5.953zm0 7.143h-9.523c-.655 0-1.191-.536-1.191-1.19 0-.656.536-1.191 1.19-1.191h9.525c.654 0 1.19.535 1.19 1.19 0 .655-.536 1.191-1.19 1.191zm-55.952 9.524V95.238c0-3.1-1.998-5.719-4.762-6.704V33.333h59.91c2.072 3.827 5.198 7.065 9.138 9.191V54.45l13.816-9.212h2.85v64.286H33.334zM100 14.286h33.334v4.762H100v-4.762zm0 11.904h33.334v4.762H100V26.19z" fill="#FFF" fill-rule="evenodd"/></symbol><symbol viewBox="0 0 29.06 27.98" id="graphic_cheese" xmlns="http://www.w3.org/2000/svg"><title>icon_019</title><path d="M15.07 0v12.92h12.91A12.92 12.92 0 0 0 15.07 0zm2 2.18a10.93 10.93 0 0 1 8.73 8.73h-8.73zM28.92 16.85a12.94 12.94 0 0 0 .14-1.78h-13l.59.59 8.58 8.59a12.86 12.86 0 0 0 3.67-7.2zm-3.81 4.45l-4.23-4.23h6a10.85 10.85 0 0 1-1.77 4.23z"/><path d="M12.91 2.16a12.92 12.92 0 1 0 9.18 22l-9.18-9.18zm6.23 21.88a10.92 10.92 0 1 1-8.23-19.7V15.8z"/></symbol><symbol viewBox="0 0 32 29.53" id="graphic_screen" xmlns="http://www.w3.org/2000/svg"><title>icon_005</title><path d="M2 19h28V2H2zM0 2a2 2 0 0 1 2-2h28a2 2 0 0 1 2 2v17a2 2 0 0 1-2 2H2a2 2 0 0 1-2-2zM25.56 24H26v-2H6v2h.27l-1.15 4.27a1 1 0 0 0 1.93.52L8.34 24H15v2a1 1 0 0 0 2 0v-2h6.49l1.28 4.79a1 1 0 0 0 1.93-.52z"/><path d="M9 11h2v6H9zM13 5h2v12h-2zM17 9h2v8h-2zM21 7h2v10h-2z"/></symbol><symbol viewBox="0 0 32 32" id="graphic_up" xmlns="http://www.w3.org/2000/svg"><title>icon_010</title><g fill="none" fill-rule="evenodd"><path d="M0 0h32v32H0z"/><path fill="#000" fill-rule="nonzero" d="M1 4v23h2V4z"/><path fill="#000" fill-rule="nonzero" d="M1 27h30v-2H1z"/><g transform="translate(6 15)" fill="#000"><path d="M2 4h2v4H2zM0 4h6L3 0z"/></g><g transform="translate(15 11)" fill="#000"><path d="M2 4h2v8H2zM0 4h6L3 0z"/></g><g transform="translate(24 7)" fill="#000"><path d="M2 4h2v12H2zM0 4h6L3 0z"/></g></g></symbol><symbol viewBox="0 0 32 21" id="group_persons" xmlns="http://www.w3.org/2000/svg"><title>icon_022</title><path d="M25.5 12A3.5 3.5 0 1 1 29 8.5a3.5 3.5 0 0 1-3.5 3.5zm0-2A1.5 1.5 0 1 0 24 8.5a1.5 1.5 0 0 0 1.5 1.5zM6.5 12A3.5 3.5 0 1 1 10 8.5 3.5 3.5 0 0 1 6.5 12zm0-2A1.5 1.5 0 1 0 5 8.5 1.5 1.5 0 0 0 6.5 10zM16 10a5 5 0 1 1 5-5 5 5 0 0 1-5 5zm0-2a3 3 0 1 0-3-3 3 3 0 0 0 3 3z"/><path d="M28 13h-4.6a5.51 5.51 0 0 0-4.9-3h-5a5.5 5.5 0 0 0-4.9 3H4a4 4 0 0 0-4 4v4h32v-4a4 4 0 0 0-4-4zM2 19v-2a2 2 0 0 1 2-2h4v4zm8 0v-3.5a3.5 3.5 0 0 1 3.51-3.5h5A3.51 3.51 0 0 1 22 15.5V19zm20 0h-6v-3.5-.5h4a2 2 0 0 1 2 2z"/></symbol><symbol viewBox="0 0 23 29.97" id="hourglass" xmlns="http://www.w3.org/2000/svg"><title>icon_011</title><path d="M15.04 10.41H7.96l3.54 3.53 3.54-3.53z"/><path d="M20 10.02v-4h3v-6H0v6h3v4a6 6 0 0 0 2.65 5A6 6 0 0 0 3 19.94v4H0v6h23v-6h-3v-4a6 6 0 0 0-2.65-5A6 6 0 0 0 20 10.02zm-18-8h19v2H2zm19 26H2v-2.08h19zm-3-18a4 4 0 0 1-3.5 3.92v2a4 4 0 0 1 3.54 4v4h-.56L11.5 18l-5.94 5.94H5v-4a4 4 0 0 1 3.53-4v-2a4 4 0 0 1-3.53-4v-4h13z"/></symbol><symbol viewBox="0 0 30 32.05" id="idea" xmlns="http://www.w3.org/2000/svg"><title>icon_020</title><path d="M27 14h3v2h-3zM2.885 4.29L4.3 2.874 6.42 4.996 5.007 6.411zM23.583 5.01l2.12-2.122 1.415 1.414-2.121 2.122zM14 0h2v3h-2zM0 14h3v2H0zM11 27a1 1 0 0 1 1-1h6a1 1 0 0 1 0 2h-6a1 1 0 0 1-1-1zM24 15a9 9 0 1 0-13 8.05V24a1 1 0 0 0 1 1h6a1 1 0 0 0 1-1v-.95A9 9 0 0 0 24 15zm-10.2 1.34c0-.12-.09-.22-.13-.34h2.38c0 .11-.09.21-.13.34A18.89 18.89 0 0 0 15 22h-.3a18.87 18.87 0 0 0-.9-5.66zM17 21.7a16.45 16.45 0 0 1 .8-4.7 5.6 5.6 0 0 1 .49-1.06A1 1 0 0 0 18 14h-6a1 1 0 0 0-1 1 1 1 0 0 0 .31.72l.12.18a5.58 5.58 0 0 1 .5 1.08 16.3 16.3 0 0 1 .77 4.6 7 7 0 1 1 4.35.1zM18 29h-6a1 1 0 0 0 0 2h.73a3 3 0 0 0 4.52 0H18a1 1 0 0 0 0-2z"/></symbol><symbol viewBox="0 0 64 64" id="info" xmlns="http://www.w3.org/2000/svg"><title>info</title><path d="M26.667 21.333h10.666V10.667H26.667v10.666zm0 32h10.666V26.667H26.667v26.666zM32 0C14.325 0 0 14.325 0 32s14.325 32 32 32 32-14.325 32-32S49.675 0 32 0z" fill-rule="evenodd"/></symbol><symbol viewBox="0 0 24 23" id="instagram" xmlns="http://www.w3.org/2000/svg"><title>instagram_F</title><path d="M7.19 4.61v2.75h-.467V4.71a2.064 2.064 0 0 0-1.4 1.96v2.07h3.871a4.22 4.22 0 0 1 3.132-1.38 4.22 4.22 0 0 1 3.133 1.38h3.872V6.67c0-1.143-.92-2.07-2.067-2.07H7.389c-.067 0-.133.003-.199.01zm1.37 5.05H5.323v4.37a4.365 4.365 0 0 0 4.375 4.37h5.259a4.375 4.375 0 0 0 4.375-4.37V9.66h-3.239c.28.554.437 1.18.437 1.84 0 2.286-1.882 4.14-4.203 4.14-2.32 0-4.202-1.854-4.202-4.14 0-.66.157-1.286.437-1.84zM12.327 23C5.88 23 .653 17.851.653 11.5S5.879 0 12.326 0C18.774 0 24 5.149 24 11.5S18.774 23 12.326 23zM8.591 4.6h.467v2.76H8.59V4.6zm-.934 0h.467v2.76h-.467V4.6zm8.942.92h.327c.554 0 1.004.449 1.004 1.002v.296a1 1 0 0 1-1.004 1.002H16.6a1.003 1.003 0 0 1-1.004-1.002v-.296a1 1 0 0 1 1.004-1.002zm-4.273 9.2c1.806 0 3.269-1.442 3.269-3.22 0-1.778-1.463-3.22-3.269-3.22-1.805 0-3.268 1.442-3.268 3.22 0 1.778 1.463 3.22 3.268 3.22z" fill="#000" fill-rule="evenodd"/></symbol><symbol viewBox="0 0 30 30" id="linkedin" xmlns="http://www.w3.org/2000/svg"><title>linkedin</title><path d="M15 30C6.716 30 0 23.284 0 15 0 6.716 6.716 0 15 0c8.284 0 15 6.716 15 15 0 8.284-6.716 15-15 15zm-3.662-9.98v-8.652H8.695v8.652h2.643zM10.016 7.6c-.852 0-1.408.584-1.391 1.362-.017.743.54 1.345 1.374 1.345.87 0 1.426-.602 1.426-1.345-.017-.778-.557-1.362-1.409-1.362zm3.444 12.42h2.643v-4.99c0-.247.035-.512.105-.672.174-.495.608-1.008 1.339-1.008.956 0 1.339.76 1.339 1.875v4.795h2.643v-5.13c0-2.548-1.304-3.716-3.043-3.716a3.101 3.101 0 0 0-2.626 1.38h-.052l-.122-1.186H13.39c.035.761.07 1.681.07 2.76v5.892z" fill-rule="evenodd"/></symbol><symbol viewBox="0 0 32 17" id="mail_send" xmlns="http://www.w3.org/2000/svg"><title>icon_018</title><path d="M0 17h23V0H0zM19.3 2l-7.8 6.68L3.7 2zM2 3.17l9.5 8.14L21 3.17V15H2zM25 4h7v2h-7zM25 8h4v2h-4zM25 12h7v2h-7z"/></symbol><symbol viewBox="0 0 29 41" id="no_phone" xmlns="http://www.w3.org/2000/svg"><title>Shape</title><path d="M29 30.288L24.706 26.6V3.302A3.299 3.299 0 0 0 21.41 0H7.937a3.299 3.299 0 0 0-3.295 3.302v6.063l-2.212-1.9L.347 9.9l4.295 3.69v23.195a3.299 3.299 0 0 0 3.295 3.302H21.41a3.3 3.3 0 0 0 3.295-3.302v-5.96l2.211 1.898L29 30.288zM6.235 5.353h16.878v19.879L6.235 10.734V5.353zm8.438 33.182a1.547 1.547 0 0 1-1.545-1.549 1.547 1.547 0 1 1 3.092 0c0 .856-.693 1.549-1.547 1.549zm8.44-4.615H6.235V14.958l16.878 14.498v4.464z" fill="#E3E3E3" fill-rule="evenodd"/></symbol><symbol viewBox="0 0 30 23" id="note_calendar" xmlns="http://www.w3.org/2000/svg"><title>icon_010</title><path d="M2 21V0H0v23h30v-2H2z"/><path d="M7 19h2v-4h2l-3-4-3 4h2v4zM16 19h2v-8h2l-3-4-3 4h2v8zM25 19h2V7h2l-3-4-3 4h2v12z"/></symbol><symbol viewBox="0 0 23 32" id="note_check" xmlns="http://www.w3.org/2000/svg"><title>icon_014</title><path d="M18 3v2h3v18h-8v7H2V5h3V3H0v29h23V3zm-3 27v-5h5.5l-5.35 5z"/><path d="M10.67 15.82l-2-1.28-1.34 1.28L10.67 19l6-5.73L15.33 12l-4.66 3.82zM7 7a2 2 0 0 0 2 2h5a2 2 0 0 0 2-2V2a2 2 0 0 0-2-2H9a2 2 0 0 0-2 2zm4.5-5A1.5 1.5 0 1 1 10 3.5 1.5 1.5 0 0 1 11.5 2z"/></symbol><symbol viewBox="0 0 64 60" id="notification" xmlns="http://www.w3.org/2000/svg"><title>notification</title><path d="M36.825 54.354C35.899 55.446 34.275 56 32.001 56c-2.272 0-3.894-.548-4.822-1.628-.566-.66-.902-1.514-1.092-2.372H37.903c-.19.846-.52 1.696-1.078 2.354zm-23.996-9.526l1.172-1.17V42l-.002-17.724C14.005 23.61 14.303 8 32.001 8c17.232 0 17.972 14.628 18 16.25v19.408l1.17 1.17L54.343 48H9.657l3.172-3.172zM64.001 52l-10-10V24.25s-.118-18.996-20-20.19V0h-4v4.06c-19.884 1.194-20 20.19-20 20.19V42l-10 10h22.032c.516 3.492 2.602 8 9.968 8 7.35 0 9.438-4.508 9.96-8h22.04z" fill-rule="evenodd"/></symbol><symbol viewBox="0 0 64 64" id="ok" xmlns="http://www.w3.org/2000/svg"><title>ok</title><path d="M32 59.733C16.708 59.733 4.267 47.292 4.267 32S16.708 4.267 32 4.267 59.733 16.708 59.733 32 47.292 59.733 32 59.733M32 0C14.327 0 0 14.327 0 32c0 17.673 14.327 32 32 32 17.673 0 32-14.327 32-32C64 14.327 49.673 0 32 0zm-4.267 34.133l-6.4-4.266-4.266 4.266L27.733 44.8l19.2-19.2-4.266-4.267-14.934 12.8z" fill-rule="evenodd"/></symbol><symbol viewBox="0 0 64 64" id="one" xmlns="http://www.w3.org/2000/svg"><title>one</title><path d="M32 59.733C16.708 59.733 4.267 47.292 4.267 32S16.708 4.267 32 4.267 59.733 16.708 59.733 32 47.292 59.733 32 59.733M32 0C14.327 0 0 14.327 0 32c0 17.673 14.327 32 32 32 17.673 0 32-14.327 32-32C64 14.327 49.673 0 32 0zm-3.374 42.667h5.893V21.333h-4.946c-2.26 1.968-3.664 2.644-6.106 3.412v4.734c1.007-.276 3.541-1.29 5.16-2.643v15.83z" fill-rule="evenodd"/></symbol><symbol viewBox="0 0 23 32" id="paper_list" xmlns="http://www.w3.org/2000/svg"><title>icon_002</title><path d="M13 32l10-10V2a1.93 1.93 0 0 0-.58-1.42A1.93 1.93 0 0 0 21 0H2A1.93 1.93 0 0 0 .58.58 1.93 1.93 0 0 0 0 2v28a2 2 0 0 0 2 2zm8-10.84L12.19 30H12v-9h9zM2 2h19v17H10v11H2z"/><path d="M8.25 24.94A1.53 1.53 0 0 0 7 23.41l1.06-1.28v-1h-3.7v1.7h1.18v-.59h1.08a11.74 11.74 0 0 0-1.25 1.52l.29.63c.46 0 1.17 0 1.17.63 0 .45-.41.64-.8.64a1.86 1.86 0 0 1-1.18-.5l-.64 1a2.71 2.71 0 0 0 1.92.74 1.93 1.93 0 0 0 2.12-1.96zm0-9H7.1v.67H5.69c0-.87 2.46-1.24 2.46-2.89A1.75 1.75 0 0 0 6.21 12a2.14 2.14 0 0 0-2 1.21l.95.66a1.18 1.18 0 0 1 .9-.65.54.54 0 0 1 .6.58c0 .94-2.52 1.25-2.52 3.31a3.69 3.69 0 0 0 .07.6h4zm0-7.47H7.08V4H5.9L4.38 5.37l.79.85a2.19 2.19 0 0 0 .56-.6v2.84H4.55v1.1h3.74zm10.86 5.85c0-.2-.11-.36-.22-.36h-8.5c-.13 0-.22.16-.22.36v2.14c0 .19.1.36.22.36h8.53c.12 0 .22-.17.22-.36zm0-8c0-.19-.11-.36-.22-.36h-8.5c-.13 0-.22.17-.22.36v2.14c0 .19.1.36.22.36h8.53c.12 0 .22-.17.22-.36z"/></symbol><symbol viewBox="0 0 30.97 31.97" id="person_clock" xmlns="http://www.w3.org/2000/svg"><title>icon_004</title><path d="M29.81 25.88l-.65-.36-4.52-2.16q.16-.21.31-.44a8.81 8.81 0 0 0 .85-1.76 10.26 10.26 0 0 0 .59-3.3v-3.27a4 4 0 0 0-.68-2.18 7 7 0 0 0-1.58-1.72A8.25 8.25 0 0 0 22 9.48 6.93 6.93 0 0 0 20 9a10 10 0 1 0-7.16 10.58 9.59 9.59 0 0 0 .41 1.49 10.17 10.17 0 0 0 .75 1.79q.16.26.34.51l-4.5 2.13-.73.42A2 2 0 0 0 8 27.69v2a2.24 2.24 0 0 0 .67 1.62 2.27 2.27 0 0 0 1.64.67h18.37a2.29 2.29 0 0 0 2.32-2.3v-2a2 2 0 0 0-1.19-1.8zM13.26 12.42a4.06 4.06 0 0 0-.66 2.17v3A8 8 0 1 1 18 9.18a7.27 7.27 0 0 0-1 .29 8.2 8.2 0 0 0-2.16 1.21 6.8 6.8 0 0 0-1.58 1.74zM29 29.68a.29.29 0 0 1-.29.29h-18.4a.27.27 0 0 1-.23-.09.25.25 0 0 1-.09-.21v-2h.16l.66-.38 5.69-2.69 1.5-.71-1.26-1a4 4 0 0 1-.93-1.07 8.17 8.17 0 0 1-.69-1.42 7.88 7.88 0 0 1-.48-2.54v-3.27a2.09 2.09 0 0 1 .36-1.11 4.81 4.81 0 0 1 1.11-1.22 6.21 6.21 0 0 1 1.64-.92 5 5 0 0 1 1.74-.34 4.87 4.87 0 0 1 1.78.34 6.26 6.26 0 0 1 1.63.92 5 5 0 0 1 1.1 1.23 2 2 0 0 1 .37 1.1v3.28a8.26 8.26 0 0 1-.48 2.63 6.81 6.81 0 0 1-.66 1.36 4 4 0 0 1-.92 1l-1.26 1 7.17 3.42.59.33c.13.07.13.07.13.06z"/><path d="M10 10H7v2h5V5h-2v5z"/></symbol><symbol viewBox="0 0 25 32" id="person_idea" xmlns="http://www.w3.org/2000/svg"><title>icon_012</title><path d="M18 22H7a5 5 0 0 0-5 5v5h21v-5a5 5 0 0 0-5-5zM4 30v-3a3 3 0 0 1 3-3h4.05a1.21 1.21 0 0 0-.06.35 1.35 1.35 0 0 0 .88 1.23l-.6 4.42zm17 0h-7.27l-.61-4.42a1.35 1.35 0 0 0 .88-1.23 1.21 1.21 0 0 0-.06-.35H18a3 3 0 0 1 3 3zM10 17.5V19a1 1 0 0 0 1 1h.09a1.5 1.5 0 0 0 2.83 0H14a1 1 0 0 0 1-1v-1.5a6.5 6.5 0 1 0-5 0zM12.5 7a4.5 4.5 0 0 1 1.76 8.64 4.48 4.48 0 0 1-.73.23h-.2a4.05 4.05 0 0 1-1.62 0h-.2a4.47 4.47 0 0 1-.73-.23A4.5 4.5 0 0 1 12.5 7zM21 10h4v2h-4zM2.881 3.297l1.414-1.414 2.829 2.829-1.415 1.414zM17.878 4.705l2.828-2.828L22.12 3.29l-2.828 2.828zM12 0h2v3h-2zM0 10h4v2H0z"/></symbol><symbol viewBox="0 0 148 148" id="perspective" xmlns="http://www.w3.org/2000/svg"><title>perspective</title><path d="M73.81 0C33.11 0 0 33.11 0 73.81s33.11 73.809 73.81 73.809 73.809-33.11 73.809-73.81S114.509 0 73.809 0zm2.605 142.79l1.837-3.18-4.123-2.381-.32.552-.319-.552-4.123 2.38 1.837 3.182c-36.868-1.377-66.442-31.784-66.442-68.982 0-11.635 2.905-22.6 8.01-32.225l1.833 3.174 4.124-1.865-.319-.035h.638v-4.763h-3.653c12.24-21.429 33.843-32.3 58.415-32.3 24.571 0 46.173 10.871 58.414 32.3h-3.652v4.762h.637l-.319.035 4.125 2.125 1.833-3.306c5.105 9.627 8.01 20.529 8.01 32.163-.001 37.198-29.575 67.54-66.444 68.917zm-21.987-29.047l-4.978-8.62 4.124-2.382 4.977 8.62-4.123 2.382zm9.956 17.245l-4.977-8.62 4.124-2.381 4.977 8.62-4.124 2.381zM34.514 79.25l-4.977-8.62 4.124-2.382 4.977 8.621-4.124 2.381zm-9.956-17.245l-4.977-8.62 4.124-2.382 4.977 8.62-4.124 2.382zM50 38.095h9.524v4.762H50v-4.762zm-21.429 0h9.524v4.762h-9.524v-4.762zm59.524 0h9.524v4.762h-9.524v-4.762zm21.429 0h9.524v4.762h-9.524v-4.762zm-26.293 92.882l-4.125-2.38 4.977-8.622 4.124 2.38-4.976 8.622zM102.7 87.74l-2.95-1.706-2.386 4.119 2.955 1.712-1.297 2.247 4.123 2.381 4.979-8.621L104 85.49l-1.3 2.25zm-9.513 25.994l-4.125-2.38 4.977-8.623 4.124 2.38-4.976 8.623zm19.911-34.491l-4.124-2.38 4.976-8.623 4.125 2.38-4.977 8.623zm9.956-17.246l-4.124-2.38 4.976-8.622 4.124 2.38-4.976 8.622zm-51.625 57.05h4.761v9.525H71.43v-9.524zM27.69 44.44l8.092 4.674-2.382 4.124-8.092-4.675 2.382-4.123zm69.665 45.709l2.385-4.125-2.594-1.5 5.757-24.754 3.223-1.862-2.38-4.125-3.231 1.867-24.325-7.378v-5.414h2.381v-4.762h-9.523v4.762h2.38v5.414l-24.326 7.375-3.23-1.866-2.382 4.124 3.224 1.862 5.76 24.757-2.595 1.503 2.386 4.118 2.592-1.5L71.43 106.03v3.493h4.762v-3.49L94.76 88.648l2.595 1.499zm-25.926 9.359l-16.077-15.05-4.98-21.422 21.057 12.163v24.309zM52.752 58.912l21.058-6.386 21.056 6.386L73.81 71.074 52.752 58.912zM76.19 99.51V75.198l21.058-12.16-4.981 21.424L76.19 99.51zm-25.935-9.36l-2.386-4.119-2.95 1.707-1.297-2.248-4.124 2.382 4.978 8.621 4.124-2.381-1.3-2.25 2.955-1.712zm72.057-41.599l-8.092 4.675-2.381-4.124 8.091-4.674 2.382 4.123z" fill="#FFF" fill-rule="evenodd"/></symbol><symbol viewBox="0 0 64 48" id="photo" xmlns="http://www.w3.org/2000/svg"><title>photo</title><path d="M22 0l-4 8H0v39.998h64V8H46l-4.002-8H22zM4 12H20.47l1.106-2.212L24.473 4h15.054l2.893 5.788L43.526 12h16.472v31.999H4v-32zm28 6c-5.515 0-10 4.485-10 10 0 5.513 4.485 9.999 10 9.999 5.513 0 9.999-4.486 9.999-10s-4.486-10-10-10zm0 15.999A6 6 0 1 1 31.997 22 6 6 0 0 1 32 34zm15.999-14h8v-4h-8v4z" fill-rule="evenodd"/></symbol><symbol viewBox="0 0 64 64" id="play" xmlns="http://www.w3.org/2000/svg"><title>play</title><path d="M32 59.733C16.708 59.733 4.267 47.292 4.267 32S16.708 4.267 32 4.267 59.733 16.708 59.733 32 47.292 59.733 32 59.733M32 0C14.327 0 0 14.326 0 32c0 17.673 14.327 32 32 32 17.674 0 32-14.327 32-32C64 14.326 49.674 0 32 0zm-6.4 40.533L42.667 32 25.6 23.467v17.066z" fill-rule="evenodd"/></symbol><symbol viewBox="0 0 30 30" id="puzzle" xmlns="http://www.w3.org/2000/svg"><title>icon_017</title><path d="M15 30a2.3 2.3 0 0 1-.85-.16 2.13 2.13 0 0 1-.73-.48L.64 16.55a2.23 2.23 0 0 1 0-3.13l4.69-4.69a1 1 0 0 1 .51-.26.82.82 0 0 1 .57.09 1 1 0 0 1 .41.42.84.84 0 0 1 .09.57 2 2 0 0 0-.07.37v.31a3.66 3.66 0 0 0 1.1 2.67 3.56 3.56 0 0 0 2.62 1.11 3.31 3.31 0 0 0 2.56-1.11 3.83 3.83 0 0 0 1-2.67 3.74 3.74 0 0 0-1-2.62 3.33 3.33 0 0 0-2.56-1.1h-.31a2 2 0 0 0-.37.07.84.84 0 0 1-.57-.09 1 1 0 0 1-.43-.37 1 1 0 0 1-.08-.6.88.88 0 0 1 .25-.51L13.42.62a2.34 2.34 0 0 1 3.16 0l3.19 3.22a5.08 5.08 0 0 1 1.85-2.59 5.11 5.11 0 0 1 6.69.51 5 5 0 0 1 1.51 3.63 5 5 0 0 1-1 3.08 5.08 5.08 0 0 1-2.56 1.85l3.11 3.11a2.23 2.23 0 0 1 0 3.13L16.58 29.35a2.13 2.13 0 0 1-.73.48A2.3 2.3 0 0 1 15 30zM5.13 11.57L2 14.73a.32.32 0 0 0-.1.26.37.37 0 0 0 .1.23l12.77 12.8a.36.36 0 0 0 .53 0L28 15.23a.32.32 0 0 0 .09-.23.43.43 0 0 0-.09-.26l-4.47-4.52a1 1 0 0 1-.26-.5.79.79 0 0 1 .09-.56.86.86 0 0 1 .38-.41.93.93 0 0 1 .56-.12h.39a3.25 3.25 0 0 0 3.28-3.28A3.18 3.18 0 0 0 27 3.12a3.27 3.27 0 0 0-4.64 0 3.16 3.16 0 0 0-1 2.31.48.48 0 0 0 0 .12.48.48 0 0 1 0 .12v.18a.93.93 0 0 1-.12.56.86.86 0 0 1-.41.38 1 1 0 0 1-.56.07.87.87 0 0 1-.5-.25l-4.6-4.6a.31.31 0 0 0-.53 0L11.89 4.8a5.07 5.07 0 0 1 3 1.95A5.64 5.64 0 0 1 16 10.22a5.62 5.62 0 0 1-1.57 4 5.11 5.11 0 0 1-3.88 1.67 5.34 5.34 0 0 1-3.47-1.23 5.53 5.53 0 0 1-1.95-3.09z"/></symbol><symbol viewBox="0 0 120 120" id="sad" xmlns="http://www.w3.org/2000/svg"><title>icon_clock</title><path d="M60 0C26.863 0 0 26.863 0 60s26.863 60 60 60 60-26.863 60-60S93.137 0 60 0zm0 112C31.327 112 8 88.673 8 60S31.327 8 60 8s52 23.327 52 52-23.327 52-52 52zM41 54a4 4 0 1 0 0-8 4 4 0 0 0 0 8zm38 0a4 4 0 1 0 0-8 4 4 0 0 0 0 8zM37.414 86.244c.419-.218.91-.465 1.465-.732 1.606-.77 3.4-1.543 5.333-2.265C49.66 81.213 55.076 80 60 80c4.924 0 10.34 1.213 15.788 3.247a64.585 64.585 0 0 1 5.333 2.265c.556.267 1.046.514 1.465.732.24.126.395.21.46.246l3.908-6.98a45.375 45.375 0 0 0-2.372-1.21 72.541 72.541 0 0 0-5.995-2.547C72.317 73.412 66.014 72 60 72c-6.014 0-12.317 1.412-18.587 3.753a72.541 72.541 0 0 0-5.995 2.547c-1.105.53-1.911.952-2.372 1.21l3.908 6.98c.065-.036.22-.12.46-.246z" fill-rule="evenodd"/></symbol><symbol viewBox="0 0 64 63" id="search" xmlns="http://www.w3.org/2000/svg"><title>search</title><path d="M8.09 26c0-9.924 8.166-18 18.2-18 10.036 0 18.202 8.076 18.202 18s-8.166 18-18.201 18S8.089 35.924 8.089 26zM64 57.136L47.546 41.26c3.155-4.288 5.036-9.552 5.036-15.26 0-14.36-11.77-26-26.291-26C11.77 0 0 11.64 0 26s11.77 26 26.29 26a26.325 26.325 0 0 0 15.549-5.068l16.515 15.932L64 57.136z" fill-rule="evenodd"/></symbol><symbol viewBox="0 0 59 64" id="settings" xmlns="http://www.w3.org/2000/svg"><title>settings</title><path d="M59 14.77c0-3.206-2.063-5.91-4.917-6.932V0h-4.916v7.838c-2.854 1.021-4.917 3.726-4.917 6.931s2.063 5.91 4.917 6.932V64h4.916V21.7C56.937 20.68 59 17.975 59 14.77zm-7.375 2.46a2.46 2.46 0 0 1 0-4.922 2.46 2.46 0 0 1 0 4.923zM31.958 42.3V0h-4.916v42.3c-2.854 1.02-4.917 3.726-4.917 6.93 0 3.206 2.063 5.91 4.917 6.932V64h4.916v-7.838c2.854-1.021 4.917-3.726 4.917-6.931s-2.063-5.91-4.917-6.932zM29.5 51.691a2.46 2.46 0 0 1 0-4.923 2.46 2.46 0 0 1 0 4.923zM9.833 25.068V0H4.917v25.068C2.063 26.09 0 28.795 0 32c0 3.205 2.063 5.91 4.917 6.932V64h4.916V38.932C12.687 37.91 14.75 35.205 14.75 32c0-3.205-2.063-5.91-4.917-6.932zm-2.458 9.394a2.46 2.46 0 0 1 0-4.924 2.46 2.46 0 0 1 0 4.924z" fill-rule="evenodd"/></symbol><symbol viewBox="0 0 64 59" id="star" xmlns="http://www.w3.org/2000/svg"><title>star</title><path d="M32 0l-7.554 22.536H0l19.776 13.928L12.224 59 32 45.071 51.776 59l-7.552-22.536L64 22.536H39.554L32 0z" fill-rule="evenodd"/></symbol><symbol viewBox="0 0 64 64" id="three" xmlns="http://www.w3.org/2000/svg"><title>three</title><path d="M32 59.733C16.708 59.733 4.267 47.292 4.267 32S16.708 4.267 32 4.267 59.733 16.708 59.733 32 47.292 59.733 32 59.733M32 0C14.327 0 0 14.327 0 32c0 17.673 14.327 32 32 32 17.673 0 32-14.327 32-32C64 14.327 49.673 0 32 0zm-8.533 36.433c.053.937.133 2.43 1.409 3.893 1.409 1.638 3.429 2.34 6.486 2.34 3.642 0 5.13-.994 6.034-1.726 1.516-1.2 1.941-2.838 1.941-4.302 0-4.36-3.668-4.828-4.652-4.945v-.147c2.525-.292 4.28-2.37 4.28-4.828 0-3.073-2.579-5.385-7.364-5.385-4.2 0-7.55 1.844-7.682 6.087h5.13c.08-1.99 1.462-2.34 2.366-2.34 1.489 0 2.499.877 2.499 2.282 0 .234 0 2.224-2.286 2.575-1.09.175-2.1.117-2.791.088v3.628c.345-.029.877-.058 1.462-.058 1.063 0 3.88 0 3.88 2.604 0 1.259-.637 2.693-2.87 2.693-1.994 0-2.632-1.142-2.685-2.459h-5.157z" fill-rule="evenodd"/></symbol><symbol viewBox="0 0 30 30" id="twitter" xmlns="http://www.w3.org/2000/svg"><title>twitter</title><path d="M15 30C6.716 30 0 23.284 0 15 0 6.716 6.716 0 15 0c8.284 0 15 6.716 15 15 0 8.284-6.716 15-15 15zm-3.758-18.445c-2.244-1.117-2.79-2.125-2.79-2.125s-.348.6-.195 1.717C8.409 12.263 9.48 13.7 9.48 13.7l-1.29-.514s.066.709.567 1.439c.501.73 2.266 1.653 2.266 1.653l-1.678.021s.153.344.763.923c.61.58 2.31 1.095 2.31 1.095s-1.196.825-2.027 1.138c-.83.313-2.135.386-2.135.386s1.942 1.19 4.924.902c2.983-.29 5.036-1.662 6.625-3.95 1.589-2.288 1.438-5.26 1.438-5.26s.174-.197.596-.578c.422-.381.552-.569.552-.569l-1.055.11.685-1.204s-.418.187-.707.292c-.288.105-.676.21-.676.21s-1.53-1.846-3.752-.751c-2.223 1.095-1.504 3.563-1.504 3.563s-1.897.065-4.14-1.051z" fill-rule="evenodd"/></symbol><symbol viewBox="0 0 64 64" id="two" xmlns="http://www.w3.org/2000/svg"><title>two</title><path d="M32 59.733C16.708 59.733 4.267 47.292 4.267 32S16.708 4.267 32 4.267 59.733 16.708 59.733 32 47.292 59.733 32 59.733M32 0C14.327 0 0 14.327 0 32c0 17.673 14.327 32 32 32 17.673 0 32-14.327 32-32C64 14.327 49.673 0 32 0zm-8.533 42.667h15.311v-4.118h-8.911c5.184-4.117 8.857-7.041 8.857-11.338 0-1.193-.297-2.357-1-3.342-1.214-1.73-3.267-2.536-6.13-2.536-1.592 0-4.806.269-6.4 2.387-1.295 1.73-1.35 3.342-1.35 3.998h5.267c.054-.566.189-2.416 2.214-2.416.675 0 2.025.238 2.025 2.088 0 .955-.324 1.73-.675 2.357-1.377 2.178-4.969 5.162-9.208 8.623v4.297z" fill-rule="evenodd"/></symbol><symbol viewBox="0 0 14 14" id="validation-ko" xmlns="http://www.w3.org/2000/svg"><title>Fill 2</title><path d="M14 1.4L12.6 0 7 5.6 1.4 0 0 1.4 5.6 7 0 12.6 1.4 14 7 8.4l5.6 5.6 1.4-1.4L8.4 7 14 1.4z" fill-rule="evenodd"/></symbol><symbol viewBox="0 0 14 11" id="validation-ok" xmlns="http://www.w3.org/2000/svg"><title>Fill 3</title><path d="M5 6L2 4 0 6l5 5 9-9-2-2-7 6z" fill-rule="evenodd"/></symbol><symbol viewBox="0 0 64 48" id="video" xmlns="http://www.w3.org/2000/svg"><title>video</title><path d="M60 44H14.89c.688-1.18 1.11-2.536 1.11-4V4h44v40zM4 40V16h8v6H6v4h6v6H6v4h6v4c0 2.206-1.794 4-4 4s-4-1.794-4-4zM60 0H12v12H0v28a8 8 0 0 0 8 8h56V0h-4zM22 36h32v-4H22v4zm0-10h32v-4H22v4zm0-10h32v-4H22v4z" fill-rule="evenodd"/></symbol><symbol viewBox="0 0 32 32" id="wallet" xmlns="http://www.w3.org/2000/svg"><title>icon_008</title><path d="M15.57 8.93H17V5.71a2.75 2.75 0 0 1-.61.64l-.86-.89 1.65-1.53h1.27v5h1.43v1h.67a5.85 5.85 0 0 0 .76-2.84c0-2-1.23-4.64-3.57-4.64s-3.57 2.61-3.57 4.64A5.85 5.85 0 0 0 14.9 10h.67zM26.67 19.59a1.78 1.78 0 0 0-1.25 3 1.78 1.78 0 0 0 2.51-2.51 1.69 1.69 0 0 0-1.26-.49z"/><path d="M31.13 10.91A3 3 0 0 0 29 10H4q-.59 0-.78-.25L3 9.47l4-.8V10h2V4.29c1.57 0 2.25-.73 2.25-2.3h12.89c0 1.57.61 2.3 2.18 2.3V10h2.1V.71a.72.72 0 0 0-.71-.71h-20A.72.72 0 0 0 7 .71v5.88l-4.56.91A2.76 2.76 0 0 0 .38 9 5.07 5.07 0 0 0 0 10.56V29a2.89 2.89 0 0 0 .88 2.13A2.89 2.89 0 0 0 3 32h26a3 3 0 0 0 3-3V13a2.86 2.86 0 0 0-.87-2.09zM30 29a.94.94 0 0 1-.3.69 1 1 0 0 1-.7.31H3a1 1 0 0 1-.7-.29A.94.94 0 0 1 2 29V11.3q0 .49.64.74a3.76 3.76 0 0 0 1.36.24h25a1 1 0 0 1 .7.29.94.94 0 0 1 .3.69z"/></symbol><symbol viewBox="0 0 148 122" id="web-design" xmlns="http://www.w3.org/2000/svg"><title>web-design</title><path d="M138.095 0H9.524C4.272 0 0 4.271 0 9.524v85.714c0 5.253 4.272 9.525 9.524 9.525h42.857v11.905H35.714v4.761h76.191v-4.761H95.238v-11.905h42.857c5.253 0 9.524-4.272 9.524-9.525V9.524c0-5.253-4.271-9.524-9.524-9.524zM90.476 116.667H57.143v-11.905h33.333v11.905zm52.381-21.429a4.767 4.767 0 0 1-4.762 4.763H9.524a4.767 4.767 0 0 1-4.762-4.763V9.524a4.767 4.767 0 0 1 4.762-4.762h128.571a4.767 4.767 0 0 1 4.762 4.762v85.714zm-133.333 0h128.571V9.524H9.524v85.714zm4.762-80.951h119.047v76.19H14.286v-76.19zm7.143 9.524a2.381 2.381 0 1 0 0-4.762 2.381 2.381 0 0 0 0 4.762zm7.142 0a2.381 2.381 0 1 0 0-4.762 2.381 2.381 0 0 0 0 4.762zm7.143 0a2.381 2.381 0 1 0 0-4.762 2.381 2.381 0 0 0 0 4.762zM19.048 57.143H52.38V28.572H19.048v28.571zm4.762-23.81h23.809v19.048h-23.81V33.333zm33.333 23.81h33.333V28.572H57.143v28.571zm4.762-23.81h23.81v19.048h-23.81V33.333zm33.333 23.81h33.334V28.572H95.238v28.571zM100 33.333h23.81v19.048H100V33.333zM19.048 61.905h71.428v4.762H19.048v-4.762zm0 9.524h71.428v4.762H19.048v-4.762zm0 9.524h71.428v4.762H19.048v-4.762zm78.571-19.048h30.953v4.762H97.619v-4.762zm0 9.524h30.953v4.762H97.619v-4.762zm0 9.524h30.953v4.762H97.619v-4.762z" fill="#FFF" fill-rule="evenodd"/></symbol></svg>