<svg width="301" height="250" viewBox="0 0 301 250" xmlns="http://www.w3.org/2000/svg"><title>Untitled</title><path d="M197.28 85.216c-1.554-2.58-5.025-1.864-6.773-.118-11.577 11.565-22.22 19.751-37.282 26.29-5.038 2.186-1.922 10.12 3.152 7.919 14.462-6.277 25.313-14.133 36.307-24.518 1.886 4.633 2.301 9.615-1.361 13.82-1.176 1.35-2.696 2.487-4.283 3.31-2.67 1.387-9.954 3.898-7.67 7.75 2.442 4.124 4.7 9.405 5.279 14.283.63 5.307-.621 8.602-6.305 7.91-2.4-.292-4.806-.887-7.128-1.548-3.358-.953-5.601 3.055-4.664 5.791 3.268 9.529-2.866 22.005-14.055 18.924-7.054-1.942-17.302-8.376-18.718-16.114-.982-5.364-9.495-4.464-8.507.94 2.343 12.792 18.315 24.29 31.102 24.427 12.96.138 19.85-12.594 19.41-24.222 7.562 1.168 14.899-.108 17.109-9.247 1.614-6.677-.495-14.004-3.531-20.407 3.215-1.532 6.229-3.94 7.767-5.553 8.4-8.812 5.866-20.148.151-29.637" fill="#E91763" fill-rule="evenodd"/></svg>