<svg width="100" height="83" viewBox="0 0 100 83" xmlns="http://www.w3.org/2000/svg"><title>Untitled</title><g fill="#FFF" fill-rule="evenodd"><path d="M9.055 25.716c-1.113 0-1.696-.874-1.696-1.736 0-.448.15-.869.421-1.184.313-.362.754-.554 1.275-.554.522 0 .962.191 1.275.554.271.314.421.734.421 1.182 0 .863-.582 1.738-1.696 1.738m4.522 2.036a1.6 1.6 0 0 1-.45-.066c-1.07-.312-1.336-1.47-1.047-2.453.289-.984 1.14-1.816 2.21-1.506 1.069.311 1.335 1.47 1.046 2.452-.247.842-.905 1.573-1.76 1.573m21.948 4.298c-2.185 0-4.172-1.52-4.939-3.838-.349-1.058.308-1.807 1.067-2.055.841-.275 1.93.016 2.29 1.102.306.929 1.245 1.348 1.942 1.203.597-.124.898-.622.828-1.368-.1-1.065.668-1.627 1.425-1.697.935-.087 1.954.502 2.061 1.638.232 2.45-1.688 4.735-4.192 4.991a4.64 4.64 0 0 1-.482.025"/><path d="M86.708 28.714c-.097-1.214 1.148-1.521 2.228 0 .636.95.349 1.472.36 2.024-1.04-.242-2.501-.84-2.588-2.024M75.124 50.766a35.41 35.41 0 0 1-.415 1.295c-.043.127-.089.254-.134.38-.11.313-.226.624-.346.933-.05.13-.1.262-.153.392-.151.373-.308.744-.473 1.11-.021.048-.04.096-.062.142-.186.411-.384.816-.588 1.217-.058.114-.119.226-.179.34a29.06 29.06 0 0 1-.478.874 27.215 27.215 0 0 1-.795 1.312c-.045.069-.087.14-.133.208-.245.373-.5.739-.763 1.098-.07.095-.143.188-.214.282a24.584 24.584 0 0 1-1.584 1.899c-.07.075-.136.152-.207.226-.304.321-.618.633-.94.937-.077.072-.157.14-.235.212a21.934 21.934 0 0 1-1.91 1.558c-.053.038-.101.08-.153.117l-.213.196c-.322.374-.355.981.226 1.802.22.31.444.609.678.897 1.854 2.284 2.918 3.453 5.729 4.09 0 0-1.364.013-2.01 1.272-.631 1.225-.62 2.157-.62 2.157-3.373-.97-5.37-2.468-8.352-4.969a23.785 23.785 0 0 1-2.34-2.242c-1.546-1.706-2.755-3.591-3.42-5.579-.577-1.725-3.333-.986-2.75.755.64 1.918 1.685 3.749 3.01 5.443-5.134.687-10.42-.07-15.481-1.156.25-1.303.44-2.61.544-3.919.145-1.822-2.708-1.813-2.853 0a32.058 32.058 0 0 1-.443 3.285 41.67 41.67 0 0 1-.618 2.773c-.853 3.323-1.583 5.335-2.799 8.476-.84-.794-4.077-1.72-5.035-1.051l2.458-9.012c.204-.934.387-1.871.551-2.81a55.61 55.61 0 0 0 .48-3.23c.206-1.813-2.648-1.799-2.854 0-.083.73-.185 1.46-.303 2.189-2.15-.914-4.222-1.996-6.164-3.302-5.976-4.018-9.104-9.767-10.372-16.481a24.314 24.314 0 0 0 5.49 2.585c5.95 1.933 13.302-.611 17.82-4.656 1.368-1.224-.655-3.228-2.018-2.008-3.52 3.151-9.446 5.333-14.15 4.185-4.922-1.2-10.923-5.203-11.46-10.574 8.373 2.392 19.702-1.617 15.656-11.7-.015-.037-.883-1.511-.553-1.07.088-.063.175-.137.257-.23 1.652-1.863 3.785-3.328 6.146-4.459.32-.152.64-.302.967-.443 1.932-.829 3.99-1.442 6.06-1.868a8.679 8.679 0 0 0-.523 1.974c-.239 1.807 2.616 1.789 2.853 0 .1-.753.507-1.634 1.024-2.51.649-1.1 1.466-2.19 2.06-3.006l.065-.088c2.385-3.285 6.455-8.047 8.33-7.327 2.545.95 2.42 5.125 2.737 8.357.095.979.145 1.96.148 2.946.008 3.04.218 3.577-.66 6.655-.503 1.762 2.235 2.51 2.75.755.752-2.556.752-3.507.745-6.619a39.226 39.226 0 0 1 7.176 3.097c5.621 3.133 10.264 7.847 11.992 14.155 1.588 5.8 1.503 11.98-.199 17.733m-53.97 22.7c-.57-1.704-1.712-2.272-3.994-1.704 1.872-3.004 2.726-4.966 3.647-8.326 1.15.802 2.35 1.53 3.587 2.192-.874 2.821-1.68 5.324-3.24 7.839m-.07-49.761c5.157 13.692-25.711 9.65-16.866-3.085 3.834-5.521 14.228-1.95 16.867 3.085zm-1.309-13.354c.388-.79.967-2.255 1.564-3.239.807.68 1.884 1.877 2.442 2.469 1.467 1.553 2.841 3.266 3.762 5.201-2.33 1.21-6.117 4.636-6.122 4.643-1.132-1.105-2.493-2.012-3.976-2.7.193-2.198 1.382-4.445 2.33-6.374M96.2 22.181c1.055 2.497 1.214 5.294-1.046 7.204-.644.544-1.804 1.04-3.033 1.297-.026-1.385-.47-2.745-1.433-3.827-1.314-1.48-3.979-2.487-5.764-1.214-1.75 1.249-1.17 3.706-.074 5.18.91 1.226 2.236 2.048 3.686 2.493a7.26 7.26 0 0 1-1.335 1.52c-2.325 2.025-5.693 2.15-8.422.892-1.29-6.875-4.902-13.163-11.075-17.473-3.503-2.445-7.477-4.27-11.628-5.473-.314-4.47-.334-7.572-2.778-11.627-.954-1.584-3.818-1.267-4.773-.634-4.25 2.82-5.891 4.927-8.883 9.061-.43.593-.881 1.225-1.315 1.885-2.785.4-5.59 1.101-8.211 2.146-1.256-2.628-3.149-4.928-5.228-6.965-1.024-1.003-3.105-3.564-4.756-2.494-1.386.899-2.278 3.644-2.952 5.033-.995 2.052-2.077 4.269-2.47 6.559C8.287 14.05.96 16.204.076 23.808c-.525 4.516 1.772 7.656 5.143 9.456-.133 3.646 1.507 6.674 3.947 9.066.876 7.442 3.39 14.187 9.17 19.187-.846 4.23-3.586 8.325-5.848 11.945-.632 1.011.225 2.008 1.232 2.137 2.542.326 5.082.659 7.623.992.495.065.984-.32 1.231-.703 1.802-2.787 3.38-5.82 4.416-8.988.469.21.94.415 1.417.61-.867 4.075-2.123 8.11-3.354 12.036-.218.696.258 1.6.996 1.747 2.543.511 5.083 1.033 7.623 1.555.815.167 1.46-.235 1.755-.992 1.389-3.567 2.795-7.299 3.767-11.094 6.013 1.347 12.34 2.066 18.365.86 3.78 3.673 8.812 6.41 13.466 7.507.65.153 1.246-.111 1.61-.653l4.185-6.217c.634-.942-.218-2.092-1.232-2.137-2.911-.129-5.447-1.398-7.245-3.61 4.294-3.538 7.41-8.459 9.21-13.952 1.467-4.478 2.033-9.172 1.648-13.708 4.76 1.307 10.262-.266 12.33-5.169.108-.005.217 0 .324-.01 6.3-.57 9.455-6.66 7.097-12.248-.7-1.66-3.462-.93-2.75.756z"/></g></svg>