<svg width="100" height="83" viewBox="0 0 100 83" xmlns="http://www.w3.org/2000/svg"><title>Untitled</title><path d="M65.76 28.405c-.518-.86-1.675-.621-2.258-.04-3.859 3.856-7.406 6.585-12.427 8.764-1.68.729-.64 3.374 1.05 2.64 4.821-2.092 8.438-4.71 12.103-8.173.629 1.545.767 3.205-.454 4.607-.392.45-.898.83-1.427 1.103-.89.463-3.318 1.3-2.557 2.584.814 1.374 1.566 3.135 1.76 4.76.21 1.77-.207 2.868-2.102 2.637-.8-.097-1.602-.295-2.376-.516-1.12-.317-1.867 1.019-1.555 1.93 1.09 3.177-.955 7.336-4.685 6.309-2.351-.648-5.767-2.792-6.239-5.372-.327-1.788-3.165-1.488-2.836.314.781 4.264 6.105 8.096 10.368 8.142 4.32.046 6.617-4.198 6.47-8.074 2.52.39 4.966-.036 5.703-3.082.538-2.226-.165-4.668-1.177-6.803 1.071-.51 2.076-1.313 2.589-1.85 2.8-2.938 1.955-6.717.05-9.88" fill="#FFF" fill-rule="evenodd"/></svg>