<svg width="301" height="250" viewBox="0 0 301 250" xmlns="http://www.w3.org/2000/svg"><title>Untitled</title><g fill="#E91763" fill-rule="evenodd"><path d="M27.165 77.147c-3.34 0-5.088-2.62-5.088-5.208 0-1.343.449-2.605 1.264-3.55.938-1.088 2.26-1.663 3.824-1.663 1.565 0 2.887.574 3.825 1.66.814.945 1.264 2.205 1.264 3.548 0 2.59-1.748 5.213-5.089 5.213m13.565 6.109a4.8 4.8 0 0 1-1.35-.199c-3.207-.934-4.007-4.409-3.14-7.358.867-2.95 3.42-5.45 6.63-4.518 3.206.934 4.005 4.408 3.14 7.357-.742 2.524-2.717 4.718-5.28 4.718m65.843 12.896c-6.555 0-12.518-4.56-14.817-11.517-1.048-3.173.924-5.42 3.2-6.165 2.523-.825 5.79.05 6.867 3.306.921 2.787 3.74 4.044 5.83 3.61 1.789-.371 2.694-1.867 2.482-4.103-.3-3.196 2.005-4.88 4.276-5.092 2.805-.262 5.862 1.506 6.183 4.914.696 7.35-5.065 14.206-12.577 14.973-.483.05-.965.074-1.444.074"/><path d="M260.125 86.141c-.292-3.642 3.442-4.563 6.682 0 1.91 2.851 1.047 4.416 1.081 6.074-3.118-.727-7.503-2.522-7.763-6.074m-34.753 66.157a101.445 101.445 0 0 1-1.244 3.884c-.13.383-.268.762-.403 1.143-.33.938-.677 1.87-1.038 2.797-.152.392-.303.785-.46 1.175a94.14 94.14 0 0 1-1.419 3.333c-.063.142-.12.286-.184.425a91.212 91.212 0 0 1-1.765 3.65c-.174.343-.357.68-.536 1.02a87.181 87.181 0 0 1-1.435 2.622c-.212.37-.422.738-.639 1.105a81.645 81.645 0 0 1-1.748 2.83c-.133.207-.26.42-.396.626a79.763 79.763 0 0 1-2.29 3.293c-.21.286-.43.563-.642.845a73.752 73.752 0 0 1-2.677 3.354 73.473 73.473 0 0 1-2.076 2.343c-.208.225-.408.457-.619.679a70.1 70.1 0 0 1-2.821 2.81c-.231.217-.471.422-.706.636a65.8 65.8 0 0 1-3.322 2.843c-.786.63-1.59 1.24-2.408 1.833-.157.113-.303.237-.46.35l-.637.588c-.965 1.122-1.064 2.944.677 5.405.658.93 1.332 1.827 2.035 2.693 5.561 6.85 8.754 10.358 17.187 12.27 0 0-4.092.04-6.033 3.814-1.89 3.677-1.856 6.473-1.856 6.473-10.119-2.913-16.114-7.404-25.057-14.908a71.354 71.354 0 0 1-7.021-6.726c-4.637-5.117-8.265-10.774-10.258-16.737-1.732-5.176-10-2.957-8.253 2.266 1.923 5.754 5.058 11.246 9.032 16.327-15.403 2.062-31.26-.207-46.443-3.467.748-3.91 1.318-7.83 1.632-11.756.436-5.467-8.125-5.439-8.56 0a96.174 96.174 0 0 1-1.327 9.855 125.011 125.011 0 0 1-1.856 8.317c-2.559 9.971-4.748 16.007-8.395 25.428-2.52-2.38-12.233-5.16-15.106-3.152l7.373-27.035a202.537 202.537 0 0 0 1.654-8.432c.563-3.223 1.068-6.452 1.438-9.689.621-5.44-7.942-5.396-8.559 0-.25 2.19-.556 4.38-.91 6.566-6.448-2.74-12.665-5.988-18.492-9.905-17.93-12.054-27.312-29.3-31.116-49.443a72.941 72.941 0 0 0 16.471 7.755c17.85 5.798 39.906-1.833 53.458-13.967 4.104-3.674-1.965-9.684-6.052-6.024-10.559 9.452-28.339 15.998-42.452 12.554-14.766-3.603-32.767-15.608-34.38-31.722 25.12 7.177 59.107-4.851 46.968-35.103-.044-.11-2.648-4.53-1.658-3.205.265-.19.524-.414.77-.692 4.957-5.59 11.355-9.983 18.44-13.376a76.388 76.388 0 0 1 2.901-1.329c5.796-2.487 11.972-4.328 18.18-5.606-.75 1.945-1.305 3.925-1.57 5.922-.717 5.42 7.849 5.368 8.559 0 .299-2.258 1.522-4.902 3.073-7.53 1.945-3.3 4.397-6.567 6.182-9.016.063-.088.132-.18.193-.266 7.153-9.854 19.364-24.14 24.987-21.98 7.637 2.851 7.265 15.376 8.213 25.071a93.73 93.73 0 0 1 .443 8.839c.026 9.122.654 10.73-1.98 19.964-1.508 5.285 6.707 7.527 8.253 2.265 2.254-7.67 2.254-10.52 2.234-19.856 7.47 2.383 14.702 5.484 21.526 9.289 16.864 9.401 30.794 23.542 35.977 42.467 4.764 17.398 4.51 35.937-.597 53.198M63.462 220.4c-1.71-5.113-5.135-6.817-11.982-5.113 5.616-9.014 8.178-14.9 10.94-24.978a107.089 107.089 0 0 0 10.76 6.574c-2.619 8.465-5.038 15.974-9.718 23.517m-.207-149.283c15.468 41.077-77.137 28.95-50.602-9.254 11.504-16.563 42.685-5.849 50.602 9.254zm-3.93-40.06c1.163-2.372 2.902-6.766 4.693-9.717 2.42 2.036 5.65 5.63 7.325 7.405 4.4 4.659 8.523 9.798 11.285 15.604-6.991 3.63-18.349 13.909-18.366 13.929-3.394-3.315-7.478-6.037-11.926-8.1.577-6.594 4.146-13.336 6.99-19.122M288.6 66.542c3.163 7.493 3.642 15.882-3.14 21.614-1.93 1.632-5.41 3.117-9.098 3.891-.077-4.157-1.411-8.236-4.299-11.483-3.943-4.437-11.937-7.461-17.293-3.64-5.25 3.745-3.51 11.118-.22 15.541 2.732 3.675 6.708 6.14 11.056 7.476-1.108 1.72-2.513 3.265-4.004 4.564-6.975 6.072-17.08 6.446-25.267 2.673-3.867-20.625-14.705-39.49-33.225-52.418-10.509-7.337-22.429-12.809-34.883-16.42-.941-13.412-1.002-22.717-8.333-34.882-2.864-4.752-11.455-3.801-14.32-1.9-12.748 8.462-17.674 14.78-26.65 27.182-1.288 1.78-2.642 3.676-3.944 5.656-8.354 1.2-16.77 3.302-24.633 6.436-3.768-7.882-9.446-14.782-15.684-20.895-3.07-3.008-9.315-10.691-14.267-7.48-4.158 2.695-6.834 10.93-8.856 15.098-2.986 6.157-6.231 12.806-7.408 19.676C24.857 42.15 2.876 48.614.224 71.425-1.35 84.972 5.54 94.39 15.654 99.793c-.4 10.937 4.52 20.02 11.841 27.198 2.628 22.325 10.171 42.559 27.511 57.56-2.54 12.688-10.76 24.975-17.545 35.835-1.895 3.033.676 6.023 3.695 6.41 7.626.978 15.248 1.978 22.87 2.976 1.484.195 2.953-.961 3.694-2.11 5.405-8.359 10.142-17.459 13.246-26.96 1.407.63 2.822 1.242 4.25 1.826-2.6 12.226-6.366 24.333-10.06 36.11-.654 2.088.774 4.797 2.988 5.242a5544.276 5544.276 0 0 1 22.87 4.663c2.444.503 4.38-.705 5.265-2.975 4.165-10.702 8.384-21.897 11.3-33.283 18.038 4.043 37.02 6.198 55.095 2.582 11.342 11.017 26.437 19.229 40.397 22.52 1.953.46 3.74-.334 4.833-1.958l12.553-18.652c1.902-2.825-.655-6.276-3.695-6.411-8.735-.387-16.343-4.194-21.736-10.83 12.883-10.613 22.23-25.376 27.629-41.857 4.401-13.434 6.1-27.515 4.944-41.122 14.283 3.92 30.788-.8 36.991-15.507.324-.017.652-.003.973-.032 18.899-1.71 28.364-19.98 21.29-36.742-2.101-4.98-10.386-2.791-8.252 2.266z"/></g></svg>